<mxfile host="app.diagrams.net" modified="2024-03-27T07:57:52.936Z" agent="Mozilla/5.0 (Windows NT 10.0; Win64; x64) AppleWebKit/537.36 (KHTML, like Gecko) Chrome/123.0.0.0 Safari/537.36" etag="wywnGtqdQr2tcEyV4Ryn" version="24.1.0" type="github">
  <diagram name="Page-1" id="oC_gkXIokiCAt_op0T9k">
    <mxGraphModel dx="1434" dy="738" grid="1" gridSize="10" guides="1" tooltips="1" connect="1" arrows="1" fold="1" page="1" pageScale="1" pageWidth="850" pageHeight="1100" math="0" shadow="0">
      <root>
        <mxCell id="0" />
        <mxCell id="1" parent="0" />
        <mxCell id="njZ23-EEaWyoHb-toW5m-1" value="1) Catalog Setup | Brands Menu" style="text;strokeColor=none;align=left;fillColor=none;html=1;verticalAlign=middle;whiteSpace=wrap;rounded=0;fontSize=15;fontStyle=1;labelBackgroundColor=none;fontColor=#1D3557;" vertex="1" parent="1">
          <mxGeometry x="40" y="90" width="490" height="30" as="geometry" />
        </mxCell>
        <mxCell id="njZ23-EEaWyoHb-toW5m-2" value="&amp;nbsp;ECommerce | Isetan.com.sg" style="text;strokeColor=none;align=left;fillColor=none;html=1;verticalAlign=middle;whiteSpace=wrap;rounded=0;fontSize=21;fontStyle=1;labelBackgroundColor=none;fontColor=#1D3557;" vertex="1" parent="1">
          <mxGeometry x="30" y="20" width="540" height="30" as="geometry" />
        </mxCell>
        <mxCell id="njZ23-EEaWyoHb-toW5m-3" value="ISD 2024/03/26&amp;nbsp; V1" style="text;strokeColor=none;align=left;fillColor=none;html=1;verticalAlign=middle;whiteSpace=wrap;rounded=0;labelBackgroundColor=none;fontColor=#1D3557;" vertex="1" parent="1">
          <mxGeometry x="40" y="50" width="160" height="30" as="geometry" />
        </mxCell>
        <mxCell id="njZ23-EEaWyoHb-toW5m-4" value="Product Categories are defined in Catalog » Inventory » Categories. The most basic application of categories is to construct the main navigation menu for your Magento site. In a standard Magento store, the navigation menu is made up of the subcategories assigned to the default root category." style="text;strokeColor=none;align=left;fillColor=none;html=1;verticalAlign=middle;whiteSpace=wrap;rounded=0;labelBackgroundColor=none;fontColor=#1D3557;" vertex="1" parent="1">
          <mxGeometry x="30" y="120" width="790" height="60" as="geometry" />
        </mxCell>
        <mxCell id="njZ23-EEaWyoHb-toW5m-5" value="&lt;font style=&quot;&quot;&gt;* &lt;span style=&quot;font-size: 14px;&quot;&gt;LS Central&amp;nbsp;&lt;/span&gt;&lt;/font&gt;&amp;nbsp;| Hierarchy Management" style="text;strokeColor=none;align=left;fillColor=none;html=1;verticalAlign=middle;whiteSpace=wrap;rounded=0;fontSize=15;fontStyle=0;labelBackgroundColor=none;fontColor=#1D3557;" vertex="1" parent="1">
          <mxGeometry x="40" y="190" width="490" height="30" as="geometry" />
        </mxCell>
        <mxCell id="njZ23-EEaWyoHb-toW5m-29" value="search for ‘Hierarchy’" style="text;whiteSpace=wrap;html=1;" vertex="1" parent="1">
          <mxGeometry x="40" y="230" width="150" height="40" as="geometry" />
        </mxCell>
        <mxCell id="njZ23-EEaWyoHb-toW5m-28" value="" style="shape=image;verticalLabelPosition=bottom;labelBackgroundColor=default;verticalAlign=top;aspect=fixed;imageAspect=0;image=data:image/png,iVBORw0KGgoAAAANSUhEUgAAA20AAAG9CAYAAACGU57MAAAAAXNSR0IArs4c6QAAAARnQU1BAACxjwv8YQUAAAAJcEhZcwAADsMAAA7DAcdvqGQAAJS9SURBVHhe7d0HYBRV/gfwHzW00ItSFQSkCgqKICgiYAH0EBtiQc8DvTs8PUVPEBVBEfzriQ08FQtiQ1TAQhdQpAoignSk95JAIBDCf75v523eTmZLkk0yu/l+dMhO2Slv3sy837w3s4V2btl7xiLW/1aHv9YHi/NvduX0++RdVm6xPxERkROvf0REFC2Ftm/aY11XfMFa6skTcvjIYTl+PEVSrO502mkWzMlzWBAiIiIiooKk0LaNu1XQduDgftm+c5vM+WGW7N6zW/bu3SN79+21JyMiIiIiIqL8UGjrhl1ntu3YKouWLJQp33wtBw7st0cRERERERFRfiuMGrZFi3+W9z54hwEbERERERGRxxRGk8gp3062e4mIiIiIiMhLCs//8QfWsBEREREREXlU4e07ttsfiYiIiIiIyGsKb9/OoI2IiIiIiMirCjVv3pw/ekXZpn/jT38mIm8qVKiQ/6/+TERERLGBQRtliw7WihQpIgkJCVK0aFEWBIk8DMdrWlqapKamyunTpwOCOCLyNhy/PFaJCrbC9l+iLEPAVqZMGSlWrBgvJkQeh2MUxyqOWRy7ehgReR+PVSKKSk3b6WKl5VjZcyW5wvlyotRZklqqmqQVT7THFgxFTyZLQsoeKZGyWxIPrpHSSZulSFqKPTa+4I5fenq6lC5dWhUCiSi2nDp1So4dOyaFCxdmYZAohrDGjajgylHQdsIKzradf4ccL1PTHkKmkke3S+0/xlvB3G57SOzDBQPQvKp8+fK8eBDFINx0OXLkCGvciGIMgzaigitbQdupEhVl23k3y9GK56v+wmnHpfzBVVJh/3IpcXyfFDt5WIqkn5TThYtLSplacrhiczlY5UJJK15WTV/QJB5aKzXXfSzFUg/bQ2IXLhi6pq1ChQr2UCKKNYcOHfLXtLEQSERE5G1ZDtoQsK1r+W/VJLJQ+ik5a8dsOWv7TClsBWmhnJFCcrhSM9l+zg1yskQle2jBUfTUMWmw7AUpejLJHhJ7dC0b/qKmrWLFiqqfiGLPwYMHVU2bDtgYuBEREXlXll5Ecqp4Ofmj9WAVsOGZrSa/DJfqW78NG7BBIStsq3BgpTRZ/ryUO/i7PbTgSLPSbM0lT6ugl4iIiCirzjvvPPsTERU0EQdtZwoXk3UXDZQzhQpLuQO/SYPfXpWE1EP22MgVTj8l9Va/JRX3LLaHFBxIO9RSpltpGct0E0kiil08joliT/369e1PRFTQRBy0/dnoLlXDlnh4rdT74x3ri6ftMRmqVa0ql7VrJ+3bd5BWrVpJ7Tp1pHjxzAEKWuGcu+Ej9QxcQYM03Hr+HXYflalWTW5+f4LcZHWlrc9ERESUu1q2bGl/IqJYEdEzbXhL5LpW/5Eip45Jk+XPSbFTR+0xGZo0biIXNG+unnU6mnJUjhw+IklHjsiRpCTZtWePnExNtafMkF6oqPx+4X/kZInK9pCCo8HS56VEyh67L2eqWcHOoEGD5NJLL7WC5OL2UHcnT56UBQsWyLBhw2Tfvn320Mjou/J4CQn2c6VK2X82Mc1az52NW0jrXrfIda18F49pC36WH6ZPl1q/LZMSxzLnMSKKngMHDqhn2vAyEgj1TBt+QP/8889Xb4yNxNGjR2XVqlXqh7yJKHquueYa+e677+y+7HvnnXfk3nvvtfuIKBZEUNNWSP5sfI/6hOfX3AK2UiVLSdcunaVc+XJW0JAgxYsVk6JFi0iRokXV73glliljFQwyFwgKn0mTWpu/tPsKlq2N+1r/RufB/+eff14uv/zysAEbYJorrrhCnnnmGXtI1kSjOdWeeufL0p53yvbmrWTe9l32UJFZu/bK3jrnyYou18vO+o3toUSUmyI5pps2bSqHDx+WuXPn+jsw+81u//79KsgjIiKi6AgbtKWWqKR+LBuvq6+y60d7aKBOnTpKqTKlpWiRolagVlgKF8JrpAtLkSLW58LW38JFpGiQH2HGTwWUSMkouLs5PLK93Hvp2XZfcJjuzKsd/d0L19ezxwTCvEKNzwvqR8ij9BbNCy64wP4UudatW9uf8tbORhfIxsuulNPFioqkn5bDJ47LppOnZPvJNEk+lSaFzqTL6aLFZLMV0O2tk73988ILL8irr77q79Cf3x5++GEZMmSI3Zc9f/vb30JuE+avx1911VVq2C233OIfhg7r4caZZtmll5dfzG0Itq25LT+3P7eUKVNG/vzzT7svQ9Gi1nHsAtNGWitnGj16tDzxxBN2nw/ObxgebVhOnz597L7gMB1qJXT3z3/+0x4TCOuJ8agJ8Rqs03PPPWf3ERFRLAobtB0r73tTUaV9S9SzaG4a1G+g6oz0b/6A74/9BetPqKY35Q/8Zn/Kub9O+EMK/XOOjJy5VQZeVdseGuidn3epaR77eqM9JGsQ8EVDSmId+1POBCs4hRJJrVy0nSidKFutYOxMejp+nVuq1qghza3gYurhozLxwGE5r30HqVSrlkjaKSt4OyObml4oaVYAlx1jx45VhSt0GzduVAVp1Bbkl5deekmGDh1q92XPpk2b/Nt07NgxFcRpCNh2797tHz9z5kx7jMjmzZv9w7Eeweg0+/HHH7MdYH766adqHnkN+xb7+Ouvv/ZvK5ro5WSfey34Qs1Vw4YN7b5ACBjq1cvbm1BbtmyRdu3aqVp+ty67sB1eC3zmzJmjmpKha9Gihev6/frrr2p8dpuuIeDLKgZjsaFJkybSqFEjuy/QhRdeyJeLEFFEwgZtx0v5arjKHMligGPGaGFa35RJ3mR/ih4EZH8ePJGvtWnhpCS6B5XZgUKbrnHTn0N1+WHbBa3tGrZ0Obv62VLdKlCnpZ22ujRJs4I4/C1/Xn0pW6miCupOFykiO+s2sL+dfW+99Zb89ttv0qVLF3tIbDIDMQRomg5MsJ1O5cqVU8FLVuBZp1jTs2dPFbCZaYT0wHNV8QI3vu666y4599xz7SE+KBCixkg/m5ZXUJvm1jRSd9mFAMmLtVXaihUr+Np1yhIcu/369ct0Y6V58+Yq0M/OjVciKnjCB22JtdTf4iePqL9uNm/Zop6LwAsq/M9HGIEahqnalSBKpGQUQMPZ8syl8tFdjf1NIJc/FrqZ37q9KSpww/fQoQkl4Lu6maRJz99cBjod/Onp8Vcve+Y/Wvinw/cjdbJUVftT/MNbIi+/qpNUKlVKEs6kS9VmzeXUqTS5KKGoPHtWBRlYtYJcULKYnLICt3LNWkih48elUokEuaDXzVK6as7TCbVUaOKF5nvOpoXoR+CD2iWzOaHZvM5sPmjWQqHf/A7oac3pUCtm1oyZ88P3AdM7hwWDiz+2Cdq2bauCOP1d5/Y1a9bMPy4SKEisXbtWfcZ6mOng7NfzRYc0RLNMvd36M6Y3p9HM7TXTRg8zp3cbpqG/dOnSAQGbU6hlmftPpzs+679Yf70t6HT6BssTuWXNmjXy4Ycfyn333ecP3LCv7r77bhWgrl+/Xg2LdbjBomuN3SCgM5srgq5d1dCcUgd+kdRG6e/je5hnuOaYhw75fu4G0+J7+IubYXp9zOUDpkEzSz2N7vQ66+/hr24e6radJozv1auXehEVxiNwR2d+x1wHMJt6OsdR7sHNo7ffflvtbx24oYYNgdxrr72mjm0ionDCBm0nSvtq2oqkHVN/3cywCkspKccl7XSanE5Ll3SrUH4mHYFaRiCXZhXQgyl6Kvi83VzXpJJq3oiuRc0yrs+7IegqX7KoagoJdSqWkE9/2SvlB85X/YBxK7YfVdMC5oPv3P7+atXpZaCp5S0X+gIH9Ou/LV9Yor5bqXQx/7Qb9h33zy8cPNdWUFw78mW5uu2lMrJnd/nbpRf7a9iuKlNCiljjyxQpLDdULCdPnVtdBtetIa/842/ynz63Sqc2F0un50b6ZpIDKASiYI/me6AL/iiM79mzx18jgwspLqzoUDDW0z322GP+4aCfGYMaNWqo4WiGiAI8Ctbox/LM6TQU9n/55Rf//LBOCBZQI2YOc8K66CAByzCDFARm+rvYHh1YoTCvh2P9QgUXKEBg3igEui3fCctAU0o9f7darSpVqsiOHTvUeLO2E99FYKi/e9ZZZ6ntc5tnJMtBc9Fggi1L0/sPNXXY/4B+/Vc3KcW24M2ryAsQKk/kFjNww/JQ8xZPAZuGIAvNEJ2tAtCPYEM3VZw4caIKRObNmydnn+27DuhgRNeG4e/q1avV51CwPAQzmC+ORbfn3bB8TIe8bMJ30DxSW7x4ccAr1dH87ZtvvvE3odQd5gX4rP9i24NtpwnNMDEcxzumGT9+vOrM77Rv77tJCTiut27d6h+HgI/yjhm4XXvttfLXv/411wM23NDTQbqzA7fh6PA9IvKeiNvTFE07bn/KLDk5WWbPmi3JSUlyIvWEnDx1StWYpJ0+pQrmx6wLYLqugXMV/Hk3N2N/2ml/EtUEskHVUnafyNu9z1c1Xr1bVQsI0DCd2zNs0/84KO3qllOfb7uomizdmqw+g36xSbBn46DxWaVV4Khr2jo1rKCGkYOx+5OPp9j547QUKVRYTlnjTlr5A39P2X9PomLW+osMWsj4bnahoK4L9njGTV+UUFOxcuVK9RlmzJhhfxL1kwj4Hpi1MSi8m3ShHsEJAiMdVKAw5fxZBB0sOIOi33//XQWJZi2QE+arg4Q77rhDBSOaWYjE9qBW0Qnr6Vx3k36mDUEBtjMcbO9ll10WMlhBGupt1bWdgAIkvmumKZr5uc0zkuUgQA4m2LI0vf8QBJcqlXEuccK2mIFyqDyRm1DIQxDbo0cPmTp1ap4HbJdcconqQn2OBjST1DWfGm5OYF/rwiUCDxyjCIaQtxDsIEhDQKOfE8JfBDPhoNmjDrx27dolFSpUUJ+hY8eOankDBgxQAY8ZoGH/O2F5ukYFwReCQP0ds7YrmGDbGQldW+gMynA+0umA9EE/a9vyFs7hP/zwg2rO/eWXX+Z6DRtuMukg3tmB23B0+B4ReU/YoK3EMV9N1cnivsAmmBUrf5UvvpwkG9atk7179snBgwdl/4H9sm37NjluBXKhnAoz76zQLyLRNWLhIJBD7Rpq2VrVTpSrXluhhiNgQ3CI+aCmLZQJS/f4l4kONXCRyEqz0Fj37cCHZOqixTLw0y/kw6nfqFpZBPSf7zsoe06lSfLpdPlk514Z9PsGeXLVOnn03w/Lc489Jj98+onMeGKgPZfsQ3CmnwNDzYQuUKFAH6pZHaDgiBdA6IApq79vFwkdkAEKgc7CqhMCK6w7HDlyxDVIyy6sS0pKSkBtlBsEY1hnBMBY53DTO5kvi0GH+bnNM9xydJAcKqhzW1ZO5EWeCAZ5uVOnTipg69y5c6Zn3OKFDjCqV6+u/mq46WIWMBFIAYJXBDsI0hCUIFDSAVNOmS8iifRFI1hP1Nahxm3+fN8NRARsuMmp5xVKsO0MBQEb1g/TI7gMZ+fOjBuglPtQk4/WBgjYrrvuukzPuBERhRI2aEtI2av+Hi9dQ/0N5fjxE7LcCt6WLF0iq9eskR07dslpqzAezvHS+dtMELVrT159jmw+EBhc4nk46HJ+RfVXO3I8zd8kc/XuY6q5ZnYUt9O2IDi6d48s/fRjOZCUJKeLl5T930xWQduCg0dk6Po/5ck/NsniA4dVDVzK/B8k/awactDqfvrxJ0nZl7N0Qo0UAhwEa5puQoiCUSR0wQ8BQ05qVXSAESwowzqiFgVN9pzM7yCAwTaArqXTwYwZoJqwvagJDAfzQY0T1hUvJdHBIbi9vRBvxcR8zdqrcLDuoV4M4zbPUMtBc9Prr78+IKBDrSX6wy0rmHCBa7TyRFag0IcmkWhmNX36dBW89+/fP08Dt0WLFqku1OdoQbBj1gahRhkFXWezSdiwYYM0btzYn/fRJBLNA1Frlh+WL1+u1gc1ZGagp5+Hcza/REsAvV2httOEoMt5w0YHYmbzTMBxrOeHZeN7Zo0h5a6LL75YNYl84403VFNZHMP/+te/GLgRUcTCBm1lDvua3hwr7XshiRu8tay+deJpd1lb6Xj55aopSatWF0ndenWlSuVK6ge2Q/2A65EKWbtDH20fL9ujnnlDU0kNgZxuaumE4A7j8CISPPuGft08El2kb6wsc2SD/algqL5+jRRJTbU2vIwkbd8mh3+Y5WsmmXZavZQEQVzK9O8kdcsmKVSylBSRM1Jrzw7721mjn89CB/o5JA1NCFHQjaQZCGplMC3mhWaJOa1VwbqYzfUQjKHT/Rjn9mp+8zsoCOppEFwh0NPbDDpANV/AgUKa23w1/X38Rc0UoBYShUk9D7PWAkGgOe+s1F5hPVCI1N9HB27zjGQ5GIZn0pz7HWkTbFnhINjD/LB8p2jniUigwH3nnXfKu+++629Whb8ff/xxngdueQXBjnkDAkEGar1Q66SbDqKmEzAt9jOe2wIEPujH8275AeuD/Go2X0Ugp5ta1q4d2Owe24ntQm1cqO006aAL4xGIYVn6O07Iz6iBwzi9DpQ3cLMFaT9mzBj/jTv8fe+99xi4EVHECjVv3jzkE0NpRUvL6rbDJeH4Pmn6yzB7aAY0Rbm6SxdV8E61CuRHrQLe8ZRjcjjpiGoGknQkWY7gc1KSnDxpFdgLBcaJ6VbRfGXroXK6ePSad8WKJj8OlCLpJ+2+7Fu2bJm0adPGCnxOqYt4uLuz+I02BCutWrWyh0RGvQXU7k6fPp3pea1I7Kl1rmxoeYmVsU5bPTulcNJhufSii6x8VlQW//CDSOWqIpUqy5lCheTcP1ZJ9e3ha4ayA03pUCMVKogh8pIGDRpIQkJCppdgAF5ogZrBdevW2UPCQy1qkSJF1OvIdRcMfnctq6/xz853iOIRfmOxRIkS6rlJp4us6x9ujP3xxx/2kNBQ82zW3GYXgnYEkkQUO8LWtBVNOybl9y6T1JJV5Ej5jB+HxAX+yo4d5bZbbpGKFStK+fLlpWTJklLCKlQULVZUilqFgaKFi0iRwoWlMAI162+6FMpU47a3xhUFMmArt295VAI2wN3b22+/3e4Lr2/fvrJ06VK7L29V27ZZzv3tFyly+pTVc7Z6vX/7Lp2l45UdpVzrNnKmShUpbAWf9X9fnmsBG6B5ofkCEiKvQ0DmFrABCoNZCdiy6vDhw1KnTh27LzxMG41nyYjiAQIyt4ANcNM10oCNiAq2sDVtcKpYWVlz6VD14ozGy0cg9JJzrIvyXXfeaU+B30JOl6SkI5KUnKxq1Q4dPmT1J1tdknXBx/Aj6pk3a5FqetzUxctNfm/5hKQXLaGGFSSNfh4ixU4l2X05gyZATz31lGozj6aooZw8eVJ++uknGT58eJabdEWjpk07UbKUbKvfWC7s3Fna2q+lnvfTAlk78TOpvnWTFD0d/CcicgI1bHj2Cc9GsZaNCrKs1LShhg/P7qG5XyQQ5KEgitYXRBQ90appw7Uw3Eu4iMhbIgraYOv5d8jhqhdJ1Z0/SL0d38j9/ftL+XIZb31E0KaaQyYnSdKRI3LoyGHrr/XZEbShYGAV++VMusj65gPkaDnfb+kUJKhlq7PmfbsvdkQzaNNKVKkqFw97AW/3lyWDH5MTOXzpCBFFJitBGxF5Q7SCNiKKPWGbR2o1130iRU4dk73Vr5ASl9wRELAF0CGgVbAPxioeyJ6aVxXIgA1pWHvtBLuPEKTN69dX5lsdAzYiIiIioswiDtoKp5+SBr+MUp/npDeX55YVkeOpGU3YzpxJ99fC+Prx2fe6fwzSIRxePLK5Xm/ZeW4Pe0jBUchKjwbLRkohKy2JiIiIiIgiUaRatWpP25/DKnL6hFTatUAOVbtYtp4qKz/tLymli6RJ7dLpcujocTl96qScOHFCUq3u+PHjkmJ1J1NPScrJ05KSXkT2lm8mG5v0l2Pl6tpzLDhQw3b+kmFS7GR0nmPLbwjK8VteRBSbcI7Gz7WweSRRbDl4MOPniYio4Ij4mTZTeuFi8meTv0pyBd8P7VYreVraV02VaoWSpUzqXjmRckSSjh6Tw8dOyd7jhWWHVJJdCedIaqmMH+ktSBIPrZU6v7+taitjma5JRRetZ9qIKH/wmTYiIqLYka2gTUstdZZsPb+PHC9T0x5CppJHt0utPz6UEil77CGxzQza0tPT1U89EFFswt161rQRERHFhhwFbdrpoqXkWNlzJbliIzlhBXKoUUsrnmiPLRiKnkyWBCs4K3Fsl5Q9tFpKHdmsmpPGEzNgQwEPv81HRLEJr+XH8WwGbkRERORNUQnaKH6hUKfpoA1NI/F7TfjtJiKKTfgNNfwAttlEUmMAR0RE5C2FmjZtqkrlZuGcyI2+K49grUSJgveD6ETxRr04ygredO05EcUGXI9xzOq/RBT/CrVr147RGhERERERkUdF/DttRERERERElPcYtBEREREREXkYgzYiIiIiIiIP4zNtlOvwoPSpU6ckLS1NvXkSLz3gi2+IiIiIiCLDmjbKNQjMjh8/LkeOHJGUlBQ5efKkCtoYsBERERERRY5BG+UKBGhJSUnqdeJERERERJR9DNoo6vDbT8eOHfNsjRpr+oiIiIgoljBoo6hBMIRmkAjavPxjn/whUiIiIiKKJQzaKGrQFBLNIomIiIiIKHoYtFFU4O2QeOkIERERERFFV54GbR06dLA/eVflypXl3nvvlbfeekvmz58v3333nbz22mvy4IMPyjnnnGNPJfLee+/Zn7yhZs2a8uqrr6oOn/OSbhYZ7WaHlSpVkueee07mzp2rOnzGMCIiIiKigiRPgrYiRYrIM888Iy1btrSHeNN9990nY8aMkaJFi8ro0aPlL3/5i9x4443yySefqPH//e9/5YEHHlCfzzvvPPXXC5o1a6bWe/r06arDZwzLK2gWmRsv93jsscckISFB+vbtq7oSJUqoYUREREREBUmu/7g2Ct0vvviiLF26VN5//317qLcULlxYnn76aTl8+LC88sor6rfE3FSsWFFGjhwpu3fvliuuuEIuu+wye0z+ufzyy1UgM3jwYPnll1/UsAsvvFCGDRsmL7zwgqqhym34HbbcCNoWL16sguZt27ap/rp168oHH3zgiXQnIiIiIsoruRq0lS9fXl566SX58ssvZcqUKfZQ7xk4cKB6Rf3rr79uDwmuePHiMmTIEE8EbXfccYeqDXz44Ydly5Yt9lAfNOXUaf/hhx/aQ6MvLS1Njh49avdF16pVq6Rp06Z2n4/bsJyrJO1795LyS8fKlHX2IC+o1F56dxWZNmG+HLAHQYPu/aThWmtd75wsq648ICPa9pXx9rhY0mfcAnm80mxp2mOwPST/qXVquDZv0nSYtf9uqGv3bJKvmvYQt5QYNnmVNF/ZVFyTqc84WfB4Q1k7oq30jcVM4GUNuks/Ky+MnXLAe+cHnBt6lZelY6dI5lXync8aJ9q9kiyrJ06Q+eZJRH2/sfgncZvG4j/XiJUWHavbQ0V2zvHYudILkF9aHZaJjvN1fsL+07stefVEmeDfwQ2ke79WcjhgnzvyTfJqx7YEjg+cnwXbb+QRK5NYxw4yCZbVUSRe84y53Y40Q/q3OhyYTpXa95ZeGYmc6bgLGB8wv5yWU8Lv80z7VMv1vJ3TbcuJaCw7MB0D95sv/xtHhp/vPBr43YBzq8t5PteaR1arVk3Gjh0rH330kacDtnr16skll1wi//vf/+wh7iZOnCg//vijzJ49WwVs+fmWRNQMDho0SDp16qSev3MGbIBhGIdpMC2+kxsQtEVTx44dZfJkqzBrBWeAv2anh2Gazp07q/68gBNpv+4N7D4fnJB7t8+9Z+watG0ssm114EnSOohbVd8pa/P8xOY0TCavWiDj+ti9cWJ837bS1AjYEDAtiMJGZpoPgq0bKsuSEU3VTYgRSyrLDQvGScCSMI2V1/1xnZvxfaVt05wGbPG5L3PGupC2qi47o3ag4cLdW3LxdGHDcnwFEFx/VTdxGzbHT53LetWSbRMDpynf2LFyxrmmQTWrwKannbNTqnfsbi2Jog6FtH5RSluroN0x0So8qv02R5Ibt/XPt0F3BFGOIL1B24B8Mye5sfQyrnkNulsFy2QrEPPPr5fo0SpPoVBvf1d9/3A1O9utkylWf1wGbDjeOiZagVdGmrXNSGTpKHMcQVADaVt+qT+Nxs5Jlsa9jP1tfadX42Qrvs2Yn7kPgspmvsE+rbVtor0+2Kdd8+AcFYdCHju+/K/Hqc46hyKwW2AdE5Xad804riaulsRW7e3jxroGdcV5OvDGXK6U5PG815tvvqmaRc6aNcse6k2oqfrqq6/CBmG9evVSNWu6u/LKK+0xeQ81fRUqVJD+/fvLoUOH7KGZYRymwbRoPpkboh20Pfnkk+r5RxRkQ3VDhw6Vv//97/a34lEDaWgVmJY67npValxLZPUCl7vrFEv6dGooZTfN9gdb4/vOlk1lG0onHTj5a9BGyJIkexjlnUqNpZb4LqoxpVI1SRTHTZ0D82W+7vcXCh0FdmuaKSHONevmG3fY1621lpAo1Vi487RK1RIl2X/T74AcTrb3GYJxK5jIFEStmxIwbN2C1ZJcvaEdCOB6lGxlBz3BOlmwOlmqN/SNrVTeXJZPQJ6JVzjekrfJantDDxxOlkRfIkv7VlZcnDmRZUpgIsvq5OpiJ6M0aFjdKstnXN8D90HuSN6j9xLyiP0R6987L24yxYmQx46TfUNwqe/4wLHjvzl4YI8kJ5b3BW1WIFhr27TA87Ql6s0jW7RooZ6n+s9//iO//fabPdS73nnnHfXs17p1zoPLu/CcGmrQIg2Y0KRz2rRpqhYr2pKSkiQ9Pd3uyznUoiEoi0RWpg0NJyjcnZ6Dqj67Gjuj2YLZxAR2zpkoh1sZVeF62kp2E4Kl5aVXiOYS/nnZ4yphmHUR9TUlsaE5gmqaZeZLrKdqL+k7kNG8zmgeqZr2tS6rpgxsbtdHxi14XPyjkpZE8B3UvlwpB75aKw1vaC2+KezxKqDQwyz2/KyFyOOV1sqSyq2tZSXJEtVkD/O5QfyVRc5lR9A8MnAdMYsR0lZHO3YafLW2odygprGXe77R9HDTVxnLyDS9xWX8iLazpJOZZnq+WGxAs0ZjuCVzen4mNTLN5w2RBx6XSrMDmzyiNu7KA8a2Kb5955w2g72f9Do49s2mr/T3HHlAb3OQfTlezTf0fvtKbvDXAgbsE6eA9DLXybEMlzxbafZXIjfY06h1/sPYjsC0NwXP14HpsOkrzN9IPxtqDrrKNPsuuT4/2LUFuKttNC00m7MENG2yQps5aNbimD7jnOBoNmOeK3D8W+eSOdtqSceMdjMZ5wM1T7fmkb55BmuK5tZcy53jXGNQ57CA85UvfdyaBgWmB0YZy860jcZ5VJ8kzW22pw91fnUuL2PfhDrHO/av4huGWojwaWXT6+e67XZeUJ8D97s/TfD9wAuNb9sdwzPSMNQ2WR8D1gfLbChrxy6QakH2aybm9x3bphh58AC2tda2wPF+gemr0qX8UisHdQzSdNORdlY6YNqMfOubX8ZudqYtmgAulfK9XNJEcRx3Ad+319UKQBMbW8esP385lhnQ9DOjySGODTQnXlDNPH+EYn4/cF4+ZtoFpqNfsHzjWOfk1VYg0bhW4PzVd3G6mCLWwo3jGt818one/yGOPd+2BEtXiCDdHedYa8dZaSj2OCOfq230NVv3bZ9jHzvSxMxfvvxnBdqJja3v4nvTRLoGW3bG1mWJ2/GiOcbp40GlO5atkn2PtFXHq5l+PlGvaRs+fLh6lg01bWhOmJUOTRDzWp06dWTjxo12X9Yg4MsPeBtnVmq4UItYrFgxuy+6ohmw5bfqHXGQ+Kqv5+xMlMZdfdXU66aMlYmrk30nCmvclHUHZP4ETOM7GYw171pbJ4JeCLb0fMxqcutgzWiuYs1z6R7f8EysE5hb06wGbaWxZNzVC2AVvh9ovd8qnNq1kV+t1CNUIbXh2hH+WkorDvONQcEWz2/Zw1UTvcnDfCOVstL6SpE31HjU+NT1jVdN8r6yisIoNFvj7MK8UrchvmBNrwOc5mKtlL1s6ztlW8vN5iLC8BW+je2y5rG/9eMSuJqt5Up5Q40fsUSk9eOrZFXzlb7prQFJda8MbPpnTO8bf0Pg/JTx0retlVabfAFJxvYgAMEm2evz1X5p/YDdrNF1HwSZT66w9vUDrWW/kd6+XODMA9a+rGxvc7B9GW6/WWmG5+x827nJStIH3JtXOtPLSm9f9vUFbJVVmvjGuTURrXtDc1mpxlvrYC1z1aoH7PyFNLXyp1tmysKxsLK5GTRqDcTXMtntQLOOza6NJdkKBnzH+ByxDyffxRcFV318r06Ujjj2D8yXCdZ0O1XBwhqnL+QNrGPFmM9O69zhb1oFVn8rq+Cnxk/EnduO/uZowa2TKWhi07Gf9MvUXKqSVLMKOBl31kMIcq4JFrBlNLGyznm+90b50sNo6uVsUqcY22ittjTuZa23Pn+qbW4VeLc/1PnVWpfGVmEsI/2Tpbq/qZGP+zn+gKzellFrpKCmNVG3dMA2Ij0zd0Gbx1uFr67mts/RucRXcDX3u79J2ropvm1WhVlrnJ3Gvmyi57PTSoKMZo4Q7LqF+an0UeuKZSK46up69z4z3zXIWXsWzIH5E/zLiuiRASsvI7jJ2KaMZnnO42js2oYBN02xb8r789tEVVPVKjCTWPkoI00CmyD60j9RXbd949Vx2tuRT2pZBWeMV8eqM49by0zUx6J1vKn5+/IDjo0pB6x9b63/tAgK/JXat5LqRk1dtrjmm8zH5dLyjY2AyXbgsPW96tIR646yiXFcl7cCmoBTRchjL1y6Rpbuih004RxrBk0Z+dw6V1r5p18/RDf2uiDfGyfPcMeMvYOt8WaAbHFbNoIsdQw5u2DNUUMdO75xupYNDsyfpvKTmiearU/DjXzf8eooASpRD9rw/BTewnj//fcHNCeMpEMTxLyGtx6WKlXK7oscAlPzd9vyW8+ePeWee+5RHZp8xpP27durLrftNA4SVb2tq6mzAnef/Cc+ez5mNbkxzwPr1qkDF0FhRiHIEqRpFppOmAd7ZpWlhi7xDh7sq1kYdrO0liXyhhEpDO6Lgnkf6dSwrGyanRFwqSZ6dZtbxWnNKsi/ocdbwcdsK/KoXCOgUJ2J0eRPGdzDqCEaLCvVLELOwWCv41e6lgQGy2dLkqRuc6OwnpSxfeNnrbXW2lrvz+xvjJ8la5PKSqXzfb2KMT2CFt9mRbZOw5rXtb7+Wcb6DP7MSl2jWaPbPshjGdtiLR8r0KeTNCy7SWb7d4xvXwakoVO4/bbpq4zxSANnGitWkHRl3cD9Z6V3X/RYQWFdcz9YMjURtWR817cOZv4a7FupIPnRZT9kSgdrVA8ErA7WFb/6zqUhC7a+JlCwTnyNNKyAoVai42K81CpchGjaFNCkZp2s3WnO12KdS/wFPyvwW+ocH4wKElFYEVUYcz6LGwnXc42+6WSeq1RwZ6ynxdcszk6PgIJHYJM6xdjGA6u3WQVIK7DVJ74Dq2VbcqKUNzc55Pn1gMyfYqQ/5uc4hwc7x/v2VUaAiKahiTvX2tP6btLpwqbZhb4TbzQhtTKJmhfylrUNGed2pIlILefzhIZ1U4w0dGmaGuq6pa4t9rpmBBOoudAFT7cmcL4CP56zyUpNg29ZE2VbrV5B5mvYaTTPVE0E9X7OfBzhOMENUr+Apry+gDsxMJPIavM5ILMJop3+Zn5V+z6xlpi7IGD5AQE8WPnBOhj9+RhBk84TqP3Bc0i+RLbT2D2Q9d/UcKuNyalM64zVxI0jA4IRVVNqrztq0fR+U80+DweuV6hjL1y6Rpju1oTS3Q6azNMMZORz37nS2kn+c/Q638nTyPehjxnzuxmCLNvcvwGdsQy/MMeOa9nOPL9YQWQl37OQU9Yh0NXHaUaAGPWgbcWKFfKvf/1LPZfUunVre6h37dq1S+rXr2/3Ra5hw4b+V9HnNzxfZwa8N910U54EORDtH9R28/zzz6sa3JiENsr2R3Xw64JUiIuaepYk010a3zNuQd+LgBqTEWulIWqZ8KIWuzzep0Zlkf07/IFZhvOlUlnUZPim93WodTAKu1GB2o2MZQR9qQaa6fnXw+rUBmAdk+TAH75JtPE79gcvrI/fIfut/3Zk3uAo6CNIzrKtH89Yz1VoamcHLEH2QVbsz9GKo1ZvhKxtaK+fXoHzK0lZa8/e4F9nq8OOCBmAR7jfQnLff+CeL/+QA67Bn88fB6xw3G1mTsH2A9Ih6YC1lNBUwBL0QMMFVhdMrePYqOUpn4i7wfoiiw5NeUI9+4ULfMb0AbUJ0aAKG75aAV+h8YDssU5G4QO/EOea5D0B5yU8N+Uc5uO7U3/YMeKAbwX8hasA6lzpuLsfjnl+BfOuuFUAs1uGRQAFwUQ7eELggMf5guWBCCBwnrhNatk1MDqbqPRCjYVeR6tDM8DAoMMBd//905vNy7KmQVsdTJgvPrDWUdfMgVqWr6lYwI3EYJwFe3V8WN91vmAjYu75xgk1vmb6hebL9+CeX33P+wXdBZXKW/nIVxull6ma3rnlY/0ckpg1rThfmC/48B33qkmca8HfKXx6ZIJ1zrRvTHaNj3lTRZVPrP1m5Yf2ba3gJeQNYotx7IVL10jTvXpHX21cuKyHZweTQyVKNo6ZSJcdVATHjnvZzoT9gkq2dVYeN2omUW60TyK58iKSDRs2qJq2Rx55RD175WULFy6Uq666yu6LHIK25cuX2335CzV+M2fOlHfffVd1+JydQDQ7cuutlKYnnnhCHn/8cbsvxqgXAxj0XRt1QXcL3NybZqlmFP47v0GgsKqafeE5HV9hNXiAgwKy3SRONyNTXTSb7/mao+F5LD1/NBN05V93u1PVOCEK8a6BaG4bL0hOPJPlX0+789c6ueyDzHzzCazdGybN67oHOFnja46JdcIzZypw++OAJOGZNGN9VWc2aw2Qhf0WUvD9FzxfRiMNLMH2Q9lKVihp6FNDrPAxg3XhDf921ow7o3jWxhe4oQBiN39UBTXdOZrf+PnuyKoLvD1tQG1C1ATWROCOdGKtxpkLm4ag5xqcuxyFkeBBWIiCsGuQl03m+RUBG54V0WmvmoxFzp826m642WQtMLg2u5BNAXWNp+9OnQrcVHrZzewDumAlRRQEzdoQNA2zR2UJakllqcqLQV98YCwr0+qgGZ2j1lLVRgbblzl6WY0z3/ia9Wr6uUyddurRhZAyvh88v4YIjLDtqGXy7wO7y1RD1kDQqk3VbiFoMmpq9xg1if7jPnMiZz5mVI1ZFm9kgMv+ylQWcWMd42j22DgxgpcwGfMLl66RpvvOOb4m1BE1sQ0mm8dM0GWbN4ICOuOmRKhjx893M8i92b0P3iRZaxteRIM8m5wxrdqfvvTLtRL3nj171Ibdfvvt0r17d3uo9+B3zK6++mqpXj3y+1clSpRQ2zRjxgx7SMGF5+ty27x582TBggV2n8clms+lWCfornig1fc2qErtu2cEacZdKnXXUN+KdW2aFcGd32GTjQABhWX74+CV6nmkB4wHjoaNw3ND42XWWsl4HitXOGtaEJjYHyOCdUySujdMNppsDpPJN9SVTSt1lJS30CQvcH0MwfaBi8Gf4eG7jOfA+oy7UuomrZVZkUSieE5slds6WGljRImomVLQRFQC80BoOdlvvho6388buOy/PuNkHHpc8mWfcQ9YaxlhGjipmlr7ZwtCHQtSV640ljnsZuMlLBbzjYnurIKZPlYtuONrf7KCI8l4nigsZ40CarfsjzlhFR66BxQ6fM3N/Hel0VRMUNPjqAXxfy/EuUYVXhzfQ+HcOud1NZbZoD3SwH5OLOCnAVCoDVWLGYFQ51fH3XwVVNifI6LSppZ0xTOLAbUMZvOlwC5o80ErrTKyCQrj9kekV0TPJtqcNSa4PtgfI+cLJvSbDJFn/U37VLM13/zVT8wEy/uqeW51/91+zLNt44zgr4FVHgrYJLWe2Qg2rKWjpVvAs4hoguvfkc7nMn35O1Dg803qleq6SZpLfvWND/FcGZrpWlOY33Hj+xkFu+YKhWx/s10c2/axbjcndr+UW/kMzS6NYwb7JCP4ywJVvgh81k/Ny/6MZanj0/HMJ5psqhr/gOPMFuLYC5uuEac7Xo+fw8At28dMkGXrG+2ZuoxaypDHjhYuALfOwRnPQvoCfd1sOuMGSSUpqobkEv1sG179X7FiRXn//fftMd6B5pFTp05VTTrxPN6pU6fsMcH9+9//Vi8vWb16tT2k4MILTvLzN+vyimp/3Q8Pi3YU/UYytOlu1auX9GuMO+wTZD4mTF4thxtaQZh1/lZwV9W+sFvnUfXAsnV4K5gPRpnnRl/TLMfvGtp3fqcFO9jhjwNSGc3BbvD1qrf5qbhmsPRoKjJ5FZrM2bWVeAsf/vZtK+dPXiWPr7I6NcJivkkxJDxbtkAexzIf8L1ZMDNjGrWATbIpizU2+N00KwpQ62hvmqrpimgVowDB1YLHkXYP+N5UOLiHjKgRuD54Rg7bPz7oPnCZD2qC8IZLnTZ6Hr7Js8kKUCpjGf4VsObpW4G+bc8PzAOWjHTMvC9zut+0zPsPtbv465Ivo5IGllDHwoga9n7wLRNvj9xUV/98i30nNOSBZhXAE9E00j7AcQd+gu9SrV7G0L2fFRDpI9yi3nKG8Xh2qZX0wvGvvjM/o983oezMchWK/QIBuw/zmDN2LU4y1jnJHmQJfDOfLwBZjedpMn3XmsYqOIQ91wRAQQcvnjOWiW3GXys9JkrgcgJ+ODY7Qp1fjXM0JFsJqmOlyNiBd+OdsjQn6whWoT0RTSPt9VT7QM0TL4qpJr2NcdZY3/UDm6GCIyu9kGYq71iBZKteGXnK2qasZRPU7FgLstJdb5J68UFvnYex330BKoqHiY68A/7r3ZSJUs3/vcB9eeBwokt+iqTpX2Z6ORnbPEfmWAFjK9XjC2z6oRmyWliylSTOvWyl5+GGGceosY2u+dU+HoNneRwzcwK/YzG3XwU7eEFPRiLLtNUZeV9f6+1Eztg2TZ8nrABhYjXjmNHDDaoJdkZC2+vhzDeZtxM1SXhuUwt6vsJGqJoj33LU/DEuxLEXPl2zku76GLGmrYVpsljOxs2XbB8zzmWHyheBQh07SkDtq1MD6a5+O3OCf3l4BrGhTi+VVr5vRv2V/25QG4PfFtu3b5+89tpr9lDvwPrhuSn8IPjAgQNVLaGbxMRE1eSzbNmy6nfPjh07Zo/JW2j+ePPNN8vBgwdVP36L7ejRozJ+vK+407t3b1VziGAZ8Mr/77//Pld+Ww4vcjly5Ijdl3P4zbxnn31Wli1bZg9xhx9Ex89K3HCDv+ic/3TznCwc6AHUiRJV7IEXO90cJCsPhRNRBFBD93glmY2fBMjp8RsHPH2uyYP9o14OoV+/TR6R0aQw/G6xCr+ZXptPFD9y/4Eky+nTp+Wpp57K9qv1cxvW77HHHpPvvvtOVXuiJu3yyy+XMmXKqEANL1S588471Sv+V65cKQ899FC+BWyAAGzSpEn+n0q45ppr1DANz+nhbZx6/OzZs+Wjjz6yx0YXXkSC5qLR8vrrr6ugzf/ChCAdakW9eAMgJ9ybZvleCuD8kW0iyqk+6icSym5aKaiIC/921nhXwM81aJ7UGKdgBmxeoprRJYZ7zpSoYMiTmrZYglf5o/amS5cuUrt2bTVs8+bN6sepJ0+erH5MmgKhtg3pgr8FGu/UE3mY7wUrGT90bom4OTDlu1w7v/pqcvDcVEBzJsoXvlfhm8+pZaWpJWvaKL4xaKOowI99Jycn58lPABARERERFSR50jyS4l/RokWlZMmSdh8REREREUULgzaKGjzbhpeeEBERERFR9DBoo6gqVaqUCt68/HxbgX/2joiIiIhiCoM2ijoEbaVLl/bs82187o6IiIiIYgmDNsoVaCZZrlw5VfNWuDCzGRERERFRdrE0TbkKwRt+jBwdAriEhAT10hLWdhERERERRYav/CciIiIiIvIw1rQRERERERF5WNiaNr5pj4iIiIiIKP+EDNp0wHb69Gn1F/18FomIiIiIiCjvuAZtOlhLT0+XU6dOSVpampw8eVL1M2gjIiIiIiLKO5meaUPAhg61aydOnJBjx45Jamoqa9mIiIiIiIjyQUDQpgM21KwlJSWpoI2IiIiIiIjyj2tNG5pC4i8RERERERHlL3/QpmvZ8AwbmkMSERERERFR/guoadMvHiEiIiIiIiJvcK1pIyIiIiIiIm/I9Eyb/k02IiIiIiIiyn+ZgrbChTMNIiIiIiIionzCCI2IiIiIiMjDAoI2vuafiIiIiIjIW1jTRkRERERE5GEM2oiIiIiIiDyMQRsREREREZGHMWgjIiIiIiLyMAZtREREREREHsagLYQ2Q6fKijVrZPF7/e0hlBVMv1w2fKqsUenb1x5ARERERPEo6kHbsG/WqIJkQLdiscz/fLQ8eF1Ne6rYkpqaan+Kpr4y6pvFsmKVnUarFsuM9wZKB3tshprS7fGxMnXBioz0nDNWettjMZ9xi+3hZvfNMHu8i7vGyWLn9EGXn3O5k37R1Eh6Dx0XmMZWt2LBOGG4SURERET5Lddq2pK3bpSN69Ftl2RJlMpNO0v/F6fK1OG5ERbkjoVDukmLRo2kfb9x9pBoqieNaqTK9qUzZOq8FbI9JVFqXtJXXnTUmnQYPkaG3dVB6pVKlo2LfNNuPGwGQfWkSqL1J3W/nd52t2m7b3Qo+1fI1MlTZcaijbI/zV7+O9Grtcnd9IuS2n1l7JyP5cmb2ki9CgmSvNtOvx3JIqWqWCFzNHWTYZ/Ml8UrpkqIkJqIiIiIKEAuBW3J8vuEbtKtB7rOcnGLzvLo+yusoQlSr+eTMrqjPVmBNkb692gv3e4eII/2u006j5gn+62hiQ06ZNSidRwtT/asJwmHFspIY9pufxkgE+xJ/HbMtdPb7v45xh4RQtJGefSxR2XA3d2k/UMzfMtvZCw/7tWUga88KB3OSpDUrTPk2ZsaycUd7fS76mJp0aKbDLanjI4qUqNuZUlMsHuJiIiIiCKQR8+0bZepI26TF+YhLKgpLW/qJnL/x+p5pzUzR0sb30RKmxdnqKZp88feaDyzM1AGvjfD35Rwxcyx0re2/QVLm3tHy6Q5i/3N2tAcc+oLvf21JH3f842b+kJfGTvTbgK3aoVMfdmapuNAGWcMm/FG34zaFddnhhpJ7xemyuIV9rKsbsW00WJtkRVkDZSxZpNHaz3G3a++5GK7bN9qf4SlSXICf1OSZZMaYK33XW2sdUmVFZ/0lXHmtKYeVaSc/TFHNqZmWr6vqau1DXfZA8CZJrV7y6jP58tio5nn1BdUarik3zCZimkWj5OBj4yTGcvs7yybIWPvNeu0HGnsbLoZapmhxjn1eFK6n29FUMkL5ZX7rEB4lT3cRc3rkE8y8tiKBVNl1G3+HGY3UcWwUTJ1QcayJw2y11o1SR0obVArKvXkRjUfX42bzp8z3htrp4md5m37yuiAbVkhiyePkt5G3iciIiKi+JenLyL5YvEGSbb+Vq5jhWlvzpU1KVZPDauA3laNtrSRG5uhILxdFr7/hW+QJbFFb+ldc7/Mm7FQtlszSKjRQR58LuNpo0btW0rN0xtl3uSpMvX7FbJfEqVej4EyyhEw1ex6vzTePc8qGG+X1CIJUu/qf8mk4X2lScoimTpvoyRbw2p2fDDT9zK0kWGTP5Yne9STxJPbZcU8a3nz1qjvVZEbZezQvtKhrsg+NHmcPEMW7hGpYsYiQaBZ4qjXLlcB2sYFE2ShGtpGWtZECX+fJNWwAhgjEJw0pFtGYFmhuKiKm7o3Zr9g3/RGeXKkb/lrZo60lx8J1FQNlG5NEyV1zTzV1HLemlQpV62KPT6IUi2ltxXw7J9npdFWNEOsKR0eGGU/P1bTCmLeV2ksW+15WlFkRtPNUMvM2vrUbFdXKlt/9y/9InhQDB2HyRgrn7SpfERWfO/LY8ml6km3x8bIMH/ehZrS+ZHLRX6zlrtqv5XHEqVRnydlFKZZP0+mTJ4nG5HnrRy6AnnVyiPL0WureUlL2f52T2nU6GLp+741oH4HaVnnhGz8yTftin3WsVC/mww08j4RERERxb88Ddokzf6rjJGJS301b41usuva2vaWFgg2/pgnryzwDVL2z5MBV90mAx7qK51fX6gCv4Q6LX21W5YZQ26Ti63x/R57VB596DZ5dA6e57ICsGaOGpb1E+W2PgNkQJ/OMu5XPBeWKInJU2VAj37yaL9u8uYiNefM39Puf1C61bdCJDRX7NVZbutnLa9fT2l/VT8ZJy2lBiKAlO0y48UB8uhjA6Rv157Sf6zvq67smijUInWrL7LirQHSbYgOmRpJYln8tQKaruVkrxUI4tmz5KJWIHDbsIzA8tAO2bhqocxAkLgKz6Yl+Ar2rw0LqMF0pQO9z4dJ7wuKy/Y5Y2TkhAiehfPrII2qIWRMluXvPauaWva7qb3cNmSGb3QwRfbJvEes9HsIafSmLESyW4Fbyx7W37YPSu9LrGD1jwnSE/sF8+zxkaywgp3EFl3kwZDLzNr6dK7mq6M8cmiq+htM/3u7Sb2E/TJvKNbZyGMJ9eQSnXdta97vKd2sfNHvpttkqqqyrCn1UNm2YJw8+9hC2Xcaw47IRuTVx16RjFsTIqm/fiR931xj91nmPCm3XWznMys/3TZonqicbeR9IiIiIop/eRu0lSshxfH3ZJLq/eL9haoQWrNZbxVgtLmpkVXEtQq+S8ep4Vry9uUyz/4s7++QvfibUFz89SfNbpTR46fKjAUrZMWKNTLual89VEKpwBqW7etG+uebdOKk+rt99Rf+mqVxO9ScM31P69aspqrV2r5orEvNzBiZsQy1Ro2k7ycrZPE342RYn8TAJpBOy1AjN1XmLdso25MTpcXfxsrizwc6gi0EC77n2fDs2YDvVbFdGl3+oG/05MFy2019ZQCCxJu6SfseY1SAk1D/EqMGMwj/i0jWyEYrfkYt47hPxgU0PQ1tgkxdsF1SpbJ0fnGGLJ4zSUYPsMKJrebec5G8XZbPsT9b4e6OffibIMUrWH+u9uUBOb+3zEBAqbr+0qKUNaxUorXPQy0za+uzL8X3QpeEUqHC295ySV3s9crSYbhen4w8Vq5CI/XXZ7tsHK2XZX3eh2hUpLhqEhne9o2v2J+0FnLjqx/L1JmLZcWyFbLmnc6+tDHzPhERERHFvTwM2mrKg20bqaBnzVL7NRoLXpF5f1h/VRPJNtIbTSNTVsj04WEK/aa2aLrWXzo3LSfJv82QGZ+/Io+qwCYyqSmRNwasUgprbznpNv/t8kqfntL3RSsI/POkJNZtIzcOsgrcod6WOclaV9QG9ekmnS/uJzN2iyQ27S59UeMkayRZxbZHZN8k/PVZ+BvexmmV2xODFNu3viIbrflY4YQk1ldDgvO/iKSndGvfTb5AzVAFaz/83ReQROIL1JgNsgLWVfuleJVG0vn+UTLpPeO5wKwq4vuT/Os4tW6B3Uj5yBoXaplZWZ+pfyDAs3Jmq75yo2+QC2ufF8Xf7TIj0/o8KoPeDFOrmG1tZNhrw6T/VY2k3KHlMmPmF/LKYzP8Nx2IiIiIqODIo6DNCspeHSd9L7AKwIcWyhR/ULZdnl2E5mA1pdG9/aRlDTxfNFEieO9hhutaSD1rtskr3pWeaEY2fIxUqRCVV3NkMs4q5EPNi9x+z6yRNGq6XRa+M1j6XnexdB66UPZbBf56HW7PYlO2BCmumkUulLmo/pJ60nhQRsjRoUVNQcVN8u7Vqr9mbUc40nGUXFIHH/bKDn9tViRqSoIKTizFffP01RQlSs0WGTVRfWtUtT+Btd+a1pQ1VvA54Kb20uLWCbLxtPWNVt2z/wbKRTt8b7Gs20iqrMCzXGY3zwplQy0zi+szeqIswsIqd5DHPhko3VxrGMfJmh34a827XZJjfVBLmVthVDdpgaa4ycvl3ZvQTPRZGVMhMTovnSEiIiKimJJLQVuiNOmtC7YzZPGKSfLkVVZQkLxGJgzqaxWDDSOmq+Z8Ndu2kcpWcX31NPMpnwgk+5o54mUl414YJaPHz5D7W6hGmNE34iNRL8Cs0VnGLp4q4162lvfeVJmPt1nK7TJq/HyZNHaUjLLW48nbmljbI5K6e6O4PTHV9535snjmJDWPUWM/lqnzR0vns6wRW+fKuPG+ab54fy5e6iiN+kySGUjLb+bLaDTLS90o09/x1VZ2HvqxrJgzVT62ljvW2vbFr3aTmkWsZFn0hYwJ1TQTytZT6+pb/hhf0GLNe9HnvtrHGevtINUKBLFdYz+fLw/ieTO/zjLwzUky9b3Raj6jH++ili37tosvpMyGyeNk7nproxPbyMCJvjQe9cJY+XjmYpk0FBOEWmZW1+cL6TfkC5XGiRf0lVHfrrD2iZ1v5yyWFfbvqY38yvccZc0eo2X+52N98/bv96zQtaf1pMvksTL683Ehfq8tSU7i+bfEltL7HSsNXv5YZvRr6WteTEREREQFSq7VtCXWrif16qOrKcVTtsuKmWPk0V495dlMtT/6hSSWrQtlnNEUMCIj/ivjlu2X1KI1pU2PbtLhrE3y5rTcqv2wCvm3PytTV+1Xbw9sc3U36dzKCkb3b7SK49tlx6EEadTB9ztfeIvk/lVTZeS/R9rfDbQPD3JVbqTm0a1DC6mXeFI2zhsnj973aMbzewsGS/9BE2TF7uJSE2lZt7Kc3L3CCnz7y2D7RS379hyRkxXqSQtruR0uqimJKftlzeRn5a67A58LdFW5he83ybD8Clagt2mejDPmvX24lbaLtltpW1lt1yUVNsiEmRt9I5V9ssPadTVbdVbz6dwiUU5iHkMHuAaqkVkog/8xWCZY+1SncbceHaRRqb2yUS061DKzsT5zBku3PvY+xUtcatj5tkJxObljjahFvt9X7ho9QzYespKsaQd73lVFrIDceG1IBBbKyI/nyXa8VKV+B+lct4QVmgUzUv773grZn5ogNdtiH1WWTe+weSQRERFRQVSoXbt2Z/AhPT1d0tLSJDnZ9/KEvHTj2PkyzCqUrhnfWXpm5Xk2IiIiIiKiOJe3b4901Ve6tawskrpGFn7IgI2IiIiIiMiUj0HbQBk9fpxMmv+gtEkU2T7tvzIy3DNYREREREREBUw+Bm1lpe5FbaRRBStgmzNS+j7mf5KLiIiIiIiIbJ54po2IiIiIiIjceeCZNiIiIiIiIgqGQRsREREREZGHMWgjIiIiIiLyMAZtREREREREHsagjYiIiIiIyMMYtBEREREREXkYgzYiIiIiIiIPY9BGRERERETkYQzaiIiIiIiIPIxBGxERERERkYcxaCMiIiIiIvIwBm1EREREREQexqCNiIiIiIjIwxi0EREREREReRiDNiIiIiIiIg8r1K5duzP4kJ6eLmlpabJ48WI1goiIiIiIiPIfa9qIiIiIiIg8jEEbERERERGRhzFoIyIiIiIi8jAGbURERERERB7GoI2IiIiIiMjDGLQRERERERF5GIM2IiIiIiIiD2PQRkRERERE5GEM2oiIiIiIiDyMQRsREREREZGHMWgjIiIiIiLyMAZtREREREREHsagjYiIiIiIyMMYtBEREREREXkYgzYiIiIiIiIPY9BGRERERETkYQzaiIhywSeTvrM/EREREeUMgzYiIiIiIiIPY9BGRERERETkYQzaiIiIiIiIPIxBGxERERERkYcxaCMiIiIiIvKwmAzaFi1aJHXr1pWePXvKoUOH7KE+6H/rrbekR48e0qBBAzVdy5Yt5Z///Kds27bNnkrk888/V+Pcuvbt28uGDRv8ywnXOdcjKSlJ7rzzTjWuW7dusnv3bntMIHwH38V0nTp1ko0bN9pjAoXa3mCSk5Olf//+ctttt8nevXvtoZGlz/Hjx+Vf//qXGod00szh+A7Wyw3SDmmo09HN9u3bZdSoUdK5c2c1P3SXXHKJ3HPPPfLVV1/JyZMn7SkDRZq2wfbdtddeq7Y/WDpiuT/88IPcf//9ahvxHfxF/08//SSnT5+2p8wQbFnYnkGDBsnWrVvtKX3M/e7WjRw5Us6cOSPvv/++WvaCBQvsb4an8zX2E/aXm0j2L7rHHnss6H6APXv2yPXXX++f3swPzjzrnHeoTq9TJMcoBEtPpN2tt94qb775pspvRERERLEqrmra1q9fL7169ZIRI0bIqlWrJC0tTQ0/cuSIfPPNN7Jz507Vn9tQmFy+fLn6vHr1almyZIn6HMrmzZtl3LhxIQvJkUKB/6OPPlJBBoKNqlWrquHRTB9854033pDDhw/bQyKD7Rs7dqxceeWVqjBtBqr79u1TAdMHH3wgx44ds4cGyk7amv744w+1/SjMIz1Mu3btkvvuu08FjtOmTVPbCPiL/jvuuEMefPBBOXDggBrulJCQIE2aNJELLrhAqlSporbn448/lttvv11+//13e6rIFCpUSAUiCPyef/55tW55bd68ebJp0ya7L7PFixfLb7/9Zvd5D/Yb1hE3B5Df8PfEiRP2WCIiIqLYETdBW0pKirz00ksq+OnYsaPMnj1bBQQodCJAeeGFF1Sh2gk1TihQYzrdzZ8/X8477zxVYDaHowAOLVq0kGXLlvmHT5o0SSpUqKDGIWCaNWuWCjpuvvlmNezHH3+MKBj77LPPVKCVU2vXrlW1NKgFadOmjRqW3fQJBen09ddfq22OBGqpEOhhWXDvvffKnDlzVCCG9cB+mDhxolx22WUqaHHKTtqa+wrb++WXX6rACgEb0lvXnCEQe+SRR9Q2IeDCOq5YsUJ9Z+nSpfLss8+q4d9++60KopCeTo0aNVIBJ5aBmiak8UUXXSQ7duxQQfSpU6fsKTMgT+l8pLuBAweqcYmJiapWccuWLSqPRZrO0VC6dGlVk4b0dlsuth9pUalSJTn33HPtocGVLFlS/vvf//q3Efsaxx4grc3tv+mmm9RwLdQx6mSmJ/Yx1h9BM+AmwZgxY1xrS+PRN9Pnyl/uGJDtDt8nIiIib4iboA2Fbl1rg2DgnHPO8Rf8S5UqpQqCKMDnNjRFRCCBAuVf/vIXady4cdgaC+jdu7f6i6AGheXs0oHN0aNHVU1N8eLF1fBopw/mXa1aNXn77bcz1VgFg9oqbF+5cuXk9ddflyeeeELq1KkjhQv7siEK9hdeeKE8/PDDUr58eTXMlN201bC9qAVDIAQI5tDcEmmGpng///yz1KhRQ9V4Ij3Kli2rvlOxYkVV8H/55ZfVuk+ePFnVCIaDNL7xxhvVZ6RRsNrDULBPEMQiaDOb9+Y2NCPF/kXTTF3jaFq3bp3aF61bt1b7zYuKFCmiAspnnnlGnn76aTUMNzNWrlypPse767pcLl9+ODrbHb5PRERE3hA3QRtqBlDIBjSBS09PV5/z2i+//KKajLVq1UqaNm0qzZs3V0EYamtC6dKli6o9QiCB2prs1gbg+R7UXmG5eK5Hi3b6oBbyrrvuUrVICMDcap5MGD9lyhTVJBMBKpqrudWmhZLdtHWqXbu2/ckHaTZz5kz1Gc0mUWPmBtt8ww03qG2YPn160GfGTHoaBKfZCW4QUCOtUEOa1SaWOdGsWTPp0KGDan7666+/2kN9EOSiRjg1NVUFd/rGgFfhpgDW89JLL1UBKIJzIiIiolgSN0EbmideddVV6jOeWXrqqafy/OUDaKana2BQQESghBcmAAr5qNUJBk0T//a3v0n9+vVlwoQJWQ5ENLz0As0jEdSgVkjLjfRBgIPt++677+T777+3h7pDcIcaDqQJXj6CWpCsyEnamhBw6OAHzR0RcOB5sT///FM19bviiiuCBpNY54svvlh9RhAVKlDFchBkjh8/XooWLaoCr6w2P9VQo4h1Q3NNzDcvYF2vvvpqFaCiGaTZBBU1nkhz1LJh3WIBam5RywqoJYwk4CYiIiLyirgJ2lDQxgsk8MY7wDNEKCg/8MADmd7eZ0JTNzzjZL51LtSb90LBctCcDE2ydAER80Y/Xp4R7E2KGmqA+vXrp5rRjR49WjVpzCoEIPg+mhCawUd20ycUFITxfQRQqG3TzS/dHDx4UK0bvlOmTBl7aOY3FurOfBMh5DRtQdf2vfrqq6ofQSzWHU1JkdYlSpQIG1ihqSRge1BDZ1qzZo1qeolnCdHMEy99wbyfe+456dq1qz1VILzdM9y2I2BDU0WkX14GGwjIUOOGdDfziH4ByTXXXON/ljM3ResYRV4pSPhMGxERUfyIm6ANUGuC2qqpU6eqWgJADRAK0XhhRm43mVy4cKGqUUJBF7U4gL/oRyAV7KUOJhSE0QQPTbjwnFVWa1YQJEDlypXVX1NupA+aKvbt2zeqb790k920Re0UXgaCgj5qH1HYRxO5u+++W6677jp7quhAc0HU4iGgwTLq1aunnqFC8JbVmkUTAknsO9SMYhl5BW8dRbNdpDvSH/QLSBAAoflkLNHHRkHBZ9qIiIjiR1wFbYAaJfz+GGp+0IQLhU4UoB999FGZOzfznWO3N9PhLXdZff4IzfOwPGjXrp3/+/iLfsCLG8zfTHOD6fHaeRSKUeDP7nNMeBbKTVbTJxwEI2gmiee9Pgvx9ksEHqjVwivXzcAD26vfKoht1W8UNOUkbbFc1NKgdg4dXjDy6aefyuDBg/1pFGzd3KCGDRAwogbMpN9UiZ8iQPNTNLn8+9//HvJFLW5vj0RaegHyCn4/ELV8aAKLn3fQLyDBOp599tn2lLkrGsconhHVtYWoHfT6c3hEREREprgL2jQUOPH2PrzxDzUdeDYHv0WWWzUV5u+HoQmi2ZRLN0lEDQwK9OGgaSOaSeIlG6+99lrEz2uZwr0YJJrpgxoZ/B4cgh/8rABqZpxQwEdaoBmiTqdI5SRtzdfwo8Pr5fEsln5jJZjrhmcJg9VuouCvnzU8//zzA5p5mtDMsk+fPup33VADid+lC7c/vArpgho1vJAEzT/1C0jQ3LNYsWL2VN6HgF7vOzRdzUnNJxEREVFei9ugTcPdeP02QAQmudFEEoV8NM9DMz3UwOhaHbPTTfrQHDFcE0IEVN26dZPu3burGiY0R4v02SEdSOzfv1/9DSda6YMaLzzPhRqRTz75RL18w4TADk0/Ac0oI/2ZgGinrRvdDBAQ4AV7Pg7PmuHV+9i2cEELggK8XRMvlon0JwKCwT5BwIjtzOsaIixPv5AEaYM0RtCLdI8VqEF95513VN7ES2zatm1rj4lvfKaNiIgofsRN0IYaDTT5Q5M0HXigwI83KaLQDLlV6NW/Hwb4gWZdq2N2aI4HuNu/e/du9TkUNN1DM0k0TcPzZs6XXgSDWiM09UPgYdYY5Xb6IEhB7RKaIuL32LAcEwJR/LYbmtVhXfBSFAQAugYKQQnW2flSlNxIWyesG5pNuq0b0ghNIvHiFjR1RFNSPHOo3yIZSq1atdTPGyDgwQ8740Ui2YFt2rlzp1SvXl3V4uU1/UIS7FcEPgi+3X5Hz2vwY+Z4Fg+11u+++676DT480+hs1hqv+EwbERFR/IiboA2FftTwdOzYUTUvRLMuvAgCBUz8zhRqBhBUOJtFub2ZDh1eAhIp/ftheA4t2PNI+vXoCArwg9CRwHr179/f7osM3kDZsGFD1ZQtOTnZHpr99MkKBIz4YWxnLZuGGq2RI0eq2g40ocSbJ/FyEKwLaqTwQhS8OATf1+uRW2nrhHUbPny4mpe5bkgjvGzlySefVAEbmpIOGTIkouepEAzi98EQ4CHYwfNr2A8mt7dHIrg1g3Q0+0TTTWxjpPsnWL52vpkyEmZNJG4iID3yUlaOUTM9cRwgaJ4/f77arwic8ZeIiIgo1sRN0FazZk0VMOB3tnRzOTxjhULaM888o2pK8APH0YbmeLrpG16hj7v5brBOCFYAzwVF8owTCv0IZPTvkUUCv83WsmXLTK/Bz6v0QTNJ/Eh4MKh9QvNI1HygiaH+LTmsC17k8eCDD6ofusYbH3Mzbd2goI+Xv7zyyisqzbFOgPmjuSpeYILfuAv2LJsbfBfNRhGIfvjhh+q36rIC2zJ79uyQQWtuQz7ULyTp0KGDSqdYgLyGGlSkOzoE4URERESxqJBVyFZt6NBkDs248BtMFNtWrVqlmlaioI1aIb4pL3ahphHPxuFnFRDQ5qQmlPLWJ5O+k1t7+p7jJCIiIsqJuH8RSUGEF4ugmRiehdO/r0WxB7VsqPnDs2w5/a03IiIiIopdDNriEAr3aJKHV5vjOZ5wvw1H3oMXoOCZLTyjh998w7OKRERERFQwsXkkERERERGRh7GmjYiIiIiIyMMYtBEREREREXkYgzYiIiIiIiIPY9BGRERERETkYQzaiIiIiIiIPIxBGxERERERkYcxaCMiIiIiIvIwBm1EREREREQexqCNiIiIiIjIwwq1a9fuDD6kp6dLWlqafPvNd2oEERERERER5b9MQdvcefPVCCIiIiIiIsp/bB5JRERERETkYQzaiIiIiIiIPIxBGxERERERkYcxaCMiIiIiIvIwBm1EREREREQexqCNiIiIiIjIwxi0EREREREReRiDNop7X3872/5ERERERBR7GLQRERERERF5GIM2IiIiIiIiDyvUrl27M/iQnp4uaWlpMnfefDWCKF6geeT1115p91FBsPdYivT7ZrqMva6LVC1dyh5KTsmpJ2XRjl1y8vRp1V+8SBG5pMbZkphQXPUTEVH09f92hnzw22q7L8OdzRrLmGs7231EgRi0UdzzctC26+gx+b+FS+Tz3/+QfSnHpUqpknJTk/Pl321ay9llSttTUVYxaIvM/35ZKSv27JXrzqur+r/ZsElaVKsq913YXPUTeV2pF16xP0Uu5bEH7U9E+QP51i0fBhtO8SfYuev9HlfLTY0a2n2BGLRR3PNq0DZr81b55/cz5e+tWsodzRtL2YQESUpNlc9+XyuvLvlFXupypXQ6t7Y9NWUFgzZ3J6xz/M/bd8rxU2mqH0EamEEb6P6SxYrKpTWrS4miRVU/BcfgIX8w3SkWMWgjt32NYZVLlpRJN/WQVmefZQ/NwGfaiPLBugOHZMgPP8rHPbvJ31u3VAEb4O9fL2wuH9xwrRqP6Yii6Uhqqjw7/2c5bP1FcKYDNND9GIdpMC0RERHlPgRxWwf8zTVgg5gL2o4fPy4DH31UdfhsmjRpktx26y1y+PBhOXPmjEyZMkWGDHlSjiYn21PkH6xb56s6ycaNG+0h3rUtKVkuGPue1Prvm/Lbnn32UJ83liwPGD5g2ixp+db7qmaDImNlTXn/11WqCdoF1araQwNhOMZjOkwfjj4umjRupLq8zmt6+UuWLLGHxK6XX3rJNf1wXunfv19MHMPBoMasbc0aclaZ0nLVuXXk2vp1XTuMwzSYNlQtG9JK5znduZ2bg4mnfBNtbmkbLJ2ceRPfRRcpzNdtv2F+t95yi+fzPAo6unP2O7twQuVJpCmu5eCVtMmN85JOg6zkoXCc6YV0jOb8Y83dFzRRtSrODsMjhTzqPEeESlMzzbOafzEd8hnym8mZ/7CMrFwDckuwc5oX6X2vmfnB7D5fszZ+a9rQ3HPbtq2yfds2OXnqlD2UIrF01y71t2LJkjJ98xb1maInOTVVthxOkstq1bSHuMN4TIfpQ8FJ856+d8tNN98sv69eo7oxY9+SEye8f7Lyqrr16snkr7+2++LXhoOHXbuseHbYcH++Q3f22WdLj+7dIi4MZIVZaPYiZ3AQql8PC8WZtq1bt7bHhPbQww+rDnJSqK9nHQeffPqp+htKLBXAI0n3SESaNrFo1apV6u8uqywQrpAOwQr0pminVyTL9LI3rr4q4DygP2N4Vlx3XTdZuuwX/zlCH/fhOPdHtI7hnj17yshRo6SkVX6kyJj5QNPDzHH/njE3foO2IkWKyAMP/F3eHfeeVKxY0R5K4eCZl89WrZMeDc6T25o2kmkbNkvSCTaRiqYTp09LStopKRvmDX0Yj+kwfSgHDhyQcuXLS/369e0hvhNykyZN7T7KqosuukgWL14UtGYjXkzfuNm1ywkUGu63zr0FIejNrnUHD8mgOT9K4sjR8vW6DfZQyg36LrX24W9rZPL66N9QiCc/zp+vbgLiBszs2bPtoUSUG8zatFCm394rvp9pw10D3VwS8PeFESPk0jZtVPd/L74oKSm+Zn24y4AmUZ98/LFcc3VX9d09e/bIU08NUdOi2hm1GZs3+wo0mBfm/fTTT6l5Xt21i7rzg/m9/fb/5PIO7dV3Hn7ooYDmmdu2bpW//e0+Ne6BB+6Xffv2qe88OGCAPDl4kJw8eVJNh7/oR/fzggVq3fKiAPnnkST5de9e6XreuXJZ7Zqyct9+1WUHXmyDZqrhYBpMW1CUKFJEShUtJkmpvn0dDMZjOkwfSqVKleSIlR/Xr19vD8kM+Vs3nzCPCTDHodP5DNPgTub4Dz9Uw/VdON10Rk+PzydOnFDjDh48oOaP4bndRBNNctE0t9TzL2fqzhk9VqZZwQf+uo0P16S3cuUq8vC/H5GX/u/FgLRyMpun6O11a16FtDPvYsZSzUR2XHDBBbJ23Vp/2unzpU4rbH8wodIU51acE8285TZ9fnFefN36IfVUmszaslVOW+e+ft/OVMOywnkMfvbZp/YYH52/kBY39bpR5s+bp2o/8Z2sNBfS5wCdpviLNNbLRdpjOdgn2Dd6mBfp/fDAdzPk9i+/sYdmnzNtINh5FmmCtB869Bl/Gjn3Ybjp9XA9vTkcNmxY7983el5u5yI9LNgxiO+hhg03AS9r314W/vyzP8+45acff/xRfcawdm0vVflBLwPXDqwTPmOezvQCM83McyI+m+topje2x7lMcKapOT+3vJtfdF7UXbBhOWXmF+SJ/fszHncx0xPpFK1jGN/FPtB5JtQ+wf5FHsd4fe7GepnXCnNebtMD5qmnN48j+GLiRP84vWx8D9tuTodh+dXc2VmjpjnzwoVvfxi7Qds330yVVhdd6N8Z6JDpgkFgNPKFEfLbbyvlQ+tE8uprr8ns2bNkwoSP/IHFzp07ZcWK5fL5xC/U3WIEbY0bNZbJU6bI+x98qPrffOMNfwaCad9Pk8suu0y+s/5Wr15dnhs+TD795BN57PHH5ftp06Vt27ZyOt1XU7LXCobee2+c/OMf/1TVx8t/WS5ffjlJSpUqJZdeeqn88ssvahmwbds2lfm7dr1aihYrpoblhanrN0r5hBJyfqWK0qRKJalfoYJ8t35TRM9VmZCm31n7aNnSJSEDN4zDNJg21HTxJDEhQc4pXzZsjcaP27ar6TB9KOXLl5dhw5+TJ/7zeKYTFuBEhwuvbkJx0823yLh331XjkJdTjh3zj0NzrM8/+8yfxxEM4saCbnaB4U8NGSJtrPyqm2N0sk6e2nvjxsmbY8aq4ddee52MHTMm4HiJJrwVcvnf7pKU/zyUqdsyoJ90rXeu+us2Ht8L91ZJNEW7+OJL/GnlhOMTQd1PC35W2/vc8yPU9gLSB3erAfsDtXbo9L75c8sWVSCKV7iRAKgFxjbfb10gEQQjnZBe06dPc704hkpTnDP/+tf7VB6dMXOWqk0ONn1u5blwnBdft/4Hp8+RET8vkYV9e0vzqlXk3guC14jjmqavb2ZB3HkMHjt6TDZuyFxjhzTC9ax9hw7WdWxqjpotYblIW6Sx3o/YzzgvYJ9g32B4pE048wsC5SsjeCvv3XfdGVC+QIdCbTChzrOAMss111zrTyOUN3DuRD++U6tW7YBaLef0zryO/VmqlG9f4jw9yzomMEzPC8vGvjbPRYDlJiUnyZVXur9RGTf/UMOG6woCN0yL74BbfkL5B58xDOtmNs9buXJlyHyn01OnAQI7M1ALBunhXKbzuNDzQ7oFy7v5yTw3OLuscJaFsb3gzC8oI+Da7ibSYxjnGATJ5jGBfrdzD4TaJxoC7379+/vP6ch/5rUCjznp5rrgnF4HYpgeHVrYaUibUqVLq+HIL99++41aNsrqZRPLBtzo/vXXX+WSSy5R88xrwYJ1Mz/ozzEbtCFx33xzjLz9zrv+rm/fe+yxmf3xxx8yZ84P8sijA+U860TUqlUruf6GG+SHOXMkKemImqa0tXN7395HypQpo/qbN28ut9x6q1SpUkVNf9VVnVUGSjWeMerStYtcbK1LoUKFVAaYPn26/Oc/T6gCa61ataTXTTdJuXLl7alF/m4FbJjvFVd0lFatW8mG9RtUxm5nnfgAQSUgAyFjNWveTB1AyKDBDqRowevmZ236Uy6ueZZUsk6wCN461K4p31vBxV67RjJSSI9ru3WX7VZ6BQvcdMCGaTAtvlMQYDPvsgpqH61aI7/u2WsPDYTh+A0tTBdJsuBEgzyCk53zziMKEmjqoi+auFjjxIkCIIb1ueMO/zjUkOAirfM4ml32uP569Rn0yfOaa65RfwE3FkqUKKE+Y/m42AO+Z84rFvW95x5VY+QWYPiaEN3i396mTZtKmcQyqoCDdEw+mqzSH4ELgr9GjRv7gxikv9mcNZ7hvIhCJNIHkF5dunRV5zinUGnqJqvT5ydccIfM/Un+t3ylfLl2vdz+1bfyv2s7y/COvnO/G/OZto8/+VRtp1uhG/m03nnn2X25CzcUAetSt27Gm0djydw/t4dtlvre+x/40153KNS6CXeeBTx7pI8BwDkb507Ad1Cwxc0czZwe80eB2zy/4vu6CTzO0yjIYj7osB5YNr6H9TDPYTjuGjZo6J+PSS9H31DCNJjW7ViNhJkebpCeeAYK9HqbNXtZ4Twu9PzMgDUe8q6T85k2XU50nhuRX9BsPSdwjtFBoO7QH+zcE8k+QVnZDJSw/nobsO64dur9Bub0yNPI2zj/aQjk9TYjbXRZBd/BdzEvvR7I68hr6JDv8utGqg7I0JnMYE53MRu0oflS64svVjVUusPLA4LZYp0MEZzd3vs2/x2CV/77Xzl9+rQVPPimKVeunArcNBSw3n33HdUssmuXzq532cpbAVkxuyYMy8A86pxzjup3qlq1qv/5usKFC0vJEhknMwRol19+hWoKeeTIYZWBLmnTRsqWLWdPkftW7t0vC3fskreW/SqlR7ysupcXLZV1Bw/Koh1ZLwThucLu1//FNXAzAzZMg2kLkuSTqXLAOlH0+GSSvL5kuQqYAX/Rf9ukqTL0isukQaUKanikcLIz71giYMKNBvOuMYK65ct/UfkbcOdJj0OTE9y1DQYnPNyFDXUhjic4+SPAcNbe4DPS2KwJwd1O1LIftI4X3MXFBQsdCjy4GDRt2kx9Nu9kxyudt5AOyDPOu8FIN7OACuHS1Cmr0+cF8+Jq9sNTcxfIiwuXqs9QrUwpaVatit0XOWwb7hInhKmBjzYc888MHaquTUhrs5mTF5lpD7pQhHtgJ63r/m1ffiM1XhnrG5lDkZxn3ZjNupCPg8H8UfjNzvP5OM/owAvHzKpVvwXciDPhfIV1NrcD5Z7PP/vUH3zmJmwfbrpkB44L3VxSrzu2A+cIyO+82//bGQF5Un/GcAg3Piv0uREVB/kp1D7BOrrBcLM5Zaja7ZycC81aZHTId+ZNFS8wgzndxfUzbaZzrEAKJwS8mAR3BnQ3ZuxYKzAqa0+VAc0phz7zjHUCWy5DnnpaJn7xhdx771/tse5q1qwphw4dkl1WBsgqBC1dunaVNWv+kMWLF8u69euk4xUd86z2CfEUmkGiydi7Pa6Wib2uVx0+10hMlCnrNkhaero9deTcAreCHrAt27Vb/v7tLPnoL9fJwnvvkM1HjkizMePUs1b4i/5Zd9yS7R/WRuFK37XFyQw1PGgaYN4dM5uX4W6TvlOH6XDXNhhcBEKdcOORvlM3Zcpk9ReQxgi83O7GI3DWBSXchMF+wAUCtW8oMK3944+gN3biBV5CgmAX6YA8o5vdmJ3ZjArCpalTVqfPC+bF1ewf+fMSGbUwo0nQ420vlpeuusLuyxpcx1DYMGuwVQ3uodwvVCPN0dQNaQxeD9zc5EYj/HDnWTdIO5wH9LSoVQ0G80fhNLs3I/SzaZs2+WrbcJPYDQI71EaY24BrA2rKzaZkuQXbdzT5qN2XNTgu0DLKrHVCp5tm5nfe/eC31QHnB91heCTjs0KfG80aKnDeKMtt4faJE8oVaE6JWjA9bbDabXA7F0bKvJmBDjdV3dYpt+ngXHcm5zh0BSpoQ8EJz5Tt3LlD/STAL8uWWd0vqtbL6dSpk9aFcL8ULlRYihYtKit/XSmzZoV+YLxevbpy4YUXyvDhw1TbWRwwEz//XNWcRQLfr1ChvLw6erQ0syL+c849Vw1HwRoPXZrtgKMNtT5ztmyTK8+pLb0aNfT/XtMtjRvJ1eedq5qT4PXz2WEGbkuXLFJdQQ/YXr+2k1x09llydpnS8qJVePvzwf7qWSv8RT+GRwpNBKZN+97u8534cIFGgQAnIZyMgj3n46w5w8krVE0bjiHcUf7uu+/sIaKWrV9EEo+QNmh6hODWbLuPghCeGQh2Bxrjp06dKqWtfYkLhC4ozf9xvgrg4pG+S4rAXge7yDORvokzXJo6ZXX6/PLT9h32J5En27eRIe0vVRfg7EDtJY5R8/knBMm4XuUmpPFH48fbfeKpGw9moUb3o8D70Q3XSnH7GmOOxzCM2/FgP9WfU+HOs06YxqwJ0efsYDB/3Igz8zrO+7//nvGsTyi62fCzQ59Vz8np871JrwOOKZNettmkLVpQTtLNNrFd2D4U2LFM5C+sj05PPKMX7NkpwPkVAZ95bdK8nHdzC7bRrCFFOiO981KofeLGWaOMdce1IxjMHzczzGdHUbOntzkc1Dij/IJnrM3m5nnFGaCjM7mNLzBBGzIBHsQsU7qM9Ln9dul4xeUyfvyHUqWqe/MUNEvEsz6qKUH3buolIThxhYJn17CMS9u2VSfH63t0l5Urf7WCvsheJJJoZb5Ona5SBxfmUbx46FfCR9MCq1Cxev9+FaAVNYJYVPRdd15d2XX0qHoxRnbpwA1NSNExYHP/tfvsQCEOLwDRzQnQRAx5VT8rgL8IzMzmafouI05UOCnq4cjvoWraEHzgRSO4GOjvrP59tf+ZtniFu+XO5wFQm4NnBsymH+abrhCs4Php2fJC1Y+CSGKZRClnnVuC3enOaw+0bunaZYWzeSIKXeadVOQZ/aIcPZ355i9TuDTFRfbNN173fz/c9HlNBwY6OHh/5e9S6f9el69vukE6162jatf+0/YS//hwzLRFhybPbsdg4yaNgz5XgulR66nf9hcsbZxNWJ3TorYHN3X0eBSo+99/vxpnnkdy8+aiG7eCDTr4S8P6cnmdzL+HiWEYF02hzrNOODZwnOhmiNg34ZoFYv5mXu/f72/WeTeymgEsD0Elzkc4L7nB88q4Iec2HjeZFi1apI45t/yE8yNqLbBuWanBwvNHCHSxPfgutk/XkuubPjo9nXncuUxs4xODBgUcF+iQH0Pl3VgX7Lh15hek81133W1/K7PcOIZD7RM3Zt7CdHiBFWp5g8H80ewVN0D0vKdMmaL2dyRwHcb1GPkIy44Fhdq1a6daC6DmCa9dnzsv+ndTKDJoNjjho4/k66+/ltdef109Axdv9HNtefnSka+/nS3XX5v3d1FMuRWwkTu8zr/fN9Nl7HVdwr4lsqA5dOKE3DP5e3nisjZSp1zmpuGAmzTPzv9Z/tetq1SI84A8Nw3/aaEM/3GRlCleXPY+FB+FxFiD38KDf7RqqZpGvr50uepPHjhA/S0oEPCjeZyzWTLljQe+nynv/fq73Zfh7guaqB/UDjeeog/BrW6OmV9N6t2EuqnHoM0jkpOTZOHChTLyhRdUG+B77/1rngY28Sy/gzYGbOQ1S608+cXqdZJ2Jvhzqjc0rC/tatWw+yg7yr/4mvynbWvpdl49aVK1sj2U8hLe1Hn0ZJrc0ayR6n9v5e9SLqF41GvavAw1ZIOeeEKGP/ecqqEiooyf6UBtHWrtYgGDNg/Q0f78+fPl3r/eK3363BH3zc3yUn4GbQeOn5C7vvpGnrmiHQM2IiLKM7psgSZ0eGGPl2oTiPILbmKgeXHlypVVU/NYaRoJDNoo7nmheSQRERERUXYVmBeREBERERERxSIGbURERERERB7GoI3iHptGEhEREVEsY9BGRERERETkYQzaiIiIiIiIPIxBGxERERERkYcxaCMiIiIiIvIwBm1EREREREQexqCNiIiIiIjIwxi0EREREREReVihdu3ancGH9PR0SUtLk7nz5qsRXvX1t7PtT0RERERERPEv5oI2IiIiIiKigoTNI4mIiIiIiDyMQRsREREREZGHMWgjIiIiIiLyMAZtREREREREHsagjYiIiIiIyMMYtBEREREREXkYgzYiIiIiIiIPY9BGRERERETkYQzaiIiIiIiIPIxBGxERERERkYcxaCMiIiIiIvIwBm1EREREREQexqCNiIiIiIjIwxi0EREREREReRiDNiIiIiIiIg9j0EZERERxZdqsH1Vn2rptpzw94jU5knTUHuLO7bux4kTqSXntfxPUtpqwPe+Mn2T3BYdpVv6+1u4jIi9h0EZERERxr3at6vL04/+QcmXL2EMKjq6dLpN7+/S0+4goFjFoIyIiIiIi8jAGbURERBT30GQQTQfRhFB//uqbWdL7vkel30NPZWpSCGhWGGxcLDGbfOIvtnvk6HfUtuMv0sQJTSUfGTIqbHNSIsobDNqIiIiowPlt9VopWSJBJvxvlPTs1llmzF1oj/HBs12/Wt0rIwapppXx5LuZ8+TWv1wj7742XPWv27BZ/dV0gPfi0EcLZHNSIi9i0EZEREQFTrPGDeXyyy5Wnxs1qCvHj5/w1zj9tHi5fG8FLgP63SElEoqrYfEEQSoCUWzbBU0ayq7d++wxIhMnT5ftu/byGTgij2HQRkRERGRISTmuulSXZoMFwYGDh1ybTBJR/mHQRkRERGTofEVb6dm9szz74psF7pmuXj26qNq30WM/ZOBG5CEM2oiIiCjuvP/J1+pFG/plG6mnTtljItPcClzuvKWH3P/vZ2Lqt8tSjh+Xx4e+7N92/XxaVuAnAhC4Pfj48Jh/CQtRvCjUrl27M/iQnp4uaWlpMnfefDWCiIiIiIiI8h9r2oiIiIiIiDyMQRsREREREZGHMWgjIiIiIiLyMAZtREREREREHsagjYiIiIiIyMMYtBEREREREXlYXAVt+C0S5++R4PdFPp74rf/z0yNey9MfysQyX/vfhBz/QCV+I0b/5kq/h57K1u+muKUPERHFJ1w33hk/ye7zwfUPwwrCjybjOonrpb524rfaItlupBGmjcUf1cb2Yd31NqOLpd+YI3KTk/K923kwVhWomrbatarL04//Q8qVLWMPiQ3IbN9bmfXd14bLhP+NkldGDJLN2QjaiIiICgIU4ka/NV4GPdxPXTfRXd3pMhk8/JWYDMayolTJkjJiyEP+7caPhBPFs1gt32cVm0d6HC48x4+fkAH97pASCcXVMPy9vG0r9ZmIiIgyoLbpky+/kztvvV4V5jQEL50vv1QWLllhDyEiih0FKmhDAGQ2VUQNlm4+oKtd9TToHhkySvbuPxTQ1MCsYsXnr76ZpZpf4PvOZglmk4TvZ85Xw3TTRtzpQ1UuPmuYn7P6d826TVK/bm1/wObkXKa5flgGtgHD8ffgoSR7TObvsfkEEVHBEuz6EevXh1Rr/aFOrRrqr+nss6rI9l171Wds79wFS/3XSfP6CaknT6l0MLcf12jndLHAWbZB+QDDdPNRPQxYPqBYo/M38q6Zf5G/N23Zbk/lg/ys8zamw/SxIu6Ctvc/+dq/M9A9PvRlSTlxwh6bASfd1i2bqKYDaHa4ftNWfwD12+q10qHtRfLi0EelauUKMnDAvf7pUOtlBlrrNm5RzRW7drpMPvp8qlzQpGGmJgmYX8kSCWpYz26dZcbchaoK99LWLVRQBjhZHjh4SNpYw0y4uOAi4wYZbfTYDwOWCTqAHPvep+quIoY/+cj9smzl72o8xr39wUS59S/XqHFv/t9TqvmlPmETEVF8mDX354Br4v3/fkZdawA3A92ub+s2bJZKFSv4ryux1rzuyJEk1UQwweVmZ/myiWo7dUFtyvdz1PUR18Ft23cGXN8TihdTTSqXLM+4dqKs0PnyNqrfq1KOH1dlH+xvfaMYzLIN0mjy9z+o8gv28Z239JCJk6ezfECeFWn5HmVxff5C/kY5XUPAhuNZn9tQfp7742J7rPfFXdB2163X+3cGOrTrLlWihD3WB3fPcNEa8d+31Y6/5x+DZMHi5XI4KVmNb9a4oTQ471z1GXRU7pwOcELHhS9Y0AWY3+WXXaw+N2pQ13/BwGdcAPD5z207VCZztseteXZV2bV7n90XCHcT8R09b8DFBPNMstbHHIf5IoADfG+LtTx9UsdFfOPmreokTkRE8aOTfeNOdyiE49qguV3fENgsXvZrppYfsaJcubIqcNE1bk6VKpT3t15BsILrI7paNasHXN8BtXW4tuMav3fvfjWsatXK6q9Xmc+0jX35GX8TUbNsg+3E/sZ+x/5HeQjbibIDywfkRZGW76FXjy7qL45zlNM1lKfNG1kIBHXNeywosM+0OR/URed2NxEXNPMlILgAugl1Zy8YnEhx8cCF4Pc1G13v3qGW7VdrHfRdwUgdSU5WwWEwVStXVBdvve3miZ2IiOJfsOsbrgW4JgAKNpgulujrMG6GOqF1S8UKZe2+8BDM4W485oXvoqYq2OMKscYZ0KPWFWnH8gHFqtQTqf6WBME4g797+/S0x3hfgQza0OShZMkSqpliOIjKcVdS16atWbfRHhMId95wZy+r1axNGtWTnxatUFW8bnfv9F0xVPdqWI+vvp2lTq7InOYysU14Bq5WjbPV+qCZC+A7M+b+rD7rCxofxiYiKrjCXd/Q7P/xf/3V3zwwVui766+/PcHfNBBQc4jroFuLmFDQKgZpgDvybs/JxSLUpq5ZuyEgfYDlA4plZcuWUec0nX9R4YEbUxoqQnAOwPkuFhXYmrbbb+qmAh5dRWo+hGvCyR0XMkzz7ItvqjtQbnCR6Hf3LSoz6HlGcncSFwA8a4bn69zu3mEY7n6Bni/Wo+Nll7guE3ChxTi0ScdFS3/nouZN1Hi378Xaw5hERJQzwa5vuskkug8+nexvahRL0HIGr/sf/tJY/7ag1cqwQQ9megwhHNxQRXkBjytk9btehZozvF1TN4NEh6CW5QOKdThf6fz74OPDpUG9c+wxGW+QRbNfnb9jqSVBoXbt2p3Bh/T0dElLS5O58+arEZQ3ECjihSE4ScbLxYCIiCheIGDByzl6XH0FmwkSUb4psDVtXoEqXFTlMmAjIiLyHjxmgMcNvP4CEiKKbwza8glq2NAkE8010FSTiIiIvAM1bGgaiCaiaA2DpoNERPmFzSOJiIiIiIg8jDVtREREREREHsagjYiIiIiIyMPiPmgbPOgJ+xMREREREVHsietn2syAbdjw5+xPRL7fIRrx37ftPh/8iCx+wyO34OUzL7/xntxze88svzb6nfGT1G8E4Tf4iLwAL1LauWuv3edT3cqjTz5yP9+G6zE43+FlGjndN/gdL/zA9L19eqpzEn5fNDfPmTmFH47G77QlH01R/S2anS8D+t0R1y8UyY+fJ/DK9Yk/oUSh4Pz1/idf230id916fUCeDTfeLDfm17UuboM2txo2Bm6k4eBbsvx3VfgAnOzx47L40UUvBEaxUCAiAlzogDcUvOvjid/KgUOHpX7d2pkKIeZ50NkfitfPUQjYRr81Xgb8rY8/eIlW8OpleRG0ZSWf5CUGbRSKea3CcTJ67IdytfUZ5zCMw9vczZs6OMcB8jnOJ+9+NEkeeuBulbfQf+LkKWlQr46aJq/EdfNIHaQxWKNwcBDiQo6DFid+IqJ4gPNZyokT0uXKdrJ+01ZVWIl32MZPvvxO7rz1+oDABYUz3JjD76MSUcGFwOwC63ywa/c+FYD9bJ0TnD/rgZ/jOn78hBp/OClZatWs7r8ZgPNKXgdsUKR27dpP48OZM2dUbVvfvveoEbHuyk6d1N/Zs2epz7qfCPbsOyA7rYP1wuaN7CG+g/iP9VukdKkSUq1qZXWgDnz6Rfn4i2/l56W/yiUXXaCmwR2ZIc+/Kl9MmWEdyEf988BdmRdffVcNL1O6lFSpXFHdydm6bbe89r/xUq9OLRn38ZfStFEDSbXv8qSdTpcnhr7s/855dWur+cya+7P8uPAX2bhlm1zUoqmqsi9apHCm9cL36lsnDgxH4cw5Tz2OKLds3LxV/UXexR145FXk2aJFi6g8OeLlt6RunZoy0cqPyUePWcfCR/LehK/8eRvToZD90hvvyetvf8x8G2X4YejChQrJBU3Pl19+Xa2asZUrl6j2FZr6bP5zu0yf85OULJEgr/5vgr8fBRrsM5xvXn7zfSlerJja1+iwr5evXCOlSpV03Z/57VjKcVm24nfpZAVoZiEM8CPZOM/jvI1zrZknzfN5sPO/8zyPtPCStNOn1X5ueN45aj+bzHV37i/ndtWscVbAManTxplvdD7R16f8hOsq9nsra7v27t0vH342xbrO75Who95U21u/7jny1AuvZdrX5jXd3Nc4fw0e/oqaHsMPHDgiO3ftUfuc56y85UxvZ9kr2HFsMq9VoPuLFSsqR1NOyKWtL1D9Go6N39asl0oVy0mdWjWs5U6XM+ln8vWY59sjiVzggj35+x/klRGDZML/Rsmdt/SQiZOnq5M4auPe/L+n1HDdPERXu2MYOt0Eae/+g1KxQlkZ+/IzUsO6CJowbsOmrWp6zA93erBczBOFDTxjN3DAvQGFDoxHk59BD/fzf2+SdQLDcDDnie9/b61XQbizTt7Q4LxzpVTJkqrABH9u26HuTurajinfz1E12siflSpWkLk/Llb5E825bv3LNf48jXyLY41yBmk7b8EyadSgrjqPoHnkmnWb1DjUOuEcgXMNzk9XXdE2oF/vs3Ubt6jzoFvzV7f96QVHjiSpfJjgCNigfNlEdfdcnxf1NiDfbdu+U51LkffQFEqfZ18c+qi6w47CIZqEYti7rw1XNZf63Ot1WHfAuqNDsPXR51PVMLfrF/ILrj96W3WNgzPf5FYTzGj4bfVadTMC24D8OfLVdzLta8D26m3XNbHIH2hqiX4Mx/eWrfxdTc9zVt5CeuOGNPKs3k+g8y24HcehYF+hzIVz467d+9TNLDcYjvE4/ocNelCV/3rf96i6eZEfGLQRGUqVKKEu6qgKX7B4udzzj0HqAMWdxQMHD4kUKqSmw8lcX/TxFxfvzpe3Uf2mqpUrSpvWLey+QBjXq0cX9RknhEut6XSBKhisV2ercKUvlM7vmfPEnSHA3UeivOAMDPDcCwq5Gm5+6OYlOF5w3CRZF88tVnD3+NCX1bF2/7+fUXdAUfCmnNHBc1W7BgAFlKw2kcQzH+aNI5Pb/szKvHNLuXJlVY1asHNfpQrl/duktwEdbjDgHOu82QDYLlwDcC1APsW1AdcITO91ep/oawPguoTt2bv/UNDrFwqmsbatpmaNG8rll12sPqPwjQAM+xnBfOVKFdVwQAEeL1bCtqKlAF62o/OOvn7je/g+YBzPWXkH6Y2gW+9LcJ5v3I5jN9i/ep/17N5ZHeNnn1VF7fNgMB70jQwEhng2Nj8CNwZtRDbcmVm7YZO64APuJOq7OuhwsJZLLK3+4g7bg48PV3cvcUJBAUF/j6ggQyEHF8C9+w6qftS+hYObDbgQ6mPN63fwYwWCZ/PmEwqZqH3QwVy80jVsCL6ckCZo/RBKsDvvqL0bMeShgOuCV1/EEqlg1y8USFF7hFo2bCeuh/EIARve6jzgvtvVdqIWUQ0PUVsLPGfFJrwRUu8zfeziRj1q55w1pQgIERhivAmBIYJE3JTMawzaiCwI2PBqaNx5wQGJg3TN2g1quBucnEc+86iv9s2Cu0BoPpkVaMqoCxVmVX0oWK8ZPyzwr1ek3yPKKzh+UGONYAEFX7OWxrzIzZi7UNXKlbWmB74cIrp0gcMZZPTs1lmlfTS47U/s7/ffe0++//47Ndz5+ddfc38/Yx1QQ/j62xMCzuFoTjVj7s9BWz9oOJ+a51nAPEuWLBG1tMtL+hg0r1E43nDdqlWjmuv1a5cVuGI4vovrzJp1G+0xwZ04cUJe+e/Lah87P48dO0b+/PNPe0rv0LVjOmjVeRq10whm8UwoIA2Qd0AHcjxn5Q2kN8paZvNr83yTUyjPoXbO2YIKTTJxzGM8bmKYNWs4PvIDgzYqsPCyD9x9RoeADc8v6DsvOEjx5jHd/AEdLvg4cetmFKheR8EAhVS8ZQgnFXPacHCnDncy9bx0VT2gSRma4Ywc/Y7/JALO9XJ+j8gLmjSqJz8u+sW1cKyPEdDPzuCtXSgQ6XHOfE9Z52waqSEg0XeV0YQahfF+Dz2lAhRnfySc+9MrcC7HOR3ndr2OeB4Fz6XgnB2K8zyLcz7Sy3me18O9BsGG89rlXHekBYaB2/ULxy7yAvrxczi4XmnZySdehX2NAjuupdhWDecltKhB4K/T4KLmvqbePGflLbf0hmieb/AuATwzp1sl4C/69XsL0GJEl9fQmcdPtOD5y3BdXP+4NpFX4ULP35OheIU7krhjrS94oF/iEOvNyYioYOI5jHITgrJwWNNGRERRg7vNuCNpvoCEiCiWoUYRNdT6BV9E+YFBGxERRQVq2HSzEt6NJqJYhpo13RwOzWzvub0nW8ZQvmLzSCIiIiIionzC5pFEREREREQxjkEbERERERGRhzFoIyIiIiIi8jAGbURERERERB7GoI2IiIiIiMjDGLQRERERERF5GIM2IiIiIiIiD4u532nbuHmr/Ym8rEL5cnLo8BG7L/94ZT2IiIiIiNw0bVTf/hQcf1ybiIiIiIgon/DHtYmIiIiIiGIcgzYiIiIiIiIPY9BGRERERETkYQzaiIiIiIiIPIxBGxERERERkYcxaCMiIiIiIvIwBm1EREREREQexqCNiIiIiIjIwxi0EREREREReVihdu3ancGH9PR0SUtLk7nz5qsRREREFLtST5yQnTt3SErKcXtIcKVKlZTq1WtIQokS9pDYduTIEdm7Z4+cPn3aHhJckSJFpGq1alKuXDl7SGwryPud4lNBOJ5LlkiwPwXHoI2IiCgObd60UcqVLy8VKlSwhwR36NAhOXL4sJxbt549JLatX7dO0s+k233hFS5UWOo3aGD3xbaCvN8pPhWE4zmSoC3umkcuWbJEmjRuFNBhmDZp0iR5+aWX7L4MmGbgo4/K8ePHVYfPzvm4fQ82btwona/qFDCtnhe4rRPm5TZcd3qdD1sn09tuvSXTcCc9P4qc235D/siJYPkr1iBtbr3lFvWXKBh9rsyPcw+WPXToMyqP4pgzj2N05jk4p2L1uEZNSyQFd8B0kdTMxIpwd+QLFSokVatUkRJ2DVMkd/BjRUHe7xSfCvLxbIrLZ9quu66bLF32i/y+eo289/4H8tL/vaiCn6zCdzEPdJjfrl27VABlzgsX8/79/iZjxr4VMO3ZZ58tqamp9lSB64TuoYcfltatW/v7nx02XP761/v8/RiHAsdzw4fLTTffooZNnjJV/u/FFwMK0jrwePvt/9lDKCvqnXee/LTgZ3/6fvbpp54JVLAe/fv3C5l3o1WYdM6nXr168omVFvhLFCnkVeTZvDiGVq1aJUeTj0r16tVVP86h+vyJDufgHt27eeZ4Jm9BsJKQkCAVK1ZUBT4iil0F5XiO+xeR1K9fXzUTOHDggD0ke0qWLCkjR42Siy++RGbPnq2GoTAwffo0+XziFwGFW0yLoKy8tdyc2LlzpyQlJ8mVV16p+rGMSy65RH799VfVj+UPeuIJ+e8rr6igkHIGhb/atWvLwYMH7SFE5FU/zp8vN918szrfusE5+P4H/i6Tv/7aHkLkU6ZMGSldqpTg2ZD9+/fLmTPqKREiikEF6XiO+6ANAVbDBg2jVmNwWfv2svDnn1UtGAoDXbp0zXFwFgyCM6y7OX9z+bo2pC7bokcF7txD06ZN1V+3mi5njZTZxBW1sPv377PH+OC7unkrakSnTfs+YJ7Yj2ZTXD1vzBe1BPPnzZN2bS91rU3DsCcHD1K1rPiubqJmLhMd1lnDZz1c1xq7zQfDdY2JXkesu7ktZg2Gczv0dprTUHzDvr6p140qzyLvms0T3fIdIK9huvEffhiQr8zjyi3v4/to+YCbcqFccMEFsnbdWv/ygh1vgGnM48Zcf4pthQtnFHVwN76CfU3FPj958qT6TESxoSAfz3EZtH3zzVRpddGF6sL7+WefSt977rHH5ByqXlH7hTfZoNBQq1Yte0xo5jqh0wVsyl8bN2xQQRH2yRP/eVz69e8f9M69E/Yhmt7q5pXDhj9n5bfP7LG+E8j9VuDy8L8f8Te/nDVzlnroG1AgfGrIEGlz6aVqvG6Ci/mieSymb9+hg5o/ag2cMMxsVovvOJeJ76I2GAVhdPis13f4c88HnY+b98aNkzfHjFXTXHvtdTJ2zBi1Dc7tQLf699UqbangwE0ktDpAnkXeRcsEHEsI2HCjSTcPR3Pvce++a3/Ld24sVbq0GoeaMQR8qEVDP+azaNGiTME/bsah+WO4G2aVKlVSf9HSItTxBuvXrw84brZt2+q/kUOxq7SVt84+6ywpVqyYequczhMpKSly9OhR9ZmIYkNBP57jMmgznx9DQbp/v7y5449l6BdbOGsinM+0BSsYU94yn2lDgXPwoCciDqh9zbNu8RccUWhFoVNDIbBWrdr+mjsUYBEUorkuOJu/Yjyae2G+2eVcJtYNtcG6Se3hQ4f9TYXr1q0bttBrQoFWT9/j+uvVuuO5Ted2AG6UIG2pYEOghIDNbMaIfIJgCTcYAOfGa665Rn1GzVizZs1V/gK3JsuY56pVv/mniVS44w3nZH1eRj5HU/ht27apfopdiWXKqDvzeElB1apVpYj1+dSpU3Lw0CF7CiKKFQX9eI775pEoSN98yy3+QmsouHOrCxbBoPBQNrGs+v0HTG9e1LGsGTNnqSAgNwuskawnZR0KaghMIgmaUHAMV9OKvBFqXyEv6eaPugb27rvuVPPF/LMDy3TW6qLp459btqj8Ofw53MT4mxoerdpefUygmQKRCUE9aqyQr3V+RH5fvvwX1+eMcdcUQZq+e+oGwRfoF5CEopeB+YU73tCZTSf5cqf4sHffPjmVlqYKekWLFJH0M2dkv5Uv+BwbUewp6Mdz3AdtgAKrhkK2W6E4kjuq+A6av+m7xubzZbnBbV0RUNQ55xy7j6It0jvr2P/OoB3MvAbO/YeCo24eiaa2t9x6a0ANLDrdrCw7kGfMt5DqTjevNG8soGlntAI3FMzNt6WisIxaPSrYEMg3atxYNXM08yPyIPJiduBZ4qZNm0V0jJjPHYc63gBNJ3Fu18NxHFHsw2/Q7t27V/0OLeDcpD8TUWwp6Mdz3AdtaKKIZyLQ7Abw4DoKmN99953qB0yDV72Ham6Dpjz39L1bFdR1Exr8RT+G66Y+0aSbuOl1dW4LRRf2IZ6BRDAOuDuPAAtNDgHp/+Ybr6vPgOAZ0+t9j/HffvuN+gzYT6hR0M/F6KBfQ00BXllu5sWcQv5evHiRazCGYXo4CtNoRhkN+mUQ+q2qgMLygQP77T4qqBBYIcDSzz/mFI413Agxm+K6wbJQa4ZpddPLUMcbbjig6SQCO8BycBxRfFAFvX37VBOqEydO2EOJKBYV5OM57l9Egofa//3II/67urjjipcpoLCtm8GguRiajTnv/JpNevBWNDwf53whBPrxXJPZ5AafcXfXnJ+zyVokbyZDgeeJQYP86xpsPSn7zBeR4C/2pflcC5pL6nyAguddd92txkHPnj0D9r1zPPbTc8+P8H8febHTVZ38z7Q596/udGCF7+PtoZi/2xv0AIVXFC7197DOyKd4qYqen36+EgVSPRx5ES9k0NvqnE9W6GUioNXLbNykMZ9pK4CQF3DuM98eieMEN7fM81+w/BwObqBgXliOE5oB6/ljWag1M2utQx1v5npjGF7mE62bGvmpVKmScijCZz0wHaaPF3hJgQk/tnvs2DG7LzPn9LGsIO93ik8F+Xg2FWrXrp1qCIrIFVWMc+dl/yUIRBQaCoiobXtm6FB/YTIeIUgcNWqkjBjxgmsBmyirEADqJoz6ZgOFlnrihOzcuUNSUsLXcqLgXr16DUkoUcIeEtvwhue9e/aowl04KOBVrVZNPaseDwryfqf4VBCO55Ilwr8XgEEbUR5BkyvcwUftHGof4pUuXKNGxFkzTZRduBHw0Ufj5dFHB8b1DQ8iIip4GLQR5SMdpK1cudIeIur30OItYNNBGpoAa3iJAwM2IiIiovAYtBEREREREXlYJEFbgXjlPxERERERUaxi0EZERERERORhDNqIiIiIiIg8jEEbERERERGRhzFoIyIiIiIi8jAGbURERERERB7GoI2IiIiIiMjDYu532jZu3mp/Ii87VLKkVDh+3O7LP15ZDyIiIiIiN00b1bc/BRdzQdvMpGP2JyIiIiIiotjWvWpF+1NwbB5JRERERETkYQzaiIiIiIiIPIxBGxERERERkYcxaCMiIiIiIvIwBm1EREREREQexqCNiIiIiIjIwxi0EREREREReRiDNiIiIiIiIg9j0EZERERERORhhdq1a3cGH9LT0yUtLU3mzpuvRnjVzKRj9ieKZ4u//UZmfjBO7h3xolQ75xx7KBERRapwaqoUO7BPTp84YQ8JrkiJEnKqUhVJT0iwh8Q2bnvB3HaKTwUhT3evWtH+FByDNvIkBm1ERDmTsHO7nFWxopQtX94eElzS4cOy++BBSa1e0x4S27jtBXPbKT4VhDwdSdAWd80jN/yyTD4YMlhO2tE4/qL/wTatVPfMDd1l95bNahym1cN1N+WN19R4TOcch27RlMnqu4Dvm/PT9DJfuvduOXbksD3UB9OOffjBTMMp0MXXXidPfDIxVwO2WNgXOo+a+U5DXnUbTpRX9LkO+TSvYdmfjRyhjmMcC85ztXkdyCkcZ1hGrMFd6UgKOYDpIrmLHSu47QVz2yk+MU/7xPUzbSiMv/b3/tL2hr/IKwuXqq7ff0fLqeMZO/OiLlfLqB9+9I/v/sA/5KxzzpWnvpqi+v/5xtiAaS7p3kN9D4WBX2bOkEZt28mfv/2mhplKlCkjcuaMrJo3zx5C8Qh5DIGfM3CPpjqNm8iKObMY6JPn5cXxoG1d/bucOHpUKp51turvPWiI/zyOrsJZZ8nzt96UJ+tCRESU2+I6aEs+dEhKlysnZ9erZw8RFZDVatTI7su+g7t3qb+Xdr/etUCNwsRFXa+Rn778goUGypHKNWtZBdCzZfZH4+0hRLRm4c/qhlzxEiXsIYFwA+7qe++TJd9+Yw8hIiKKXXEdtCVWqGAFU0dk18aN9pDoQe1anUaNpdq550rJMomuy6hRv760+8uNMv3dd6LWTIdyD4Jrs1ms2eQLzaP0cN3sFdO/eNcdsnrBT+qOvm6OhXGYRk9vNtPCPNE/99NP/OMjaXbV+a67Zf2ypSGboTmXq5tOOptR4rPbOhHlRLDjAdyOH3AeD7q5OYbr6d2OD3z/0O7dATfk3NRp1kx2bljvXx7WB8tzm3eo45aIiCi/xXXQVrpceen95FPy0dCnAwoKpmXTv5dHr7jMf6EOVSjWcCH/c81qVSDAXd6GrS9Wd33dtOzcRf1dPmO6+kuRwYtInru1l+zZssUekruwTxFc3z7kadW06rlpMyWxYiU1DgXOtUsW+5vItruhp6r1Qq3tI+9/KI3btpP/fPK53Dl0mMoPCOB7/P2f/vns37FdNeXSkOdKlCqlxuN7v0yfFjbfIS9jnpNff9U1H2PY2If/FbBc1ACjANyozaVq/bGN6PB588pf/bXFB3bsUHmYKCeCHQ/Bjh/NPB5QM4aAD+dTfXysX7pE5WMTmp2j+SOOi1Bw4w7Q6gJ5/5Pnhqm8jnljfRD46WMv3HFLRESUn+I6aAP9fBouxk90vSrTXVvnM23nXXiRPSY457MUzru5JhRautxzL59JihEIYACFQbwERQc5ZjOsph06qMJesP2JPKTzEeZT/6JW/vkC8pwO5pE/L+zSNWB8MJgn5uX2nCQKnJVr1JTajZuofiy3RcdOqkZY10acSj2hOhR28Szm0YMH1fbpGxBE0RbJ8WMeD8iHeIaz9bXXqX6cY9E8GHlV03lWTxMp3KQ4fjRZLR+wPlgvfcMt3HFLRESUn+I+aNNwMdZ3Vs2mYtmBi7xZQ4c7w2gSFOylIyiYVz+vPp9JyoK8eHukCQW4W58YrAqY2Kc6uEeQgzvurz7Qz18bi+AfNVW4e+8GhUqzCdbMD96zx+QcCqpuz0micOmsNZ4wfKjs3bZViiX4CssI7NBVrVVbLryqs8rHurZN34AgiqasHj+oGUOQpmvI3GQlz+plYH4I/HCexvL1umC9cE3AMZubxy0REVFOFZigDVAwR9MYFGSzC3eHUauGZju6dg4d3jKJAj8u/G6uvL2PeiZp7aJF9hDyGuQPNOnC/gQEbgh4ajY8P9P+Ru0tgnEn7H80wcIdfD3tVXfebY/NOSxTPyd5/OhRe6hIpRo11HLMdUSHlzHofI8gbfNvK1VtBmrfUFjdbQVxJcuUUdMQRVtWj59I4MUieJ44kjyLaVHjjJqzMhUrSruevQJaVqDDMQ+5edwSERHlVFwHbaiNWDFrpt2X0VQHNQ3ZhZoKvHjEeZcXhWA0vdF3gZ1QaEATzUkvv2gFfkfsoeQVCMbnffap3Sf+PIKCIQqIkb5MBjULyAcoIALmi2A9mnRTsp8mTVR/Afkv1ItKEKjtWL9ODu3Zo/Iu8iO+M/ujD9Uzb0S5IavHTzg4nnCzQTdxDAbLQq0ZptXHC/I9mrW7PV+cF8ctERFRTsR10IYmMbMnjPc3d0HTMdQ46N9aA2eTslBvDMPwBV99qebhvMuLQjCaQIZ6vTSaaPLurTehRmDLqt/8+QDBfdd7/qrGIb/gOTAzn+jmk9jvuJOv35aH+eh+TIeXg+BZs2hC3sNzkuaNA6yHfumOXkfzh98xbanEsgE1FGXxopVChfzPvBHllPN4wDkz1PGTVbhpFuwFJGgOrOePZaHWTL8MBfD3xn8/Ij99Nck/HTrc6DDXG8Ny47jND0WsbU46HNmz1JgO08cLbnvB3HaKT8zTPoXatWt3Bh/S09MlLS1N5s6br0Z41cykY/Ynimd4e+TMD8bJvSNezLPn2ojIuxAA6iaM+oUhFFrh1FQpdmCfnA5yI9KEQs6pSlUkPSHBHhLbuO0Fc9spPhWEPN29qq+lRygM2siTGLQRkQm1xmjCfMOAf2Vq6UBERBTLGLQRERERERF5WCRBW4F6eyQREREREVGsYdBGRERERETkYQzaiIiIiIiIPIxBGxERERERkYfF9otIGnxgf7AUsbrTvo+e8+udIiXtz0RERERERLb4fxHJEStK091B47PXujQVFxMREREREWUZm0cSERERERF5WMw1jzx86KD9yVJ9gv3B4zb0Fillfy4gdhYqItXPnLb78o9X1oOIiIiIyM3ZZ59tfwou5oI2U0rJ1+xP3lZqw90iNcrYfURERERERD4lSyTYn4Jj80giIiIiIiIPY9BGRERERETkYQzaiIiIiIiIPIxBGxERERERkYcxaCMiIiIiIvIwBm1EREREREQexqCNiIiIiIjIw2L6d9qIiIiIiIhiGX+njYiIiIiIKMYxaCMiIiIiIvIwBm1EREREREQexqCNiIiIiIjIwxi0EREREREReRiDNiIiIiIiIg9j0EZERERERORhDNqIiIiIiIg8jEEbERERERGRhzFoIyIiIiIi8jAGbURERERERB7GoI2IiIiIiMjDGLQRERERERF5GIM2IiIiIiIiD2PQRkRERERE5GEM2oiIiIiIiDyMQRsREREREZGHMWgjIiIiIiLyMAZtREREREREHsagjYiIiIiIyMMYtBEREREREXkYgzYiIiIiIiIPY9BGRERERETkYQzaiIiIiIiIPIxBGxERERERkYcxaCMiIiIiIvIwBm1EREREREQexqCNiIiIiIjIwxi0EREREREReRiDNiIiIiIiIg9j0EZERERERORhDNqIiIiIiIg8jEEbERERERGRhzFoIyIiIiIi8jAGbURERERERB7GoI2IiIiIiMjDGLQRERERERF5GIM2IiIiIiIiD2PQRkRERERE5GEM2oiIiIiIiDyMQRsREREREZGHMWgjIiIiIiLyMAZtREREREREHsagjYiIiIiIyMMYtBEREREREXkYgzYiIiIiIiIPY9BGRERERETkYQzaiIiIiIiIPIxBGxERERERkYcxaCMiIiIiIvIwBm1EREREREQexqCNiIiIiIjIwxi0EREREREReRiDNiIiIiIiIg9j0EZERERERORhDNqIiIiIiIg8jEEbERERERGRhzFoIyIiIiIi8jAGbURERERERB7GoI2IiIiIiMjDGLQRERERERF5GIM2IiIiIiIiD2PQRkRERERE5GEM2oiIiIiIiDyMQRsREREREZGHMWgjIiIiIiLyMAZtREREREREHsagjYiIiIiIyMMYtBEREREREXkYgzYiIiIiIiIPY9BGRERERETkYQzaiIiIiIiIPIxBGxERERERkYcxaCMiIiIiIvIwBm1EREREREQexqCNiIiIiIjIwxi0EREREREReRiDNiIiIiIiIg9j0EZERERERORhDNqIiIiIiIg8jEEbERERERGRZ4n8PzQMMifOGEw6AAAAAElFTkSuQmCC;" vertex="1" parent="1">
          <mxGeometry x="40" y="270" width="650.36" height="330" as="geometry" />
        </mxCell>
        <mxCell id="njZ23-EEaWyoHb-toW5m-30" value="" style="shape=flexArrow;endArrow=classic;html=1;rounded=0;endWidth=14;endSize=3.67;width=18;fillColor=#f8cecc;strokeColor=#b85450;exitX=0.292;exitY=0.879;exitDx=0;exitDy=0;exitPerimeter=0;" edge="1" parent="1" source="njZ23-EEaWyoHb-toW5m-28">
          <mxGeometry width="50" height="50" relative="1" as="geometry">
            <mxPoint x="190" y="560" as="sourcePoint" />
            <mxPoint x="120" y="560" as="targetPoint" />
          </mxGeometry>
        </mxCell>
        <mxCell id="njZ23-EEaWyoHb-toW5m-31" value="Select -ISETAN" style="edgeLabel;html=1;align=center;verticalAlign=middle;resizable=0;points=[];labelBackgroundColor=none;" vertex="1" connectable="0" parent="njZ23-EEaWyoHb-toW5m-30">
          <mxGeometry x="-0.1714" y="-2" relative="1" as="geometry">
            <mxPoint x="-11" y="2" as="offset" />
          </mxGeometry>
        </mxCell>
        <mxCell id="njZ23-EEaWyoHb-toW5m-33" value="1" style="ellipse;whiteSpace=wrap;html=1;aspect=fixed;fontStyle=1" vertex="1" parent="1">
          <mxGeometry x="240.00184874615397" y="550" width="20.059740911431856" height="20.059740911431856" as="geometry" />
        </mxCell>
        <mxCell id="njZ23-EEaWyoHb-toW5m-34" value="2" style="ellipse;whiteSpace=wrap;html=1;aspect=fixed;fontStyle=1" vertex="1" parent="1">
          <mxGeometry x="610.001848746154" y="424.97" width="20.059740911431856" height="20.059740911431856" as="geometry" />
        </mxCell>
        <mxCell id="njZ23-EEaWyoHb-toW5m-40" value="" style="shape=image;verticalLabelPosition=bottom;labelBackgroundColor=default;verticalAlign=top;aspect=fixed;imageAspect=0;image=data:image/png,iVBORw0KGgoAAAANSUhEUgAAA5gAAAIjCAYAAABmsrS/AAAAAXNSR0IArs4c6QAAAARnQU1BAACxjwv8YQUAAAAJcEhZcwAADsMAAA7DAcdvqGQAAJlESURBVHhe7d0LnFR1/f/xz3K/3xEFBUEgCESIDAwJTaJQQKWw0MqEKOqHxK8I1FLS8gJRP/5IRSFeU0oKE1EUMUEkwUIQQREIBIOU+0XkuvDf95fzHc4OMzuzu2fZ2dnXcx/nMWfOfWbnnPm+z/d7zuS0a9fuhAEAAAAAUEwVgkcAAAAAAIqFgAkAAAAAiAQBEwAAAAAQCQImAAAAACASOSfyBP0AAAAAABQZNZgAAAAAgEgQMAEAAAAAkSBgAgAAAAAiQcAEAAAAAESCgAkAAAAAiAQBEwAAAAAQCQImAAAAACASBEwAAAAAQCQImAAAAACASBAwAQAAAACRIGACAAAAACJBwAQAAAAARIKACQAAAACIRM6JPEF/oR3Lm/XA0WN2MDfXDud1R4+fsOPB4irk5FjlCjlWtWJFq57X1axcySrlDQMAAAAAZKciBcwDx47ZnsNH3WNh1KxUyepVreweAQAAAADZpVAB88jx47b94OFCB8t4CpiNq1e1KhVooQsAAAAA2SLtgLnnyBEXLovcnjaOGssqZNarUuXkAAAAAABAmZZWwNx5+IjtPHQ4eBathtWqWsOqhEwAAAAAKOtStlEtyXApWrbWAQAAAAAo2woMmGoWW5Lh0tM6tC4AAAAAQNmVNGD6G/qcKVqX1gkAAAAAKJuSBswob+iTDq3rTAZaAAAAAEC0EgZM/QxJUX6KRPcL+mj//uBZ4RV1vQAAAACA0pcwYO45fDToS5/C5UvPzrH/+9k427dnTzC08IqybgAAAABA6TstYB7LC4qFrUX04XLhC8/b/9xyq9WpVy8YU3hat7YBAAAAAFC2nPY7mHuPHLUPDx4KnqUWDpf/e8fPrEHjxsGYomtSvZrVrVI5eAYAAACUT7m5x61ixaS3TUEW+vCjA3bZQ0/Ymh07gyFm7Ro1tAU3XW9NatUMhmSu0wLmB3nhcl9eyExHSYRLqZMXLs/OC5nFdejwEZt4/4PWqGEDG37TdW7Y3n37bebT8+zlV1+3jz8+aA3q17U+l3/WBvT9vFWvVtWWv/WO3TXhd27asDq1a9rgL19lv3/4yWBIfl/8/KWxdehA8JsHnrCDhw7bD7//Tatc+VRY1vLHT5puY38w1Lp0ah8MPTl8+h9n2S9uG2n16tYOhhYs0es7fOSIPf3s3+2Flxfbrt17rUaN6nb5pZ+xgf16u9eaia9vz9799tN7JlvXiz5p3/zq1bGDqB8+9OsDrcuF7Qvc9tt++F2b+bfnrcV5Te0bXx3ghvv35/Of626f/UxnN2z7jl12+73327BvfMW6du7ghgEAAGSi3Xv22R8emWlfHdjXzs8r43jr/r3J/jjzGVu95t+uPK5xmubiLh0tJycnmMpsbd50d/9qqo0eMcQu/GQbN+ytt9fZr3/7sP3kR9+11i2bu2GyfOU79n+/e9TuGPM9258XcJKVue68ZUReWa6OK6Nt2fphMMbsnCaN7ZtfG2DdunbKtw1lWTjolVbA++eW/9pX/vyU1apSxf7+rcFlImCedjrkcG5u0FewkgqXku42FNbRo0ftgcf+aouXLrfrrv5iXij5jguXK95a48KYp6D57W982Y333ajh37ROHdrGnn8hb75WLc61H998k3ve5/JLgrnzQvqH2+3N1e/a2++uty3/3RYMPUUhcMas52zf/gPBkGjofzLzby/Y08+/bJf1uNht19eu7Zt3cHnP/pu3TV6mvr4XXlpsa9ZtCJ4llmzbz23axIXL97d84NYvu/P+p5v+81/798bN7rn898MddjwvIDc9+6xgCAAAQOZRuJz8hz9aj25drMW55wRDzZW9fnn/g3bk6DEb+Z0b7Ef/8y1rmVdmW/LPN+1Y6DI3lQtf++cKVx7To55Li/POsQb169m76za6596qd9bZ+c2bxcpIycpcjRs1cONF5UUN//HNQ6zNBS3sV7952FXiZAuFuUcH9rPmeYG6QimEZoXL78x+3qZc1cfOr1c3GJr5TguYR4+nvv6xJMOlpLMNRXHg40O2cfMWG/HtwXb1lZ93Z3m+mhfA7r3jf63ZOacCR+XKlaxDu9ZuvO9UG6cdzj/Xjl6/Xh371EUd3PNW558XzG32Tl5I0lmcli3OszdWvhMMPaVChQq2cdN/bN7Li2M7exQOHzlq7+W9vq9e+yVXi6ft6v+ly2zCz37kXo+Xqa/veN60M/76nH104ONgyOmSbXvNGtXtk5+4wDbn7Yj79n3kptX/esfO3fbu+o2utlree3+LndW4gdWtU8s9BwAAyDQ+XF7xue4uYIZrBLft2Olaj43JC3Wf++ynXSutEcOut5Hf/Xq+VmWqhVRoHPCly231mvW2Y9fJm3DWzgtNn2h9vquxVGsv+eijj23l22ut84XtrEbQirCgMpen8qKGaxtGfufr9sXP97BFry2zQ4cy86cHVSPZ/v5pljPuvqRdpTvH2/9b8i9XLi3NgOfX/YcBX7LPNDt1gqEsOC1g6s0siA+XU385wc46+xx79q9/scem/i7t7qnH/2gHP04eICTVNhTXf7Z+GGmwC9OOqjNIl1x8kfXK2+nfeHN1LNx4tWpWt4H9v2Dz/r7YBbGo/feD7a62tiSU5OvTQenjgwdtwauvF+n/o4Cck/e3bcdu91w1l2oOom3esXuPHT12zN5d9547O6emwwAAAJmmoHDpfXTggDuJXpB/b3zfjhw5aldc1t2qVKnsmtWKlqdQuPk//3WtvWTrh9vdpUlqzVZUusRJFRDb87bLB9dM1Kp+PfvgxzfbiTtvSdgdGzfWftD907Zs6wexgNf/E63t2a8POmPNU8Ph8uIyFi6l0FcMq+B//Pjx4FnZojM22qEe/fNsu2nET+3Xv33EXvnHv06rMTt69Jg70/PP5ati3Z69+4KxBftP3odRTRd0xqddm5a2c9de+/d7p4csbcen87o/P/V8ZDthtapV7OJPXWgvLnjNvpX3+u759R9s7vxFtjPU/Fcy9fWdfVZD+9rAK23OCwvdQS+RgrZdtZING9S19/N2SoVe1Vxefmk3a1Cvrv1ny4d28OAht/2fzDtIAAAAZJp0wuX55zWzs/OC3C13/Z+NvOUee/DxWa6mMjd0iZnul/GP11e48tp5Tc+2Tp9s62oWfQVEyxbNrFq1qrYmaCar+Zs0bmBN85brFae8WNa9u2OXfW/OC6US8BKFSwXbMxlwi+u0gJmqfbGaP36h/wAbcetttmvHDrvqy1+xbwz/XtrdtTd83arXqBEsLbGSauOsMyvf/OoA+9XPf2wDvnSZ20l+O/1P9oNb77UNoZo23bxG12oqoPlOzS3ToeYGqiFTk9tGjeq7pqVvrHz7tBq5ShUr2jVXXeFqU//x+vJgaGK6uc2IsXfnbe/+YEhyuqZ0yoSf2PVfvso9/+PMOfY/o39u/8o7KHiZ9vrCdKMfHQz/MnueHUlQC1vQtqtW8hOtW9ra9brmdIdrEq0QrGsCdODUmb7c48ft3GZN3PQAAABnisLdzqCZaiLphEvRJUx33TrCfjr6u65Jq+4lMu6+39j4/zfdPg5+CWLX7j3ukqZLLu7slqNLntSqbNv2XW583Tq1rWP7NvbW22vdSfm384LkRR3b5WvhVZzyYln3iUYNbPHQb9inm55jf337XdtewOVbUSrrNZfeaQGzcoXU4U4f1F5f/FJe90W7/567bdf2UzeQiUI621BU2nYFJDXhvOvWm23a/7vTzmnSyP7+ypJgipN3yPq/u8faU49NjnW6i2kq+/Z/ZEv+tdK1XV+x6l23wzdqUM9eX/ZWrN172Fl5H94vD/iCPfnU8/b+fz4IhhaPXt/ZZzWyq/p8zl10/fCUX7h28fNe/kfs5jeZ/Poq5gVT/W/UjOOVxf8Khp6SatsvaNnc3t/6ga3bsMka1q9r9fM61VjqgLjy7XVWr04ta1S/6L/TCgAAUBS62c7/+/1j9uaqNcGQU9INl17VKlVc+WfIDQNt8n232S9+MtLVRq7fcPLGhroZ44EDB237zl2u5lGBU5VES994y43X8tXaTDeCXJUXLlUhoIAZVtTyYraoWqmibTtwwB58Y2WJX74n2RIu5bSAWTWvgJ+OkgyZ6W5DFGpUr54XhBrasWPFb/a76f3/uruY/n3R0tiZntnPv2wfbNvh2sEn8tnPdHF3P1VNYzLamaeM/0naP18Spou9zzm7sWvWXNx9o6ReXzzVjuomTE8+/YK7nrQwVDt5+PARe/6lV+0TbVq6ZsNN9fpzc921nc3PbWrVI/gJHAAAgMJo2KCefe+mr7nLh8Ihs7DhMhGd8K9Ro5rlHs91NaXLVrztWurd/4fHXXlNl4XpFwVUOeBrOc9tdrZ71D0zGjWsZ+eGbnhZFGqWq3U0bljflb+QvmwKl3JawKxeiHBXUiGzMNtQGGoG++NxE+2xJ5+xpctWurbp2qEXLVnmmhh4idqcq2nogbib2YSpiahuAa0mnk8++KvYmZ6/PDzJ3Qzn9bz1aceLpx3w+q9cZbVrFdxsOB1qdnHHvfe737LUa9NrVNOGv85+0T7ZrnVsZy8Lr+/ynt3ygnW70673TbXtqp3UGbetecHUX2tZK2/d+q3QTe9vtTatWhTpwA0AAFBcOul/87AbYiGzsOFS5bHnXnzFbvv5JHt23iuuHPTSwiV236QHrGKFinZu07PdvTLW/fs911LPl9fUjf/Zj/LGfehqK0X3qGjf9gJb9ubb7hKj+BsgplNe1M/BabgvU7+QF1Z7XtLVXd+JxHQn26v+ONM9SraFSzktYNasXCnoS09JhMzCbkO6dGery3p8xv75xls2YfKD7rd61B5dvx/UreuFwVSJ25xPmvqo+5H+ZNRE9M1V71rXzp/Md4toXfepm92oqYJ+PzKR5ueeY9dedUXwrOgUrPpc3sP+/d777kyVDja69lI/etv/i72CqcrG61Mw1c+t6DWFpdp21U6qllI3DGp2zskL1StXqpQXNlu5ZemidgAAgNLiQ+YTf33Ofnr35ELVXGoa/VSILvea+fQLrhw07dG/WL16dewnP/qOqz3UT8jVrVvH/d5lmGoodVmY/01MleG6du7gmtvqGs146ZQXX3z5H264fpdTlzepTH35pZ8JxiKVbAyXkpP3ATut4eSWAwftwLFTP9SaDi1Gv4v5j5dfdjcAqlOvaNe51cwLA81q8hMSAAAAyF66DEiXGakVHa2rzgzVGl720BO2ZsfOYEhq7Ro1tAU3XR/ZHVy1DUP+9px9s3NHu2/RkqwLl5IwYCpcKmQWlhZ14KOPrFbtwl8r6ClcKmQCAAAAQDZRwPz8wzPsoyNH7LEv97fPtTgvGJM9EgZMKUotZnFRewkAAAAgWyWqRY26lrS0JQ2YR44ft037D1gxbzyaNjUMaFG7plWpcNploQAAAACAMiBpmlPQa1z9zN0BSusiXAIAAABA2VVgoqtXpYo1PAO3GdY6tC4AAAAAQNmVssqwYdWSDZlattYBAAAAACjbkl6DGW/PkSO2/eDhyK7J1DWXahZLzSUAAAAAZIe0A6boxj8KmcW9u6zuFss1lwAAAACQXQoVMD0FzD2HjxY6aCpY1qtamd+5BAAAAIAsVKSA6R3Lm/XA0WN2MDfXDud1R4+fsOPB4irk5FjlCjlWtWJFq57X1axcySrlDQMAAAAAZKdiBUwAAAAAADwuggQAAAAARIKACQAAAACIBAETAAAAABAJAiYAAAAAIBIETAAAAABAJAiYAAAAAIBIEDABAAAAAJEgYAIAAAAAIkHABAAAAABEgoAJAAAAAIgEARMAAAAAEAkCJgAAAAAgEgRMAAAAAEAkck7kCfqzzqp31gV9AAAAAJDdOrZvE/SVnqwOmADKj48/Pmj7Pjpgx48fD4agpFWoUMHq1KppNWpUD4YAAIDyjiayALIC4fLM0/ut9x0AAMAjYALICoTL0sH7DgAAwgiYAAAAAIBIEDABAAAAAJEgYAIAAAAAIkHABAAAAABEgoAJAAAAAIgEAROn+dOsuUEfAAAAAKSPgAkAAAAAiAQBEwAAAAAQiZwTeYJ+wFET2a8N7Bs8A8qGrR9sC/pwpjU9+6ygDygbcu6cEPQlNn1AXxvS5cLgGQCUjON5MeylDZts4uKltnTLVtt76LDVrVbVujVraqN7dLMrWrWwCjk5wdRlBwETp8m0gLl25y67/e+v2AvrN7odr2X9enZj5472w0s+Y7WrVgmmQjomL/mXexzZ/dPuMZsQMEtPVAFTX7T/3PJf23bg42CI2YVNGtv59eoGz4BoKGCeGDcmeJafxtWoXNl+c+UX7Ft53zUAsseHHx2wyx56wtbs2BkMKZx2jRragpuutya1agZDiu7fu/bYt56aYw1rVLdbel5iXc5uYlUrVbTDx3Jt+Qcf2n2LXrOdHx+0h6/tZxc0qBfMVTYQMHGaTAmY+mQ+uPxNu/uV12z8Fy6zAZ9o43a87XmFz/uXLrNn3l1vj325n3U8q3EwB1IhYJ6u2e8fDvrSt+W73wr6IFEFzNXbdtioufPtO5/ubNUqVbKNu/fYP97fYg9ec6Ur8ANRSRUwNa7OvZNsct8r8kImNZlAtlAZ8st/fsru+nxPu+z85sHQ9Cx4b7Pd8fdF9tevXmuNa9YIhhbNqm3b88Lls/bjHt3sug7tLVElpcrBT65+x36+cLE9/uUBdlEZai3ENZjIWK9s2mwPLHvTXhlygw3q0M6FS9FOrQPDz6/oaf8zZ57t+PigGw6g7Hnjvx+4k0XqXtrwnh06diwYc9KWffvt2bX/jk3zwUcHgjEorjEvLrBKd/3SZr2zNhiCsH23jrIfPP+SPbh8ZTAEQFmnMuSvvvh5+9+5L+WVM98PhqamaTWP5i1uuNx3+LD97OVX7fZePeyrHROHS9Fwjb/7il6uJZ/mKyuyOmAePHjQRo0a5Tr1h82cOdMGDhxou3fvNlXi/u1vf7Nbb73V9u/fH0xRerRtPXv2tPXr1wdDyh8VMn/3z+V2T+9edm6d2sHQ/K5q09q6ndvUnl6TXuFI/2v9z1u1auU6//8/U/zncenSpcGQskOfRX0mJ0w4/bolfV4TDS+vli9/wy79bPd83dTf/TYYe7pn5zwTG//ee+/ZsG8PcY/pOHTokN35szvcOuNpmQWtN5P89vU3XNBU8/cxl3Z3tZcSfu6nKYj2Lb9/+66wx1ItI9F3RrZ584Nt9mJeoM/N+/4b8nTqn6ZK9N4WtN9rnI4Nosey9J76mk3VZO47fMSGzn7ePY9X0DFd3y1Dhgxxn72y9vrjJfrfJ3rNOEnvTbrHHU2jz0myskj4c4ToXNzsHPvDgC/ZD56bn1bI1DSaVvNo3uLSNZd1qla1K9tcEAw5Sc13r/rjTPcYpuka1ajh5isrqMHMc/z4cdu8ebPrjhw5EgxFadLOpZB50dlNgiGn05mdfp9oba+9v9WO5f0PC+IP4ir0bNiwwXV33nmn7dxZtDb45VHr1nnv9WuvZeUXnZq8+i7Vcz+sIF/o08fm/32BvfqPJa4b/r3vB2MKdv7559u0Bx50jxIOn4WldaZa7969e230j36YdqAtCZ8652w7v35d635uM+uftz8n6/w0Z6e47mXAgAG2evXq2H4+ceJE65P3//BhJ0qpCoeZ6vvPvmi/WPSaLc/7LHc++yz7TteLgjEFi39vx4xJ3MQ03qBBg2zSpElWvXp19zwTT0pNWLzUvvDYk1bxrl+6Rz1X0EzWjFb0enr06GEzZsw4LTyuXbvW6tSpY82aNTvt9ZdF4f/9vHnzbPTo0YTMBPQ5mDNnjl122WW2fPnyYCgyUbohM+pwqfLq7HfX2XUd21nlivljmK7rfPbrg067vlPTaXrNl6q8mykImHkqVqxoI0eOtMcff9waNmwYDEVp2nPosLvmqmre/6YgdatWtY+PHnUXRBdEQbJFixbuy9678MILXWhCenLyEv0XvvAFmzJlSpk9E19c/84LZL9Y8i9r/odH7LmNZedMYlmx59Ahe33Lf12z9/Bjcb5Qu3Xr5grEc+fOLXNBsCTc+tJC+92/lttf3n7XBs182h6++kqb8IXLgrHl0/V/fcbGzl9o8ze85240pUc9v2HWM8EUyXXp0sU2bdpkW7ZsCYactHDhQhc+y3KoTEbfmyoz6aQ88vOfg+uuu45jThmQKmRGHS5FrSJ2Hzxk7RudnjeS1WCKptd8mr8sIGAGdDY13GRSj7/4xS/cl4e6++67zz7++OSdDXX2Vc0f/vjHP9rll1/u5v3ggw/stttuc9Oq+cgNN9zgzvSJlqVl/+QnP3HL1JktnfnW8qZOneoKQJpnxIgR+Zro6kvrW9/6lhv37W9/27Zt2+bm+d73vmdjx46N1bbqUc/Dw8q6etWC4JhbcHDcezgIosH1mcnoxEGiQkCY/q+++U/4s+CbQSUap0fVYDz88MNunD8rr/+vPiN+nnDticKulqHhhW2+V9quueYa96gztMnEv1/+PdHZ7nAzMb3ua6+9Nvb6/XtZGu+HbvTju2TP5fDRXHvlP1tds8IfLljshhVWuAntd4YNzfs87ArG5K9RVM3lvffcbX987FE3baJmsAWJr/1Uv1+vmtW+++67NvSmG23Ja/+wr1//NTdMTW5L06Y9+2zSa/90d44OP6Y6gZSKTiypNkm1Sl6y/T2ehvv9VZ3fl/V5Vs3oggULrGvXrrHPebLPfya47aVX7L5XT9U6qTY4qptGhN9Pvf7wd1l439f7oe8qffdp2tKuBfv5K/+wGavesZmDro7VWKrT8yfeeseNL6gWU58tnbwM11bpM7NmzRpXHpD4Y19Bn6lMPUbG27hxo3v0n3d9B+r7zG+/H+5fY6LvOr1eP16d/ywke38k2X6bbPiZps9Bp06dXAiPP+ZI/Gt79dVXgzEnxb9vqh2PwsdHcu2GB95ynfq9wg7PRslCZkmESzmaV649mns8dilIujS95tP8ZUG5CJizZ8+2Dh06xHZYdfqCS0Yh7u6777Y333zT/vznP9vvf/97e/HFF+3RRx9112uKgsobb7xhzzzzjGsmpICpdbzwwgv2pz/9yT2fPHly7ItCnnvuOfvc5z5nL7/8svtS+tnPfuZqTX/605+6Qsqll15qucEH58MPP7QHHnjAHWjUtGbZsmX2l7/8xWrUqOHOiv7rX/9y6xCdRdSB+corr7QqVbLjZzvUPEA702vvJw+E+lfMeXe9XXJeU6tUoeCPsg72t9xyiysQ+i/AMH05LV68ONYEaPDgwTZt2jQ3Tv9rzafhGt+8eXObP3++Gyd79uxx4d83GdOX6I9//GN76KGH3DD97xo3PnWnW/1fp0+f7sb1798/8hpB3Sk2Z9x9CbsfzJ3vukTj1Pm7zCajs/E6EfLEE08kLOTodehaZn1G/fu1detW9/ls27at7du3Lxby9UWsfcwXzBS8tV+Ea5nPlPjmr4me37poiU1avtLmfWWAdWjYwL7evq0bl8iL8+ZZ789fFgt0Phzq8Xe//Y09O/cF13T2tp/cbrOffsqNi6fmrbfe9hP7+je+6abt0uVTwZjC03o//PCDWLPdr35tsCsUT3/oEet+yWftj0/8ycb97C6rVq1aMEd20ee2adOmsRqXgvb3MBUGhw4d6r4v/L6sWgl99n3NqE4Yarj2/YI+/6XtnrzP772vLgmemf30c5fY/X17B8/SE/9d6l9XovdT322J6H0aP368DR8+3E2r97E0TV66zD1+5ZOfcI+ef37/0oJP7Phmsnr9/jiu7wffPDZeQZ+pTD5GhmlbdbmED9CyYsUKtz+ovCLaD7TP6TWqU1N1/e998NNnR58DvX6N17wq3xT0/qhTv5/nl7/8pVtWsuFnmv7/K1eudO+L/1yoJtuLf23aX/S+qQwh8ccPdR999JGtW7fOjUfJUYD8fV6Q/OlLr7i7zKpTv4ZFGS6lcsWKrslr/A3tUtH0mk/zlwXlImBecsklrkD/2GOPxbphw4YFY0/39ttv20svveR2dB3wP/OZz9iXv/xlN0w1DFKzZk375je/abVq1XLPO3fu7GotzzrrLDf9F7/4RVeYCdcI9O3b122Lmhqq9kAHxDvuuMOFDIWWr33ta1av3qnfuVEQ0nKvuOIKt0ydCdMBSCFV9MUj+vLRF85FF6V3HU1ZoHD5vYu72C8WLrb/7Et846Vn1623pf/Zale3S17QD1NBRgdsHbxVSFKhSPSeqnCgQpFvztS7d29XMNQXgsKpwrv4Lw1/9lb0P9MZSW/WrFl2/fXXx5rf1q9f3xVCPX25aJhoPhUooqw50k+QnLjzloTd/8srUKpLNE5dOj9fotel16fXGU8FI70evX+i90vvq75k9ZrbtWvnCkmyfft29/n376U+xzrz6/8HmULh8t7Xl9mjb6+xZze8Z995cYFNuuxS+2kB71X8NZg+HC5dssSuvvoaq1v35O866lrLm4YMdf0lTf+bw8Ed6Nq1a5+1YTKVVPt7mI65Ojbrcyn6DOs47gv88Qr6/Je2RZtPnZm/6/JL7eeX9wyepS/+GkwdUxO9nxquAFkWqMlZQXblvb5UFCh8C5lE70dYQZ+pTD5Ghk8u3HTTTS7E+e84Cb9evx+Ey1nabr1uX45RzVz4u1DL0mUrqfY57aP+/bngggti8ycbfiYpXKrm3p8A0OdCNdn+uBL/2vR+6YStL/fFHz9E72GbNm2CZ0VXo0pFe/zbF7pO/V5hh2ezFnXrWO0qVVwzeXXq17Co1alaxepXr2bvFPJ3ODW95tP8ZUG5CJiqPerevbsLBr4LHxjj6WCuIPmVr3wldqZWZ99Uu+hrMHVA8OFSduzYYX/4wx9cyOzVq5dr/hNP81QOfstN69Dzli1buufxmjRpErsetEKFCvm+UHTw+vznP++aVujMl77MPvvZz8YKrdlAb7Ouw1y3a7d99oHHbObqNbFmcjqzNDavkH9LXvebfn2sUY3Cfdnqhgs606kvOJ1FVbjTyQB9Qfr/t5q8aRr/haVmXX6cvhST0RenCqr6Eslm+gJckheW4mtm9H75JoP+/dL7qvdE740+7yps6wtXZ2ZVM6xx6vyZ39KQqEms77/v9TdsyvK3XL+clfd5+2SjBsGz9OlzplrEpqVQ+6CA+73v/49d1feL9pWB15TqTX1KQ3i/TGd/9zRdfK2d9v/wCaawVJ//0vD3jZusxt2/trk3DLIvtW7pai1v/9xng7HFp/dTheKyev+CBinCmn4APRWVJ3TyWCHIhwSdnE4k1WcqU4+R4ZMLixYtKrAMpf1ANbjhk1gqw/hWBAV9Zgp6f7ROBVsFXA333z/Jhp9p+r+Ft903ofctnvTa9B4kO0GQ6H1D9lGLO/2u+5Or1rgmr+nQdJpe86VqsZcpykXALCwd4HXgUxMfFTp89+CDDyYMcWpSe/vtt7tpdI2lms1+97vfDcYmdt5559muXbvcl1Fh6aZEOqOnmlYV8lUbqlpO1YxmA4VL3SnrvkWv2b+++y2bf+PX7C9vr7Emv5zsmnF2m/ao1ahcyV779jet41mnmp4Whs5u6qSDDvg6mOsLQU10/Jn58JeowqU+E364mvUkE/4SzWZ6//Slr/dCZ9k97Tc6yRKu5VDn76Doz+iqeZXeU71X6tRMSGd+S6uQmqhJrLrJb7xl94d+A+8Hn+pkv+hRtCZ9+pw1aXK2bY3b599/P/Ut0qOgkKna1Im/nmR3/+KuchUyVTAX1Ryk2t/DFEh9U85wp6Z+iaT6/JeGRZv/YwePHbPa905yIXPEZ4re1DoRvZ8qFIfDuQ/0ZcHwT59s+RP/W6C6CZKcl/fa1FImFZ1Y1slenfhVLWSyGrRUn6lMPUYWhrZRAVJBMp5ef6LPjJfq/dE+qn1V5S19/4RDZqLhZ4pOCOj/Fn9c0YlsfS60T+i1xZ9s0nvgm8gmet803teAIntc0aqF+03L59b9OxhyUrK7yGq6HXlZQ/OVFQTMBHRQ19lHXSunAKifMdE1j+pUmxhPN9ZRDabGVapUKXYtQkF0MPz0pz/trsNUIFUg0bWb/kCTiubXF9ivf/1rV2jS2bJsEA6XMwZdbefXq2ttGzawPw+6xvbc+r+uGeeGUcNt3GWXWu1CNBPQl034C0cHbIVzHfBV8NN7mOhaSF9Q0nT+ub4sCqKChq6/1XUhonXpLGa2UTM4hXTV7nuqXVchKNlNgDRenZon+zPxer/0XIWo0mjWVJDXg+uc5ccXd7ExF38qVrNZFDqx9PTTf4s1tVfIm/9iwceKKLz895digVLvcd26p5riZzt9tvSTCmqKpn29oP09nr4HEtXUJ5Pq818adO3lLy6/1P4x5IZgSLT0fmrfDf9UhwK9anLKgrsu72lf69jevvzk39zvXvpOd9iVZf/9wK77y2x7Nq4gGE+fFX2P33XXXe6Ylkyqz1RZO0Ymou1XgAxf16zXq9et16/PjFqSKQj68KTvy7feeqvA90fD/HCFVP+9nGz4maTmr3rNeu1hej0KjSpLKkAqAPsTXtpfwjfx0XiVAcP3eNClKCpfIrvoNzB/pksVFi62P696x5V9E9Fwjdd0+l14zVdWEDAT0E6uWis1gVVzSjV90R3SdH1lIqrV1N1eddBQkwgFUR08C6LmsVqHbuyjayx0zaaCqW9Cm4oOZFqXDspaRjbc3CdRuIyK/qcqZCqIq1MTNtXA+RtM6P+sL+9wsxz9f/RFqCZuvjmd3vPatWu7eZLRMv1v7/l1aTnZSNeH6DphT69z3Lhx7kvTv4/q/Je/xqtwr33GfxHrf6PPcUGFspLmm8T68PinNWvtggcesz9e+QW7/LxmrtZy1KcuSjtcxt/kx9+h9ap+/d01mGqqquGPPPygu+FOMpf2/Jy98cayfDcKSuTm//l+bF2Jpq2XVyjVnWI1Tuu+4etfd9d/6v+gO2Fnyl1koxDfvE5N6+JrJ5Pt7/FUmNfw8LEjfDdMLVO1VdrH/fGioM9/aTj80x/ZTz73WbuwSdFae4TFv7f+hmmqXQq/n2oqWNA1mL6JfWm/N96ML/e3e6/4nH3+/JPB5Nw6te2OXp+1q9qcPHG7ee8+++ZTz9oTb73tnieiz4pOuOl4qFCRTKrPVKYeIwtDr+Hee+91J2f9a1SY1L0wfEDWPqjvVd+cXM1bNV9B70/4e1yfNZWz9H2bbPiZ4oOi1qvXEKbXo2OEgqKOF7r5n99WlRHU+WswNa3eo/Dxo2PHjpFcg4nMoxZ4qjz5w79W2LV/+qst+c/W2KVgetRzDdd4TVfUFnulJeeEv6gQZYr+bY8++qg7aOnaT12zGZU/zZprXxvYN3h2ZpRkuMQp/i6x6dzMp6zZ+sG2oK/4fr1shf0q76Bes3JlW1tCNT/ZpGkxf+rie3NesGvatbUvtk58TbqkMw2QLtVSFvTzI97/PPei/fafJ28w07hGDdv24xGuH0B20W9PXvbQE7YmuPlOu0YNbcFN15/WXDVquqHQSxs22cTFS23plq2299Bhq1utqnVr1tRG9+jmmsVWKIOXwBEwyyA1t/jHP/7hfkpF1/voes8or7880wGTcHnmEDDTc/60R+2HXS+yPi2aW7uGmd8krbQVN2Dqhl3n1a1z2k9FePoCHvPiyzasa2f7XIvzgqFA0SlgpkMh9GcLXrU7F/7DfnNlb/v+xdFewwoA2YiAWcaoKYZ+PkVNkBQs1TRX1xxE6UwHzHe277QfzH3R/jCgL+ESRRZlwEThFDdgbjvwsWsGpJsYJKOzyUM/dZH7HTAAAJC5CJg4TWk0kQWKi4BZeoobMAEAQPbgVDAAAAAAIBIETAAAAABAJGgiCyAr0ES29NBEFgAAeNRgAgAAAAAiQcAEAAAAAESCgAkAAAAAiAQBEwAAAAAQCQImgKxQoQKHs9LA+w4AAMIoGQDICnVq1STsnGF6v/W+AwAAeFn9MyWr3lkX9AEAAABAduvYvk3QV3r4HUwAAAAAQCRoTwYAAAAAiAQBEwAAAAAQCQImAAAAACASBEwAAAAAQCQImAAAAACASBAwAQAAAACRIGACAAAAACJBwAQAAAAARIKACQAAAACIBAETAAAAABAJAiYAAAAAIBIETAAAAABAJAiYAAAAAIBIEDABAAAAAJEgYAIAAAAAIkHABAAAAABEgoAJAAAAAIgEARMAAAAAEAkCJgAAAAAgEgRMAAAAAEAkCJgAAAAAgEgQMAEAAAAAkSBgAgAAAAAiQcAEAAAAAESCgAkAAAAAiAQBEwAAAAAQCQImAAAAACASBEwAAAAAQCQImAAAAACASBAwAQAAAACRIGACAAAAACKR1QHz0OEj9ouJU12n/rBn5y20EWPvtj1799uJEyfshb8vtl/e/6B9dODjYIrSo2278fu32nubtwRDik6vT6/za0NH2+o164OhJ2n5Ws/yt94JhhSe5r32GyOLtQwAAAAA2YEazDzHj5+wrR9ssw+27bSjR48FQ7PL4SNHbMZfn8uIAA0AAAAgOxEw81SsWMFuuv5a+9XPf2z169UJhmaXZuecZe9v+a8tePV1V2MLAAAAAFGr+LM8QX/WOZaba/94fbnr/2y3LlapUkXXL+v+vcnWb9xsn+/ZzapVq2pTH3rSHv7T3+yzn+ninu/dt98eePSv9uvfPmJ/mT3Ptu/cZR3atbbKlSu5Jqx3/+r3eUHNbMLkB+2DD3dYi/POsd9O/5Pd/4fH7fG/zLF/Ll9l7du2srp1artmqqPHTbS33/23vbHyHfvdg3+yzh3bWdWqVe3Ps+ba+Lxl/PHJZ2zN2g326S4dbdP7W11z1jatWthvHnjCLXfl6net84Xt3Lb/fOJUe/2Nt6xb1wvzwnFFO3r0qE2c8rAtXro8NsxT0+C/L1pqHdu3sS6d2tszLyxwy6lX9+R2KXB2v/giO6dJY8vNe780rZb1wGN/ddMeOnTYPtHmfKsULHPNuo1276QH8t6vP7vXWLtmjbxtW2u9elwcW4aaG9+XN82jf5pty95cbZ9o3dK9Dzt27rZf/+5Rm5z3Hj35txds5649blsqVuA8BwAAAJANykXJftmbb9vgb4921wr6TgEqmY8PHsoLdjNs3YZNds/tP7BbRn3b/rVitc165sVY7d++/QfsnbxAOGXCT2z4TdfZth278wJhc/vNL39q48Z8Py+87csLWE/nu/bzX8tX22c+daE9eP8v7Oy8MDYpL2y9uOAfdtP119iU8T+xT3X+pGuuKx8dOGiz5rxo3/zaNfb9IV+zDe/9x5578RWrUb2aC2Vr//2ebdu+y0275b/b8oLfBhfyKleu7IadLsf6XN7DGjao5wKzQmmYXtfzLy22B/84yz7/uW5ue74y4Av2zPML7Im/PJsXHI+79fz6Nw9blSqVbfy4H9r1X77SBVLPL+OxP8+2rw/q75ZRKy+ATskLyTt377WHnvibfbBth5t34l2j3TgtFwAAAEB2KBcBs1WLc+3HN99kt/3wO7HuC5d/Nhh7uvUbNrtauW9/4yvW6vzzXKC7LC+8qcZu/0cH3DQKctdceYXVrFHdPe/Q7gK75qorXIDT9Bd3udA+2L7T1QB6XTt3cLWIOTk59u+N79vyt9bYsG8Ost69LrFmTZvYgC9dbnVq1wymNvvGdQPccnt062KtW53najYVWLvlhVR5Jy9Uimo7G9SvZ5/8RCv3PBkt+8avXW3L8sKyXkuYXte8lxfnretTdu1Vvd326PX1/UJPW7pspe3avcfeenutC99Dvz7Q2rY+372e67/SL1jCqWV88YpL7bJLL7Zzzm5sX+7fxza//1+37V6FChWsxXlN7evX9beqeWEVAAAAQHYoFwFT11V+6qIOeaGvY6xrce45wdjT6VpF3RTnjnvvj9V4zpoz33KPH4/VMFavViUvXFZz/bJr915X0/ejn06wb/3PT+yFv78ajDmldq2aVrlSJdevdWgZ5+YFuURq1aweux60QsWKVq1qVdcvqv38VKdP5gXFt11N6vKV71inDm3d8lNp16aVC9d/fup527bjZA2o7Nm3P29ZH9n5zZu6a1JFQbhRXmA+mBcqD3x80P6z9QOrl7dNjRrUd+OlevVT26X3QDW3f3v2JRv4zR+49+2nd/8/917mLcq+8dX+1rB+XRt9xy/tuz+8095c9W4wJwAAAIBswMVvCZzX7Jy88FfVbh893B6acnesu+eno6xunVrBVKeoVm/S1Mfs7XfX2w++9w3XNPSLn+8RjE2s6dlnufl059rCUgD83Gc/7X5m5I2Vb9vmLR+4Wk4FwlQ0b/8vXub6n/zb87G75tarU9vq1K6Vt8ytsWaravK6Y9ced/2krtk8q3FD258XQhUiPV1H6TXIC4/16tZxNbnh902drgE9+6xGductI2zqr8e5YD3t0b+45QMAAADIDgTMBM5rdradkxcAZ86eZ9u273RBa9U769yNdhKFuGPHjrmbAlWoUNEqV6xkb6/992lNUOOd37yZtWxxrv3+4SftpYVLbMvWD2328y+7Gsl0tMybv1atGvb4zDl2wfnnFVgjG69Rw/r21Wu/ZBs3bbGDQRNe1X6qZnfRa8vsqWfnu+2ZO3+RzX1xkbtuVCHzk5+4wIXPh5/4m6399yZ3U6E5Lyx080vNGjVc8+C/v7LEVqxa4943vX96fuDjQ/aXp+flheH/WoW897B+XhAFAAAAkF0ImAmoaaqu2VQt5m2/+H/27R/cYU/Nme+ur0xE4WxA38tdjeLNt9zjgqhq7Aqi6yHH3Dwkb7rWribvB7fdZ2vWbsx3p9uCKFxecnFnd2fWrp0/WcDNfRLr1rWTu67UU3BW6Pzm1wa4YDli7N3212d0k6EBbrjGK8iO/O7XbeuH2+22n0+yN958267u+/lgCSdrR6//ylXuZkJ6TUNu/qmNnzw97zVVsmpVq9j+AwdszB2/su/878/s/a0f2M3fucEa54VdAAAAANkh54SqmVDm6N+mAPjyotftZ7f8D0ENAAAAQKmjBrMM+uijj23hP/5lzzz/sl1y8UXuRjwAAAAAUNqowSxj9DMlE+9/0Fa9s976fbGXDbrmi1a1SpVgLAAAAACUHgImAAAAACASNJEFAAAAAESCgAkAAAAAiAQBEwAAAAAQCQImAAAAACASBEwAAAAAQCQImAAAAACASBAwAQAAAACRIGACAAAAACJBwAQAAAAARIKACQAAAACIBAETAAAAABAJAiYAAAAAIBIETAAAAABAJAiYAAAAAIBIEDABAAAAAJEgYAIAAAAAIkHABAAAAABEgoAJAAAAAIgEARMAAAAAEAkCJgAAAAAgEgRMAAAAAEAkCJgAAAAAgEgQMAEAAAAAkSBgAgAAAAAiQcAEAAAAAESCgAkAAAAAiAQBEwAAAAAQCQImAAAAACASBEwAAAAAQCQImAAAAACASBAwAQAAAACRIGACAAAAACJBwAQAAAAARIKACQAAAACIBAETAAAAABAJAiYAAAAAIBIETAAAAABAJAiYAAAAAIBIEDABAAAAAJEgYAIAAAAAIkHABAAAAABEgoAJAAAAAIgEARMAAAAAEAkCJgAAAAAgEjkn8gT9AAAAABC5qQ89aS/8/VXX3/WiT9rom4dYtapV3HNkFwImAAAAgBKxZ+9+++k9k63vFZfaVX16uWHvbd5ihw4fsXZtWrrnyC4ETAAAAAAl4tl5C92jD5fIfgRMAAAAAMWiGsmJ9z9oy9582z2/Y8z3rH3bC+y302fYwH697fzmzdzweKrNHHffFNu3/4B7rvm6XNje1XxOmfa4fbZbF7v/D49bs6ZN7PYfDbdpj8506wg3s1Xz27atW9isOfNty9YP3TK2/nebPfDYX61O7Zp25y0jYusPN9X99je+7IKvX1fzc5vaS6+85qYXv11a9y9uG2n16tZOOD/y4yY/AAAAAIpM4VJB8uvX9benHptsD0252559YaF9uG2nffzxwbxgVieYMj+Fy4lTHnKBzs/35FPPu+Hywfadtnb9JjdOTWzH/GyiW8eMBya68e+s/bd7FIVLhcD/u3usTfrdo26Y5rvumi/Z8y8tds8VDrt9+kI3XMt4d/17+dbVsEFde+S397rt/f3DT8a2a8r4n8TCZbL5cQoBEwAAAECRHTp02DZs+o/970/G27XfGGk3jfiJrduwKS94HrYaNarbnr37ginz2503vG/vnrHaRYW4S7t/ylavWe+en924oX1tYF/X3/Scs+ySi7u4aVVr2ahhAzfcG/r1gW5+hcM2rVpYj26fcsM1nygE79i5y+6a8Du3jYO/PdoWvbbMbYNoXX6ejZv/Yy3Oa5av1jXV/DiFgAkAAACgWBTQVAOp2j11qgn8ROvzrUb16rHAWNoUdlXD6bdRnZrjxlPz2vOaNQmenZLu/OUdARMAAABAkVWrVtU9Ll76hnsM+9IVPezJvz1vy996Jxhirl9d/bp1bO78RbFmproW8tUlb1iHdq3d8yip1lNh1zeXLYjWH94uKcz85R0BEwAAAECRKXyNGHaDzX3pVdd8VN0vJk51zUrVzPT/3XubTf/jrNi4pf96y9X8adzQb3w5X9Pa6679Ur6mqVH61vXXuGaufjtGjL3bhdp48dvlp0t3/vKOu8gCAAAAACJBDSYAAAAAIBIETAAAAABAJAiYAAAAAIBIEDABAAAAAJEgYJZxx44dszfffNM9FiTd6QAAAACgqAiYZVylSpXsyJEj9uc//zlpeNTwp556yg4dOmQVK1YMhgIAAABAtAiYWeDiiy+2tm3bJgyZPlw2b97cPvOZz1hOTk4wpuj0m0b6baOpDz0ZDDlJvwOkYRpfGJr+1799JN+P2aaidWkb9KhOv0Pkf5NIXfy2AUistPYfrePZeQuDZ+kr6nwAgJKz/K13En536HitTmW8W+/6P/edk0h4vJ8nkYLGIXMQMLNEopBZEuHSq1Gjuq16Z607oGSCsxs3tIem3G1PPTbZdeJ/4BdAwUpj/xl+03V2VZ9ewbPk4gst6c4HADhzWjY/13bs3JUvQOo75N3171mHdq3t/ObN7N47/tfq1a0djM0v1XiULQTMLBIOmWoOW1Lh0hvY/wv28qLXMzLEqRDaqGEDe2ftv4MhANLF/gMAKAwFQ31vbNz8n2CI2QcfbnePZzdp7B5RfhAwyzjVUq5ZsyZWa+lD5n333ZcvXMZPF4VWLc61GtWr20sLXwuG5KfmDjd+/9ZYs7twbaf6/fDfTp8RDD0pPJ+a7iVrTpFKt09faEv/9VbwDEBhhPefZPtkeD8O13iqxtEPV1MmTa/xj/5ptluOlqdpNL8f9/dFS/PNIxp/14Tf2Qt/f/W0+UTr07x+vnBNp/q1TN/8NzwOABC9+HLX6jXr7ROtz7dqVau447cuh9JxO9F3R3i8HDx4OHZ8L6gsqGO7XxZNZzMHAbOM0017tm/fbnPnzs0XMn/0ox/lC5eqzdy7d2/kN/n52sC+9uqSN9yBIUzPJ055yO68ZYRrcqfmd08+9bwbrm76Y3+1/7t7rBt3ec/P2Jur1sTmmzVnvv3+/+5044Z+faD9adZcNw7AmZdsn1QhQC0Y/H7809HDXSHCf8FrmDrfnPWD7TutYYO69shv73VNocI0bu36TW56HSv8MaXLhe3tjjHfsy9+/tLT5tP6J97/oHXp1D62LgkXMLTdv7htpFvmpvdPHnsAACUj3ExWx2jfPDYs2XdHvGdeeNm+fl1/N03fKy5NWBZUuFSo1TQzHpjo1sdxPjMQMMs4BchLL73U6tWr50KkD5m1a9fOFy5LqqmsmkRcd+2X7PmXFgdDTtq9d5/17d0zViDUdJd2/5Q7mxU/rn3bC+yiju1cv8Ytem2ZDf72aHc2SrUXOlj5M1qFdV6zJkEfgMLS/pNsnxS1YJj4m4djZ5Z9geJLV/Rwz8N0nWePbp8KnuWncTpZJeFjRUEOHTrsmmNd0euSYIi59Wr9/nihMKzlqWtxXjP3WgAAJUPHWt9MNlnzWIXJ+O+ORK675kuxcqK+OxJd36lh+k7Sd5O+o/RdxXE+MxAws4APmWeffXa+kKlHXY9ZktdhigKidvI3Vr4dDCnY1v9uC/oSU22Fr5Eo6OxWQXTgefaFhdb0nLOCIQDSFb//JNsnda2magh/es9k15Rp776P7OOPD+YVMuq4+QAA5YtvJquThGqhlqj8Fv/d4U8KFpZuOOlrQn2nli8ofQTMLBEfMnWTH4XL1q1bl2i4FB081Izhhb8vto8PHnTD6ucVMOfOXxRrqqCzTmr2pqYS6tTvz0TpRiK+iazm091pi9PEQQcqNZ3TWTQONEDhxO8/qfZJnbGeeNeP3Rf9wbz9X/MVtlm7msj6G0OEjxUFqVatqjuxFb4GXC0p/PU+AIAzT81kdUnC8pXvuP5kwt8dvrYzTPP74Ll46Rvuu0XzeDrOqyY0vgUdMgMBM4uEQ6Zu8nMmwqWnZgw6kKj2wj8f+o0v2//+ZLxrunDTiJ+4prQark5N4DRM49QW3zeRjZ9PXToXbauA6penZhK6LktnyACkVtD+k2yf1Be/vwGD5lGw07Tfuv4aF/zC06aiJrKqMdX04WOF6Liyas262E1+PBUuRgy7wea+9GpsXcJPmABA6fGXJMQHQi/Zd0c8Bc/v/u84N53Cpr5b4sV/3xTnxpCIVs6JPEE/soT+pfv27bM6deqckXAJAEWlwsCUaY+7sJioMAIAAMoWajCzkEJl3bp1CZcAAAAAzigCJgAAAAAgEjSRBQAAAABEghpMAAAAAEAkCJgAAAAAgEgQMAEAAAAAkSBgAgAAAAAiQcAEAAAAAESCgAkAAAAAiAQBEwAAAAAQiaz+HcxV76wL+gAAAAAgu3Vs3yboKz1ZHzAz4U0uirK87UBZUl72NY4pAIDi4rsks2XK/4cmsgAAAACASBAwAQAAAACRIGACAAAAACJBwAQAAAAARIKACQAAAACIBAETAAAAQNbavXu3rV692lauXJmy03SaHkVHwAQAAACQtbZu3WrHjx+3nJyclJ2m0/QoOgImUjp48KCNGjXKWrVqZQMHDsx3Vmf9+vXWs2fP2PDwtOFOw3bt2hUbN3PmzGAJp5ah4UuXLg2GmptGwyZMmBAMARAFv5/G78+i/XHIkCGcvQUAZI3c3NygL7lGjRpZtWrVXH860yM5AiYKZcWKFTZ//vzgWeFUr17dmjZt6vo3btzoHmX58uW2ZcsW179w4UL3qALw4sWLXX+vXr3cI4Do1K5d206cOFHk/RkAgGxRv359q1q1qntULSaKh4CJQps8ebKr5UhlxowZtmHDBtdNmjTJBUwfFtX0QCEyHCTFDz906JBt3rzZmjVrZg0bNgzGAojK/v377eqrr7Ynnngirf0ZAIBsVKtWLatRo4Y76bpz5073iOIhYKJQhg8f7mobp0yZ4oJgYSksKjQuW7bMLccHycsuu8x1frh28O3bt1vXrl3d9ACi1759e7v++utT7s++ubo636w2vimtHjXON3PX8tQMN9zsHQCA0lahwqn4U6VKFatbt67r37t3rx05csT1o3gImCgU1UAqZM6ePdvmzJkTDE1s8ODBsUKpv+ZSYVGh0YfItWvXuma3ffv2tXbt2sWGq1O/mtSq5hNAyejXr597TLY/a99VKwPdVU+tEbRfT5s2ze3LderUcfuw+H3ZN3PXySNp27atewQAoLTVrFnTmjRpYpUrV7aKFSvGWsnppOiBAwdcP4qPgIlCUy2FCpdqAqsgWBjh6zBVc6lOmjdvHms+Gx7O9ZdAydI+OWLECJs7d+5pN/bRF67CpUKlP9HTu3dv15RdAbJHjx6xfVWPd9xxh2t6q/kUOLWv63oWAABKm66tVMBUDaZu6KNO/UePHuXGdhEjYKLQWrdubSNHjnS1Fffdd18w9HThazAHDRoUDD0VGvVbQyq8du7c2dVy+OazKuiqUz/XXwIlT/u0WhCoZjLMN2EPt0ZQCwQ1ZdfJJZ0Y0j6sL2bduKtPnz5uPrU+UE0mJ4gAAJlC11bu2LHDBUoFy0qVKrlh+pUDrruMFgETRaJmdQMGDLA333zTFSYLwwfJVatWuYJq9+7dXS2HhqnwumDBAtdx/SVw5gwbNsyWLFlir776ajDE3O3aO3ToYPPmzYudLFK3aNEiF0p1Ymjfvn322muvuZskqMayU6dObhmqyeQEEQAgk+g3LhUyjx075p7rZKnvR3QImCgS36yuoAAYrvUI/96eD5I+nLZs2dINDzefFTW/883yAJQsneQZO3as3XXXXbZnzx43TPufAmOymwBpHtV86jpN7dPSpUuX2HWYnCACAGQaHzL1XXf48OFgKKJEwESR+aayhRUOkiqAqkDqhZvUqfkdgDOnW7du7iZeYWrerv1VNZn+hNGECROCsSf3Wd15z9/MR7WWeq5gygkiAEAm0A19wnJzcwu8qU/89CicnBNZ3Oh41TvrrGP7NsGzsqUsbztQlpSXfY1jCgCguMrqd4la0ekGdQqWqShcltWb1GXK/4eAmaEoDAJnRnnZ1zimAACKi++SzJYp/x+ayAIAAAAAIkHABAAAAABEgoAJAAAAAIgEARMAAAAAEAkCJgAAAAAgEll/F1kAAAAAKA8y4S6y/ExJhuI20MCZUV72NY4pAIDi4rsks2XK/4cmsgAAAACASBAwAQAAAACRIGACAAAAACJBwAQAAAAARIKACQAAAACIBAETAAAAQNbavXu3rV692lauXJmy03SaHkVHwMwiR3OP22vvb3GPAAAAAMy2bt1qx48ft5ycnJSdptP0KDoCZhapVKGCbd67z37z+rLIQ6bO5AwcONBatWoV6/Q8/gzPhAkTYuOXLl0aDD3JL6Nnz562fv36YOhJiZavTsvzwsv2Xfw6AKR28OBBGzVqVL59KdF+CQBANsjNzQ36kmvUqJFVq1bN9aczPZIjYGaRnByz6zq0t3Nq14o0ZCr8DR061FasWBEMSUzTLVmyJHhmtnDhwqCv+BQup06dGjwDEIUZM2bYhg0bXLdo0SJr3bp1MKZkaD+eOXNm8AwAgMxQv359q1q1qntULSaKh4CZZUoiZK5du9aFy86dO9uyZctiBdKrr746mOKk+fPnu+luuOEGa9asmQub8TWcqWi+efPmxdYxZsyYfME1XCBWPwAAAFBUtWrVsho1atiJEyds586d7hHFQ8DMQiVVk6nwqBDp3Xjjje5Mj6jJ3eLFi13/FVdcYV27dnXTK5xGSaFS65Ju3bq5DkA0fNPZcNPz+GF6TNSsVieChgwZYs8995wbrvG+Gb1fhlohjB07NjafxoWbxlO7CQAoaRUqnIo/VapUsbp167r+vXv32pEjR1w/ioeAmaV8yDyrZk2bUsyQ2alTJxswYIDrV+EwUUFwy5YtrnZTtZwXXXSR9ejRww0vbDNZLadPnz6xAqcKswqxgwcPduNnz55tHTp0cIVVHzQBFI32K7+vaZ8S7bvh/VZ31BMdB7Q/jh8/PtaSYeLEiTZlypTYvrhnzx7XAkGd7sLXvHlzmzZtmlWvXt0mTZpkw4cPd/P75rgap23QsjR9u3bt3HIAACgJNfPKxU2aNLHKlStbxYoVrWHDhm64vscOHDjg+lF8BMwsdjj3mK38cJu1bdjAKlcs+r/aFw5VMPQUNMMhb/ny5S4cdu/e3QXCLl26FLmZbCKDBg1yhVYtUxQ0FUS5KQlQdOEm59rHta9r312zZk1sv1XYVOjUOPUrEPqWCwqdtWvXdvu+1KtXz0aMGOGmVadpdSe+gk4Gbdy40T1q+gsvvND1AwAQNV1bqYCpGkzd0Eed+o8ePRpJWRWnEDCzlGos71qw2Hq2OM+uantBMLR4FPLC1z4q5Kl2Q4VH3zxWTeBUG6Lwp0JnYZvJxl+DGW4CqxoP1Xz4mlItf9asWcFYAFHQfqaaRO23+sJVQOzdu7fbz9XvWzGoU2uCxx9/3F2zUhS6xlp8DWpBQRQAgOLQtZU7duxwgVLBslKlSm7Yrl27uO4yYgTMLKRwOe7lRdaj+bmRhEs1iws3iW3btq0LeJ6CnkJfMsW9m6wKubr7pC98qvZENaUASkavXr3cfquQ2bRpU7fPqYZR/eFaz0QnggpLIVPLUC3prbfeSsgEAJQY/calQuaxY8fcc50g9f2IDgEzy0QdLr1wrYW/gY9CpsKmbx6r6zR1HZUvdPqazvhmspo2fJ2lai4OHTpU4DgtQ7Ulfrj/yRIVhAFES/u1aiu1D4f3MfWrqXwUTYkUJB9++OFYoNT1mgAAlDQfMnXfgMOHDwdDESUCZhYpqXCpC6D9tY+ewuX06dNdvw+S/jotz9d0xt99trD0u0SJCp9aL3eRBYoufJMfdf5OsaqxVG2l6DpLT/ub5tFJJj9PYZq26o6xkydPdneR1cmkbdu2xU4cKbiOGzcu3zEEAIAo6IY+Ybm5uQXe1Cd+ehROzoksbnS86p111rF9m+BZ2VKUbdd/cvehQ9agerVgCIBUyvJxojDKy+sEAJScsvpd4u8poGCZisKlvzykrMmU/w8BM0NRGATOjPKyr3FMAQAUF98lmS1T/j80kQUAAAAARIKACQAAAACIBAETAAAAABAJAiYAAAAAIBIETAAAAABAJLL+LrIAAAAAUB5kwl1k+ZmSDMVtoIEzo7zsaxxTAADFxXdJZsuU/w9NZAEAAAAAkSBgAgAAAAAiQcAEAAAAAESCgAkAAAAAiAQBEwAAAAAQCQImAAAAgKy1e/duW716ta1cuTJlp+k0PYqOgJlFjuYet9fe3+IeAQAAAJht3brVjh8/bjk5OSk7TafpUXQEzCxSqUIF27x3n/3m9WWRhsyDBw/aqFGjrFWrVvk6DdM4b+bMmfnGDxw4MOEZoETLmzBhQjD2pKVLl+Yb77v4dSYTvy16Xhjr16+3nj175luGnmu4JNu+ROuJnza8nHh6HxJNq/dR72d4nDr/vsW/Xt9p3eHx8f8Tv7749x/ZLdE+WNDnsrj0mRsyZEiBy9c4v88VZVvi9x11/vMPACjfcnNzg77kGjVqZNWqVXP96UyP5AiYWSQnx+y6Du3tnNq1Ig+ZBfGF1bFjxwZDTlqxYoV17do1XyFPhcY+ffrY7NmzgyEnTZ06NWkgDdN8HTp0KLDgqHHx2zJ58uS0C6wKY9rGLVu2BEPSp/WGQ6YKvYMHDw6enaTlavnh6XzhWu9DlLRuvR+9e/e2zp07u//J/Pnz3Tit85lnnrFmzZq59x7lz4wZM2zDhg2uW7RokbVu3ToYc2Zpv7/nnnvsoYcectsyceJEmzJlSlonk/zJF/GvRZ1e2+bNm91wAAAKUr9+fatatap7VC0mioeAmWVKOmSGC6STJk2y6tWr2/333++Cn4LKvHnz3Di1Xx8wYICbZ/z48a4QqG7MmDEuYGmcptG0mkfzKvxMmzbNzeMlmk60HckKn75QqfVqvuHDh7t17ty5M1YYTVYTGg6nmk/z++7WW291w8PC26fpZePGje5RAdIHxvD75qfzoVfbocK0tlEhcNmyZUnXGX6P1en9DPPbHH7/9X7ogOmD7uLFi906ly9f7tbZv3//UgsWgFenTh1r2LCh69dj7dq1Xb/2kdtvvz3p/q5jhj7b8ftCt27dbNCgQcEzAAASq1WrltWoUcNOnDjhyop6RPEQMLPQmazJVGBbsmSJ6x85cmQsqCh4jhgxIhYc165d6zr1a5jGaRrRPJpXtCwtMxFNp5oNUQhTOErE19YpKKqZnEKewlanTp2CKRJTAVZBUBTU4gusV155ZdIgpnl9e/2WLVu65wpyomWpsOsNGzbMbZ+2XyFPF5T7gK4aT4VBr6B1FuTQoUOxoN28eXP36N8Xrevll192r1XrpPYS8XSiJdzUNL4JtT9R48erP7zf6vMfboLr96tk9Jlv2rSpC4tajva9fv36xY4RySh8rlmzxn22C6Jlqonuww8/nO/1pHqd8a8jfGLKNztXF379WqamUyjWuFmzZrl1h98fbfe1117rHgEAZ1aFCqfiT5UqVaxu3bquf+/evXbkyBHXj+IhYGYpHzLPqlnTpkQYMlVT4AtVKmDpTM/27dtdUOnSpUsw1UkapiayorDjA4+GaVyY5tUwLUvLTKZt27axcJZsOrWf96FKNP24ceNcYdWHXBVm4wuv4VDWq1cv9xguRKqLL4D6Jrvq1K91qbCbaFmeCtPdu3d3/artLOh9iafXrea1fntUmA1TmNZwLUuvMxysw7WYCvgaT+0l4ukzNXr06HytEXTyxDfpVlAaOnSo+yz5mnT133nnnS58qVPNe48ePWLjP/roI1u3bp2bPxmdmNHnV59dLc+flNF+rtrMRGFT41Tz6a+ZKciePXts27ZtbnsUYFO9zkSvQ/ueaBqdQPKtF7S94dYXOhYoIGtc37593Tbq2OPpxNIll1zCvgcAZ1jNvHJxkyZNrHLlylaxYsVYyxkd8w8cOOD6UXwEzCx2OPeYrfxwm7Vt2MAqVywf/2rVCKgQqBpOFRzVKbSq0KpC4cKFC9108aEvCgpzjz/+eL4ayNKkmlPfjNnztZiiMEvtZfmmYORPVvjaOe0j8a0RNJ1vWq2gpBM4ClCePlf79u1zJ0DUqT9cq6ha+zZt2gTPTqcTNzrZ4oOc+v326ASMwme6tCz/msInhOrVq5fv857qdaplgYRfp1oUiKbRtH7f0mtVOPW1lOETO365vlm/Os1fEscgAEByurZSAVM1mLqhjzr1Hz16NF8rExQfATNLqcbyrgWLrWeL8+yqthcEQ4svfC2hrm/SmZ/GjRsnrFHUMAU9UYHU1yqqwKgavjB/PaCW5c8mJRJuZptoOjVH03J8wVGdQqYKfGoyW1Bz2XDNpw+ieo16rbqeMxEtS7UYCnOqtdD1qBJelq+h9HQQ882KVXD20xXU7NfT6/Y1LurCTW9F2+Gvv9Rr9bUxXrgWk9pLhPdnnYwQBSX/mfS0ryk0+pr5+BYA+ryrlk7HgMLUKopv5qoQ6qmGUevQTX8UxsJhNSy8XZ7mLWifFYW8orxO8eO0H/kgqxNY2n/jj4GeWl6EA7hqZFM12QcAREvXVu7YscMFSgXLSpUquWG7du3iusuIETCzkMLluJcXWY/m50YaLhMJN/dUczN/TZEKcP7GNT7Q+eatCoi+OZ1oHt3wRlRoS1YDqOm0DkkVjnwthPgCoYSby8bTMDWHk0ThrCCqGVH403xqehdeloJtuCmrmtLpPfDNacPNflU4Dp9Fe+6552Lvabq0bh8iC3P3XECfHYWq+JMios+3P3GicOb3L0+hSQEtUehT8Crs2WEFTt3xWPtRsmOCtim++Wk6ivM6NU5N4sMnetQVdBdebX+7du3ciTR1Oh5qGwAAZ5Z+41Ih89ixY+65vp98P6JDwMwyZzJceuGb1vjrA/01iSqs+Rv6qJDl79Dqr13UtJrHB9FwczRJNJ3WFa7tCPPNzsLz+esRRY96ruGJAqTWr+0Qf5MgdX67k1HB0t+oyN81N7yscG2HQqhomXpPwu9LePvU3XvvvW64F36P1YVvOhKmmk3VZmr6dH/uARDtQ+ETE/rs6DPkQ5FOiCiYzZkzx40X9e/fv9/t7wqYut7R/xyOqGWBvtAT8SExPL3WqZNQ2h9Uy5osnGp7dHzRiafCnBCSorxOnfARTVPY/UonoTT/3Llzk9bIAgBKng+Z+q46fPhwMBRRImBmkdIIl6KApAKkAk2YwpXO8ofP6iv4qCmZQmKYQln89YKJaB1al9aZiJavdarQGuabAhbUbE60fm1Houn0em6++ebg2elUaNTrUqFYtZTJlqVp9B6Em7cme19SNRkuiK9VVdgOF5KBguizqLs1h08WqRbR/+SH9r3p06e7fcqf6FCLAZ0M0Wc+0fiOHTsmvQZT86hVQXh6rVMnZbTP6lEnXfR5ThQ0dXzRZzw8vzo9T3YiSoryOletWuW2V9OoBtSfxFIXfwOweNoXdadC1WQmO34BAEqGbugTlpubW+BNfeKnR+HknMjiRser3llnHdsnv7FEJivKtus/ufvQIWtQPb1rnwCU7eNEYZSX15mpVNupu9IqMIdPLgFAWVJWv0t0glKXPShYpqJwqZOIZfFkYKb8f6jBzCL6aRLCJQBkHt+KQM1rAQBnlsKiWp3oGJyq03S0NCkeAiYAACVE13j27NnTNbVNdoMxAACyCQETAIASomtEdYfZgq4dBwAgmxAwAQAAAACRIGACAAAAACJBwAQAAAAARCLrf6YEAAAAAMqDTPiZEn4HM0Pxm3XAmVFe9jWOKQCA4uK7JLNlyv+HJrIAAAAAgEgQMAEAAAAAkSBgAgAAAAAiQcAEAAAAAESCgAkAAAAAiAQBEwAAAEDW2r17t61evdpWrlyZstN0mh5FR8DMIkdzj9tr729xjwAAAADMtm7dasePH7ecnJyUnabT9Cg6AmYWqVShgm3eu89+8/qySEPmwYMHbdSoUdaqVat83cCBA2NneJJNo2EaFzZhwoTY+KVLlwZDT/LjZs6cGQw5KTxcnZ8/UTd//ny3beoPL2f9+vXWs2dP16kfKK8S7a+J9lUAALJBbm5u0Jdco0aNrFq1aq4/nemRHAEzi+TkmF3Xob2dU7tW5CEzkRUrVtjQoUML1YxA0y5ZsiR4ZrZw4cKgLzq1a9e2wYMHu/4ZM2bEtm/WrFm2ZcsW69+/v7Vu3doNA8oz7R8bNmxwzYFkzpw57rEk6aSPThgBAJAp6tevb1WrVnWPqsVE8RAws0xJh0xfINWjbN++3Xbu3On6PT+NukmTJln16tWDMeZqFxVMb7jhBmvWrJkLm4Vt5z5o0KDY8ocPH+6GjR8/PjasW7du1rt3b+vcubNb19q1a2PBVutU7SaAU7SP9ujRwzZu3BgMAQCgfKhVq5bVqFHDTpw44cq0ekTxEDCz0JmsyezatasLbelQ87vFixe7/iuuuMLN6wNg1HQGKlyL+fTTT7t1UXsJnE4nYObOnZvv5IuG+abm8c3N1bQ93Lw2PE61k+HnWs6QIUNcs3SNGzt2rE2dOtXN98orr7imueGm8r75bngZAABEpUKFU/GnSpUqVrduXde/d+9eO3LkiOtH8RAws5QPmWfVrGlTIgyZCm0qGOpRtYfxNZTip4kveKp56rJly1zN4kUXXeRqTKQkmsmKr8WcPXu23XXXXdReAnH8vqqTPX379o2dfFEoVPN3hUG1CtB+qwDqr11es2aNG6ZxOoGjTvOkMmbMGNfaQMcOzfu5z33OHQfCxwAdJ/bt2+f2XwAAolQzr1zcpEkTq1y5slWsWNEaNmzohuvk5oEDB1w/io+AmcUO5x6zlR9us7YNG1jlitH/q1ULUZgbgyxfvtwVHrt37+5qGLt06VLkZrLpCNdiCrWXQH7h5uxqHuuvjVSrgubNm1unTp3cc+1LCqDah+XGG290w6Rt27ZWr16905rKp0tBUoHVh1eto127drHlAwAQBV1bqYCpGkzd0Eed+o8ePVoi5dDyjICZpVRjedeCxdazxXl2VdsLgqHF5wukviZStYPxNwYJF1p1vaSEm8f65nF9+vRxgTNRM9nwtWCa198uWoXewvC1mNReAgUbNmyY28/0Jbt582a3b3fo0CHWGkG1mX6/9Hdk9rWf69atc8OLQkFSgVLBUvu6foOMfRUAEDVdW7ljxw4XKBUsK1Wq5Ibt2rWL6y4jRsDMQgqX415eZD2anxtpuCwO3zw2Gd9ErmXLlu4xXKupAqcKuwqJvikDgGipBlJNU0Uncnwz1nCnJq4Kl/fcc4/bJzVM+3WbNm3cfEXVq1cvdwLK12Kme103AACFod+4VMg8duyYe67vPt+P6BAws0xJh8vwNVuqeVRBUE1dw8LXYKomQkHRN48dMGCA+0kEX2BVbaf4QBm++6vWoWX4Zq40cQVKjn7GxzdNVbNX7ZPxv1Mr+jKuU6dO7LfC1PogXIOpk0QKi77p/LRp01LWcKoprn5e6I477rB+/fqddl03AABR8SFzz549dvjw4WAookTAzCJnuuZS4fKhhx5KGfp0Vy4fJHVDj3DhUQVZHyj1EyYq3E6fPt0NC1NtimpPAEQnfDJIzWNvvvlmN1z7oa7HHD16dGy8msSqhtFfl+mbz2rfDtdgKiCKH9+xY8d843USSeFV43yA1TFBy9X1MTomAAAQJd3QJyw3N7fAm/rET4/CyTmRxY2OV72zzjq2L17TrdJSlG3Xf3L3oUPWoPrJmgUAqZXl40RhZPrr1B2ndY0nJ5IAIHOV1e9MtZLTiVQFy1QULps2bVombzaXKf8fajCziH6ahHAJoKxRzegTTzzBzX0AACVCYVEta9RaJlWn6cpiuMwkBEwAQKnQdZr6qSPdUfqWW27hGmsAALIAARMAUCp07eWkSZPcDb+6desWDAUAAGUZARMAAAAAEAkCJgAAAAAgEgRMAAAAAEAksv5nSgAAAACgPMiEnynhdzAzVFnedqAsKS/7GscUAEBx8V2S2TLl/0MTWQAAAABAJAiYAAAAAIBIEDABAAAAAJEgYAIAAAAAIkHABAAAAABEgoAJAAAAIGvt3r3bVq9ebStXrkzZaTpNj6IjYGaRo7nH7bX3t7hHAAAAAGZbt26148ePW05OTspO02l6FB0BM4tUqlDBNu/dZ795fVmkIfPgwYM2atQoa9WqVb5OwzROdKZn4MCBbrgeE535mTlz5mnL0LDwuAkTJrjn3vr1661nz56xZYa3ZenSpcFUJ+l5eNmaT/N74XnjtzF+PUA2S7RPx+8v6fLLit8fPX9sSDYeAICSlpubG/Ql16hRI6tWrZrrT2d6JEfAzCI5OWbXdWhv59SuFXnITGXt2rW2YsUK169HPQ9TgBw7dmzwLHoKpoMHDw6enbRlyxbr06dPLMSGaRvnz58fPAPKpxkzZtiGDRtct2jRImvdunUwJjr169e3WbNmWbdu3YIhAABkFn1XVa1a1T2qFhPFQ8DMMiUdMsMF0kmTJln16tVdDYaGN2vWzG644QY33cKFC92jaPzixYtd//jx42Pzz5s3z2rWrOmGF4cC5NSpU11/ePuGDx/uhk2ePDlhzUyy4QAAACgfatWqZTVq1LATJ07Yzp073SOKh4CZhc50TaZqCpctW2aNGze2fv36uaC5ZMmShE1NFQD9cNWWXHnlla6/qMLhVYEyXEsybNgw69y5s9u+5cuXB0NP0rQaPmXKFLcMACfFNzUPtwDwTcn9uHCzV30pqymshoeb2yZqQhu/jnDTeB0fhgwZYs8991xsXTRdBwBEpUKFU/GnSpUqVrduXde/d+9eO3LkiOtH8RAws5QPmWfVrGlTIgyZaobqC4W+4KnwprDWvXt369Spk3Xt2jVfM1nVcvrmqxqu8ckKjKqJ9MtXpyauWnYyhw4dss2bN7v+Xr16uUdPzRy0TbJx40b36GlahczZs2fbnDlzgqEA1qxZ404YqRWATgj5k0IKijohM3HiRDdO0+h6Fe+BBx6w6dOnu3H9+/dPevJG4XL06NGuBYOm1d36dDOFcJDds2ePG69O45s3b27Tpk0LxgIAUDRqOdekSROrXLmyVaxY0Ro2bOiG6/vqwIEDrh/FR8DMYodzj9nKD7dZ24YNrHLFkvlXa4f0NYgKbQqTPXr0cM/DzWRVs6gCqWoUxQfNcK3GmaaQq9pWFaBV+wKUN+ETRqpl1P584403upMz0rZtW6tXr16+/cOf0NE0F1xwgesXXWPt59O+tW/fPncCKJ6OCyNHjoxd7+lPQOk44gOp1jlixAg3zo9XCE0UWAEASIeurVTAVA2mTpCqU//Ro0dpJRMxAmaWUo3lXQsWW88W59lVbU8VAosrfI3joEGDYs1jxRdW/c184pvJqvCpm32oRmLAgAFumJYXLjSqVtEvX51qMBQCk9HdvlS7Ib7g62nd2gZp2bKlewxTAVcFXYXd++67LxgKlB/h/dlfUx1uBquTQOvWrXPTaty9997rgqDGxd/xOR3a1xUU/T7r6QxyskAKAEAUdG3ljh07XKBUsKxUqZIbtmvXLq67jBgBMwspXI57eZH1aH5upOEyEd88NhHfTFaFShVGfdhUQdXXchZXeFkKtuEaUTWp0zao1rR3797B0Px0zajC7ptvvllgU1ygPFC4vOeee1zTcYVOnTxq06ZNMPbk/qYgqnFS2JCp+Zs2bXraySDRiSR/e3gAAEqCfuNSIfPYsWPuuVro+H5Eh4CZZc5kuFRwTHR3WHX+Dq6+maxqLVQb4pvj+VpOhUMVOovDh0QJN/nzd5YNN92Lp3WrKV5BtaRAeaEv2jp16sSCnk4Q+RpMnSB65JFHXL8kahWQDjWlD9/BWccRXa+p67eLeywAACAVHzJ1vf/hw4eDoYgSATOLnMlwKStXrnQ1HQpnXbp0CYae5G+488wzz7iaQdVaxFMoVTPb4vK1KlpemGouVQOT6vf3fFNZoLxTyJMOHTq4kzRqQutrMBU61WLBn8DRyaWbb77ZjSsM7Y+6UZBu4KXlaF060RTFsQAAgER0Q5+w3NzcAm/qEz89CifnRBY3Ol71zjrr2P5U866ypCjbrv/k7kOHrEF1mpkB6SrLx4nCKC+vEwBQcsrqd4la4ag1nYJlKgqXqhhJ1votk2XK/4eAmaEoDAJnRnnZ1zimAACKi++SzJYp/x+ayAIAAAAAIkHABAAAAABEgoAJAAAAAIgEARMAAAAAEAkCJgAAAAAgEll/F1kAAAAAKA8y4S6y/ExJhuI20MCZUV72NY4pAIDi4rsks2XK/4cmsgAAAACASBAwAQAAAACRIGACAAAAACJBwAQAAAAARIKACQAAAACIBAETAAAAQNbavXu3rV692lauXJmy03SaHkVHwMwiR3OP22vvb3GPAAAAAMy2bt1qx48ft5ycnJSdptP0KDoCZhapVKGCbd67z37z+rLIQ6bO5AwcONBatWoV6/RcwxONUzdhwoRg7lOWLl2ab5qePXva+vXrg7FmBw8etFGjRuWbRp1fV7LxvvPTidYfP17rT2bmzJn5ptXzdPjXpO3S9oX59yb8OuPXo86Pj39/fOe3O9F7refvvffeacPDnbbtiSeecP3h90j8+6THRNvrJXvvw6+7sO85Sk/8Zyn+c5Fp9HnU51LbmujzmYw+k4n2ZQ2L32fD+8KZoG04U+sCgPIsNzc36EuuUaNGVq1aNdefzvRIjoCZRXJyzK7r0N7OqV0r0pCpQufQoUNtxYoVwZD0TJ06NV/hSf2DBw8Onp20ZcsW69OnT8owp3VrG/bs2RMMKZjWpfWnSyFo7NixwbOTJk+enHYh9kwo6v/Bu/zyy61z585u/vnz57then3PPPOMNWvWzAWM4ijse47So//7kCFD3P9sw4YNrrvzzjtt586dwRTR0+dX6yzKPqV577nnHnvooYfctk6cONGmTJly2gmdwhg0aJBNmjTJqlev7p7rGKAz1moaNWbMGDessIrzGgEApad+/fpWtWpV96haTBQPATPLlETIXLt2rQslCifLli2LFUivvvrqYIqTFFLmzZvnxo0fP94NW7JkiSt0KUD68DFjxozYMoYPH+6GJQpzfjotU8vevn27HThwwBUKNVzbom0Kr3fWrFluXq1XwutSfzKbN292j9puTavtUvhVgVvbr/CVqIayOLQOv22LFi2y1q1bB2PMBgwY4Aq6fny3bt0K/D/UrVvXvXY99+9XeDq9Z+ecc04s4C9evNi9luXLl7vX2b9//3zrTyX8vmrZhw4dKvR7jtKjz3WLFi3c58S78MILC/UZONPq1KljDRs2dP16rF27tuvXceP2228v9r6pY0DTpk1jgRMAUD7UqlXLatSoYSdOnHDfj3pE8RAws1BJ1WSGa77kxhtvdGd6EunSpUssFKpWQIFGFKoUlrxhw4a5IKSQo7CTiHZ2jW/cuHGsgJkuBRxf8NR6w+sO6927t9sO1WKqiZzCsEJep06dgikyR2H+D/H865w9e7a9/PLL7v3R/6m4tZdh6b7nKD3ajzZt2uT2q0R80009+ia0eh4WHqcu3ApBtYE6IaPgp3E6+aH9acGCBa7Fgj9Zo3Dom72qS9acWp9vhb9p06a5Ez6qYezXr1+xwqDfRm2HXpv2fe334e0Iv8b4JsSax4/TcnRCKP41vvLKK7F1eFp2subIGueXGd8MOH594WUCANJXocKp+FOlShV3kl727t1rR44ccf0oHgJmlvIh86yaNW1KMUOmQpYKTuIDWLgwmYivGVMorJm3Db6GsFevXu7RU8Gxe/furn/jxo3u0VNtm9bla930mE6Q0jR+HgWpDh06pCyQqc198+bNg2fmQti4ceNcAdbXHEZdu+ELs4kKjH67Nc4XRovyf4gXfm9GjBjhXldhay/F/2/8NhTlPUfp0f/7lltuyRf24vkWB6qJVnjSiSL/edOjTiT4GnI96nk4IOpzoBCo8foM6/lll13mathV6y1q5qrmrn4Zuv4lmZYtW7pt6tq1q/us+RMXOgGl2szi7JsKrGq94FsVaNl6jTox5lsSaJ0KuKLX6ZvTapyarmtfiH+NqhXet29fviC/cOFCt6z4Y5mWqW3w72m4GXCi9QEACk9l0iZNmljlypWtYsWKsYoLHWvVSg7RIGBmscO5x2zlh9usbcMGVrli0f/VKripsOSbvYoCTnzBVIUoFVhV0NJ4UUHKnxkqDhVedc1UujStbyoqKvhp2xJdG6VhGqeCneZRp5pXFWRVyFSBUOLD8ZmW7v8hFV+LKVHWXhbmPUfpU4hSWOnRo4c7IeDDo6ew5fc5ffa0Lytw7dq1yz3qs+dDkj/B4PcVSbcFgD/5pGVccMEFrj+eau90Akrbq079/nOv+RU+o6Tl6jXqNfngqv1GIc/XPGq9ahouCpKJAq5eU9++fWNN9zXvmjVrXAuPePHBU++dgrMPp+msDwCQnK6tVMBUDaZOaKpT/9GjRxO2KkHRETCzlGos71qw2Hq2OM+uapu40FZYKmyqcKewJwoQ+r2gZHwoDNcO+sKkpx3aX7sXX0jU/D6wjB49utBBRbU0urZRwdE3w/UFvTAN07iRI0e6edRpvSogqxBdUs1lw9dgKjiGC4xan6+t0Pb5QqcU9v8Qz4cBKUrtpWjdftt9CJF033NkDv3/9P/S/zRcAxnPX/d4+PBhVysX31xd+7gCWLonO/R5v/fee12Q00mp+Ca4nvZ7hTI1p/dU46gWBbrpj+ZX+IuSgpyOVdpPfE29TjjpfVKNqcK5jg0aluqOtgqT2n4d69Qaol27dqftc3rP9N5pmX59Cv2PP/54odcHAEhM11bu2LHDBUoFy0qVKrlhOnHKdZfRImBmIYXLcS8vsh7Nz40kXKrQGa7daNu2bawGLExBUMHMBw/fhE0FSdWSiApJ4UKsmpz5G9ckKiSqIKYQpKCS7l0jVZBTYdVPq0Dlm+EWRAVVP48vYIq2zTeXLU3p/h9KQ1Hfc2QG//+KPwEUpqCzf/9+d5c93XBHz+MVthm5ptXJFR0vJFnITESBU9ci69gSPgETBZ0UU8ALH8/UhW/G5WuAFXJ//OMfJw19Oi7q/VK4VC1lopYQeh/03oVP3PjOH0fTXR8AIDn9xqVC5rFjx9xzfZf5fkSHgJllog6XXvjMus6i+1CokJMOXYvlrx8M1wr467y0/GSFRH8jINXUzZkzJxhaMNWK+msYw+tJVLjzw7R8P49/jaJHPdfw+GaEYeH5U02bSrJlFff/kC4Fet/cWV18M9zw/1BNbHVhfGHec5QunawIn+jxLQnC1yHr52t8iNF4Nc3W/71BgwYu1Om5hofHF+Z/rXkeeeSR4NnpLRg8H9DCN7bSZ1E/q6LPv0KZ346oKPCpxUKyk1rPPfdc7L1RTW5BAVfL0vt23333uYCerCWE3rvwexpWmPUBAArmQ6Z++k6tchA9AmYWKalwqQKNv67OU6iZPn162gUdX1MRvn5QtBw1O/Nn6RPROlRAk3R+mzL+hj2eCqKJ1qNh4WsHPV+bEL/NpSWK/0NJUa1WYd5zlC59ltTs3J8M0MkKnbwI/690sxoFLD9e+6Afr2a1eu5PvCSaP54+o7oeUScudMJCzZF0MzC/DWpBcPPNNwdTn6Jjh1oQ6LPkp9WJDK1f+6ffjmR3ZpXwiRl16Zz80WtUrWL4pImvYdX750/AaN3f/e53Xc1m/Gv04VQngHTtj8KlXk8ieu/C76k6v4xk6wMApEc39AnLzc0t8KY+8dOjcHLyvuSzttHxqnfWWcf2bYJnZUtRtl3/yd2HDlmD6tWCIQBSKcvHicIozOtUANONdHStI4pPwfdHP/qR3XbbbQRDAGVaWf3O1HFY17orWKaicKkTjKV98r4oMuX/Qw1mFtFPkxAuASCz6FrzRDf3AQCcGQqLapGiliSpOk1XFsNlJiFgAgBQAnSdq5q16qx5oua/AABkIwImACAfXX9I89ji03WVuk40/meIAADIZgRMAAAAAEAkCJgAAAAAgEgQMAEAAAAAkcj6nykBAAAAgPIgE36mhN/BzFBleduBsqS87GscUwAAxcV3SWbLlP8PTWQBAAAAAJEgYAIAAAAAIkHABAAAAABEgoAJAAAAAIgEARMAAAAAEAkCJgAAAICstXv3blu9erWtXLkyZafpND2KjoCZRY7mHrfX3t/iHgEAAACYbd261Y4fP245OTkpO02n6VF0BMwsUqlCBdu8d5/95vVlkYbMgwcP2qhRo6xVq1a2dOnSYOhJM2fOdMMnTJgQDDlJZ34GDhzoxvlO04b5edVp+VpPmJbpx/vlJ1pueHwi2uZ0pw3z6+rZs6etX78+GHpS/Hvi15FoWv869JhomeH3Ifz+FvS+x78mdVouZ9yQDv/Ziv9ciT6n8ftqadJ+ov1Fn/FE+1cyyV6H5r/22mtTLifd6QAAmS83NzfoS65Ro0ZWrVo115/O9EiOgJlFcnLMruvQ3s6pXSvykFkYKrR27drVVqxYEQw5aezYsQmDpCxbtsy2bNkSPDsZ7pYsWRI8KzoVDkePHh08O2nq1KkJC9bF0bZtW+vcubN7DTt37gyG5n8dvXr1co8FmTFjRsL3J0wF58GDBwfPgOyl/eeee+6xhx56yDZs2GATJ060KVOmpNxHCtK6dWt76qmn3GNB0p0OAFD21a9f36pWreoeVYuJ4iFgZpnSDpnhQDd8+HBXKFSn4CSzZ8+2OXPmuH5PwUvBbPny5cEQs7Vr17qAmiyUNWvWzObNmxdb/pgxY4Ix+Snsadl+W8aPH++Gb968OVaLE0XNnw5I3bt3d/0LFy50j6L1b9++3YVPhdBUEr0/YaqRUUAWvRb/+tVdffXVbjiQTerUqWMNGzZ0/XqsXbu269ex5vbbby9W2AQAoFatWlajRg07ceKEK7fpEcVDwMxCpRkyFRIV6BSohg0bFgw169atmwt5snjx4nyFwnPPPdcFxvBwhTQt4+KLL3bPi6pTp042YMAAF8rUxE61qFpu7969gymi48Owaix9YPXvh8KnQmhBtJ3atsmTJydslqdl+qCucDlo0CDX7914440p1wEUlj534Wbp4RMyehwyZIg999xzsWasOgkSnif+BI4/seOXpxr5ZPR5btq0qU2bNs0tQyeS+vXrZ9WrVw+mKDy/zdrHEjWj9cPC04mGaZw6v+3heeNfl96T8PwAgMxQocKp+FOlShWrW7eu69+7d68dOXLE9aN4CJhZyofMs2rWtCkRhkw1zfQFKHUKbGEbN250j4kClQ9gqj08dOiQ65cLLrjANan1zWRVsFNI0zIaN24cTJWfpuvTp09sO5I1eVVBVAVUT0FWBURtm5ahdTZv3jzW5r44fDNZ1byqBlYFToVmSad5rLZT76e2S80Aw++R+NpQvYYuXbq4YeHCrrr4wjJQkPj9WZ2vIRfti0OHDnXT+Zpy9d95552xk0F79uxxrQl8pxMkmmf69OnuTnzav+bPn++m1Ty33nqr9ejRwy1L43UjhYKarLds2dJtk44RWrdOVon2B9VmFidsar8Mn9hSGFyzZk3SE1DaDs2jbdfJHn8yKP51qVu1apWtW7cumBMAkAlq5pWLmzRpYpUrV7aKFSvGWsjoOH7gwAHXj+IjYGaxw7nHbOWH26xtwwZWuWLm/qu1s6tgpmClGr9UzWPTpcKxak9UKFRhUGFSgVXBVMHM1y5q3cUppHoKrb6ZrEK0D7AKnek0jxVf46qmsm+++WYwFCgZ2i98IPKdb2kg2hcVEFVr6Cl87du3z32+pV69ejZixAi3D+nkhw+C2h80TPuXP/GkeTSvD3Aar2nDzcrDtJ9qXr9t6vfXcWsfU/gsDu2X4deiY0K7du1OOznm6b3xAVf7ql6rb4Yffl2iFhxt2rQJngEASpuurVSZUzWYuqGPOvUfPXrUlRkRHQJmllKN5V0LFlvPFufZVW0vCIYWX3yB1F/T6PkCn2olfK2A5wuRiWoMVSPnm8nqGsRUoUzThq/B9IW+MNWaKKj6QqEKjbNmzXLPFTpLormsD8V6Ha+++qoreKbTPNZTgVuFdb0+XV+2adOmYMzJ688UkLVMFYRFTQb1+sOhAIiKQpxq1sMnYLTv6rpIBat4mk7Tax9PRPMsWLDABTNfY6qAmeh44WsTw03t9XnX8nXTH+1jxd13tV/27dvX7U9av37/TCelCkuvS+9JFC0hAAAlQ9dW7tixwwVKBctKlSq5Ybt27eK6y4gRMLOQwuW4lxdZj+bnRhou0+GDomrg7r///mDoyTvL+qZ3KlCGC6ziaz403+OPP16oUJZK+JpIFSL9bxtpnb65bFR8M1nVXD799NNuWGFrYnXXypEjR7ogGa7F1Hb6GlKF46jvhAvEU1BMFP7UNNU3KyoMzXPDDTe4prH+5JC6SZMmnXZMSEaBUyePVDMaxb6rY5aCpb9WUseFoohv+q/QyRlxAMgs+o1Lhcxjx4655zpW+35Eh4CZZUozXIoPR6JAGa6lkHATszAVLlVg9FKFMoWv8DWYiX7+xIdd1WL6GpMOHTq4ECvhZShoJpPOujwfAn04LEzz2DA1SVRT2XgqXGuZovfUb5MP70CU9NlVcArf2Vj9+/fvL1IQ0zyat6A7JXuaVrWC/vpN0X6n6z+1T6s1RRQBzr+OJ5980jV7TTfohvl9PLytai2hQgwAILP4kKl7CBw+fDgYiigRMLNIaYdLT3c3VfPV+AKoCoTJfk5EfCAsaiiLp7CrMOkDmed/3kPbUxLC4bioNbEq5PqmsmFalm/mG0/D4u8sCxSHPm+6WY/2FX8yQ01T77333iIFMc0zbty4fMtTl6g2PtG0OkGkEyvaf/WoE0fxd6kNU01/eD2JboKl9ShYqla1qE1u9T7pJJVu+uPX1bFjR67BBIAMoRv6hOXm5hZ4U5/46VE4OSeyuNHxqnfWWcf2ZfMLvijbrv/k7kOHrEF1rgMC0lWWjxOFUV5eZ6ZQk9t77rnHfvWrXxXpJBMAZKKy+l2iE5G65EPBMhWFS13vXxaP3Zny/6EGM4vop0kIlwBQutSUVz81VNAdaQEAZ46OxWoFoxYrqTpNx7G7eAiYAAAUgwKlrs32zWNVONHZ74IuCQAAIFsRMAEAKAZdx6k74YbvjEu4BACUVwRMAAAAAEAkCJgAAAAAgEgQMAEAAAAAkcj6nykBAAAAgPIgE36mhN/BzFD8Zh1wZpSXfY1jCgCguPguyWyZ8v+hiSwAAAAAIBIETAAAAABAJAiYAAAAAIBIEDABAAAAAJEgYAIAAAAAIkHABAAAAJC1du/ebatXr7aVK1em7DSdpkfRETCzyNHc4/ba+1vcIwAAAACzrVu32vHjxy0nJydlp+k0PYqOgJlFKlWoYJv37rPfvL6sxELmhAkTrFWrVrGuZ8+etn79enemZ+DAgbHnYX6emTNnuudLly51z0eNGmUHDx50nfo1TOPCwuPiu/hp/XLjO79eSTaNhofXpdcSPnul16TXFj88Xvzy9dpT8e9deL5w598n0WsJjwtvT3g54dfstz3+f5VsOSg/Eu1f/rOjx4I+vxrnx+uzM2TIkNP2fS/V+JIQ/9rC+0QyyY4P6jQOAFA25ebmBn3JNWrUyKpVq+b605keyREws0hOjtl1HdrbObVrRR4yfUiZOnVqMKT0DR48OF/4Smbs2LFpFS7DVqxYYfPnzw+epUfv0ejRo4NnJ+n9iqJg6gvLei1h2s6uXbu6ddSvX9+9JzJjxoxYYJw1a5Zt2bLF+vfvbw0bNrShQ4e6+VC+6fPap08f69Gjh23YsMF1ahZ04MCBlPuUjBkzxnWZ6v7774+9tmXLltncuXNTBtxu3brF3ovx48fb8OHDY881DgCQnVSGqlq1qntULSaKh4CZZUoiZKqwOWXKFBdSOnfu7AprvtB16623BlOVPIUmv14V/GT27NmuvXzYgAEDXEE5PN3GjRvdoxeeRl2iwuPkyZMLVeOyc+dO9x75QqkKqLJ58+ZYQExUU6iDmUKg5pk3b541a9Ys3/s8adIke+CBB9xr1ThNo+Hafr0O0bq03N69e7t5FSDXrl3rhi1ZssTNp3VrmMbF/x+vvvpqtxyUD/pcKBxOnDjRBg0aFAw1q169un3rW99yj9mgefPm7lFnpLUPiPbF22+/vVD7NgAge9WqVctq1KhhJ06ccGU5PaJ4CJhZKOqQqQDnw42axCkQeVdeeaW1bt06eHbm3HzzzbFwtXDhQvcYTwVJ34a+ZcuW7jFdCokKiwrW6dTmSKdOndw2qdZSTepU26ggp9BXHD4kysiRI2Pvt0LAiBEj3P/FB8r4Wsynn37ajVPtZfj/pGHhGtobb7wx3/8V2U2fFYUvfWZT0T7vm4mGWwIU1ITWn1Dx8+mzGKZ5FfI0TbhZvYb7ecInY1RDr2kffvjh2Phk6/Z69eoVO/Gi2szatWsX+1gV3j51/v3Q9qsJsN9e0bBrr73WParT6/Tz0dwWAEpPhQqn4k+VKlWsbt26rn/v3r125MgR14/iIWBmKR8yz6pZ06YUM2SqBk7UFNPXAiSjUKZmd+FCWEk0q1W4UvM3UYgMh0CF4Q4dOrhO/YlCnp9G25eoVlGFU4VMTTdnzpxgaMG0TU2bNg2eWb5ArvdFNYYq1Pv2/enS2bTt27e75XXp0iUYepKG6f8i/v/kazG17XfddZebRq9RfAgWBWC9fl9IRvmhz4o+q6lqKrXval9QLbdCYjq1+toX1bIh3PT2o48+snXr1gVTnLRgwQJ3gmTRokUu+OlzuHjx4ljLAp0omTZtWjD1yX22Zt7xTONUi//MM88UGNTUHFz7jfYPHSN0UkoOHTpk+/fvd+MLQ9un98DX/OtRz7UN2sfq1Knjgru3fPlyu+SSS9w4nahSbbGfT9f5AADOPH2PNGnSxCpXrmwVK1aMfRfou0uXiCAaBMwsdjj3mK38cJu1bdjAKlcsn/9qhanHH3+8SLVzCmUqHKoQqZBXEAVUTa8CuS+ENm7c2IVthUwVNhUyVegu6eaH4VpMCddeat1qcuub74qCpmqH0q2pRfmhkyy++bhOTiispdoX9Dnft29fvpM6w4YNszZt2gTPTgp/LvXZU7jU59bvH5pfwdCf/NG+3K9fP9ev+TS/P6kST6FPTYAVSn1Y1b6ocKztV21mYU70+O3TvuKPJX4/UwsKbbP6te9rWj+9wrnnt1XzXXDBBa4fAHDm6NpKBUzVYOpEnzr1Hz169LSKBhQPATNLqcbyrgWLrWeL8+yqtsUrzPjrmBSaVHgsiAKZv0bQd/46yCj5ApzE18SoIKpaEF8DqeZx8fw02j5d/5gogKoQqyapak563333BUMTU3NTTecL5FqelqvnCp3FaS6rs2sKq3rv4wv3vmZU/P9JfC1muPYyTNfd6bWrQCx6n+KvZUX20mclvuY/KvqMqjavMAFOtYoKYAppvuWDwqw+26kCbTy9Jn2uw2FQ+6RqEFWT+Mgjj7igWpgTPdo+heb4Ws/w+9i2bVs3jfZJdQqxCuVaz7333uuOV3pdqZr2AgBKhq6t3LFjhwuUCpaVKlVyw3bt2sV1lxEjYGYhhctxLy+yHs3PLXa4FBWcFFZUaFKtQPgsz3PPPZeyyVxJUGhUKEoWoMTXQCrgFfWaJxVEFUbffPNN9/pT0bWS/v1RoVOFT9F2+OayhaV5unfv7vp1l1r/fmv5/uZL2sZ0rqfT+xBuEuv/tyhfwmEoagphWrZCmaeQWNDZYYVRNVmPPznlm89GQSFTJ6PUPDadfSVM26fQnCjs+hNc2k/btWvnWiuo8+FS9KiWA3pNQsgEgNKh37hUyDx27Jh7ruO670d0CJhZJupwKSo4qTZAVEunmgVfy6Az81EK12AoIO7ZsycYk3+cv64zfNObeL4GUvzNPjyFU38Nprpk1yGqYOhvpFMQXRupacLvj78GVFSQ99emFqVwqSaGPuT75fjla73aRl+YTUX/S/+6ta3aZi1boQPlg/bpvn37us9S+OSLTlroRjp6LCoFTO234ZtIqTZfX+jJ6LOrQFaYm2olo2WpKbpvruppH9dxoyi19X6Z4eOIHvU83AxWxyyddNNPovjWCppOtaZeYW84BgCIlg+Z+q46fPhwMBRRImBmkZIIl57O/qu5Wnxtl5puxjcbOxMUqlTbEf6JhUR8U1GFqPANQwojHFST0TQquMa/PyqAhpuiFpUCgW9yG6aaS70P6dby6H8VH5a1zdOnT3frQPmhfUefHdWK+xMOOmnRvn37tE9WJKLPkT5P+sz75Xbs2PG0azDjaXtUGxg+8VPUmr5Ey9JPFWlfDL/mwrRs0DJ1ksufQNKjTtb4a1RF+5buRqiaTL8/qfZTNZp+O9RU1t9wCABwZuiGPmG5ubkF3tQnfnoUTs6JLG50vOqdddaxfcGFmkxVlG3Xf3L3oUPWoHrh7lIKlGdl+ThRGOXldZYm1ZjqDroKouHgCQDZoqx+l6g1iS5bUrBMReFSJynL4on3TPn/UIOZRfTTJIRLACgd/ieNCnuNJwCgZCksqlWLjs+pOk1Hq67iIWACAFAMuvFWz549XbPgcePGFauJMQAAZR0BEwCAYtA10LrjbbKfPAIAoDwhYAIAAAAAIkHABAAAAABEgoAJAAAAAIhE1v9MCQAAAACUB5nwMyX8DmaG4jfrgDOjvOxrHFMAAMXFd0lmy5T/D01kAQAAAACRIGACAAAAACJBwAQAAAAARIKACQAAAACIBAETAAAAABAJAiYAAACArLV7925bvXq1rVy5MmWn6TQ9io6ACQAAACBrbd261Y4fP245OTkpO02n6VF0BEwUyoQJE6xVq1b5Og2TgwcP2qhRo9ywpUuXumF6jJ9e3fz5823gwIEJx6nTcrQ8L7xsvz5v/fr11rNnT9ep35s5c2a+ZWp94TNSfr50h0v86/fr1HSaPn4bxM+j7ZFk74mGh19nuIvfFr++gqYBUkn0eQt/hvXZDe9v4en95zkZP60/FoTpczpkyJDT9pWoFLRuAED5k5ubG/Ql16hRI6tWrZrrT2d6JEfARFp8oJk6dWow5MyqXr269ejRw/XrrJIKkN7y5ctty5Yt1rVrV2vWrFmscDl27NhgipNWrFjhpilKodOHztJ6/dr2oUOHuv+DOvVrGFBU+kz36dPH7VcbNmyIdSNHjrSdO3e6acaMGeM6b86cOda0aVM33aBBg1zIjD/h4/l9dsaMGfn2V1m7dq3VqVPH7a8AAJS2+vXrW9WqVd2jajFRPARMpKTC4Z133ukCjQqE8+bNixVGly1bZk2aNAmmTG7AgAGuTbufr3fv3jZr1izXr+VpuZ07d3bL07BJkya5AmpYly5d3HSaRoHS27hxo3tUYVbz3H///TZ79ux826p1axtk/Pjxharp0+ufMmWKW2d4G9XdeuutwVSFF/+edOvWLRhzkgrmGu7fn+3bt7uCvwrn+l/Eb8vVV18dzAkUzH+mJ06c6IJimJ7HfxY97WstW7YMnqWmfXbTpk359ldZuHBhbH8FAKA01apVy2rUqGEnTpxw5Sw9ongImEhJFzz7wPbQQw9Z69atgzEnz/jceOONwbOSpfWrBlKFVdVaioLikiVL3DgVZv1zUU2M31YVZEeMGOGmUzhTSEtX+PWrtkav2bvyyivzvR8lQQc7vebGjRtbw4YNg6EnazXV1NjT/yG8bUAy+kxLp06d3GMyvobStwpQDb5aBqg2XydX1K9hajKbqGWA9pkWLVrE9lfRPrpmzRq3v4rmCzfRDdeIqpZVTWnDJ4Tia0196wI/f7jprvYd35Q8vvm6f02J1qtl3H777W68ny9+PTS/BYCyqUKFU/GnSpUqVrduXde/d+9eO3LkiOtH8RAwkdLmzZvdo2+CqsJe+Pq/+IJbIgpoHTp0cNMX9VpB3+ROFi9e7AqIvjbPb5sKlKrpU78vwHoapunEv6Z0xL/+gigIqtmhf2/UJWtWm+o9GTx4sBunR/9cAVKhwNfGqoCvacKFaiAVfabV1DXdGkRNp1YFw4cPdy0AFi1aZPfee6/r17BENfDi91m/v4pOivjmsQppo0ePztfSQE3g0/0867jz4x//2J340vyq0deJGO+BBx6w6dOnu3H9+/d3tbbaDnUKyNq28HrDoXHBggXupJReq7bV1/j69ehaHQBA2VKzZk3X8q5y5cpWsWLF2Il7fS8cOHDA9aP4CJgoU3wzWRWQDx065JraSbY3t1NzWd+U0Rf2Vbj3FDRV2+IL8UBh6HMTrs2L8oRFuJms1qOwqZMl+hxr/41vaaBx4UBaEDWzv/7662Pz6wTMZZdd5vpF+4Wv1ddJnH379rnjhrZF/WqqL369/ngiCqTxrRP8ySYt84ILLnD9AICyQddWKmCqBlMnCdWp/+jRo0Wq+EByBEyk1Lx5c/for31U4UoFOz3XdYDpCF9vqHl9oa+wfC2kai1fe+21fM1jRWeiVIOh7VRtZpiGaZvFvybx1zZ6vkmqptHdxOJff0G0LeFrVNWphieRVO+JQqW//lK1PPG1xAqcmlfTiWpEfdNHoCD6TIdvluVPWhT0eS0qhbRLLrkkdjMuBbu2bdu6dWsbwvuiaB/2QbAgyeZPh/Zx1VDqWOJDtQJm+D0J0/ujGlsFX00bbk4LACgbdG3ljh07XKBUsKxUqZIbtmvXLq67jBgBEympMKggqcKh7ihZmmd5VNDzzWSnTZvmwmG46apCWvfu3V1/OJSp0Ohv1KNgp2am4TDqrxHTdD6w+SaEBb3+5557LmXz4OJQ4Vw1KVq3b96nZnzhGia/fUC69JlRiNPn6kzo1auXC2evvvqqtWvXzu2n2re0jyVqrq792d8qPpmC5k9F+/4NN9yQ7yZb6hLdXMzTcB/ChZAJAGWPfuNSIfPYsWPuuU44+n5Eh4CJlFQYVFMz8dc76iy+r0k803wz2TfffNMVkOObxw4bNiwWCP31kLrW0d+oR9dVaXq9LtVaiL+WMTydmtRJstevTrUaRRW+BlNdsmaJ/vVoev1MhPjtVef/D5pGwQFIRZ/p7373u27/OBM3q9HnUkHwrrvucmHTU//kyZNPOxGkE0DaRxUE9+zZE7spl6bT9F78/Dr5o5rJVLR/79+/P7Y/paLlPvLII8EzK9SddAEAmcWHTH2/HD58OBiKKBEwkRbdwCNZk1jd+CL+WqWSpMKhQpXvj7+ZjwrPanIa39RPNZdqchreVjUzDV/LKFpm/N1yk73++Du7loRwEFZhWhehaxvDtF26mYmmBdKhz7T2B9X0+5MV6tRMtF+/fsFUBdM1jGqmrvkKCqr6XKplQfxJEG2Djh/hE0E6YeSvN9Z8Opmiz7/GK3zqN2C9+Pl1XEhWAxmmacaNG+daK2g+3yV7DapNVSsHP51qY2+++eZgLAAg0+mGPmG5ubkF3tQnfnoUTs6JLG50vOqdddaxfZvgWdlSlrcdKEvKy77GMQUAUFxl9btELVF0AlXBMhWFS12CURZP2mfK/4eAmaEoDAJnRnnZ1zimAACKi++SzJYp/x+ayAIAAAAAIkHABAAAAABEgoAJAAAAAIgEARMAAAAAEAkCJgAAAAAgEll/F1kAAAAAKA8y4S6y/ExJhuI20MCZUV72NY4pAIDi4rsks2XK/4cmsgAAAACASBAwAQAAAACRIGACAAAAACJBwAQAAAAARIKACQAAAACIBAETAAAAQNY6ePCgrVmzxpYvX56y03SaHkVHwAQAAACQtTZt2mT169e3Dh06pOw0naZH0REwkZLO4owaNcpatWqVrxs4cKDt3r27wGk0zJ8Fmjlz5mnjNSzR8HC3dOlSN3+8CRMmJJ020TJ79uxp69evd9usbffPwwoal+o1at3x49RpW4BMkuizHN5XS1L8fqL9OB3aj/y02k+HDBly2j4KAEAi+n5TcEyHpjsT34fZjICJIluxYoUNHTo0FjILosLh2LFjg2fFp4Lm1KlTg2eZTa+bkIlMNGPGDNuwYYOtXr3aPZ8zZ457LKpwCExE47VOrU/rVdexY0e+yAEAyCIETBSKL5DqUbZv3247d+50/Z6fRt2kSZPcsMWLF7vH8ePHx8bNmzfPatasaYMGDYoNGz58+GnTdevWzQ3zFGiXLFni+sPr8tsUpuX58YsWLbLWrVsHY4on/jVWr149GGM2YMCAWAHav56NGze6RyAT6fPbo0ePEv+cavlaT3h/ufLKK/M9BwAAZRsBE8XStWtXa9asWfAsNQUzX+OpsKfCZXFoeb72Q0E0PoyWJm3X1q1bXX/Lli3dI5CJtE/OnTvXNQ/3NEzPfVPWcC28+v1w31ReNZeqrVfLAg1P1LRd+4FONiWrsdTwcNPddJvPFjSftkPjbr/99qTbBQAAokPARKEMHjzYFdL0qNq5+No78dOoU0FU4zVM1KxWodQXSotCbeP98mbPnu0uyE52/Zgv7KqL8hqz+NcY5rdJnfo7d+5svXv3DsYCmcN/jrVP9u3bN1bDr31Tzd8VGFUTv2zZMhdAdc2jOvVrmMb98pe/dPOMGTPGtTzwrQYSnexRa4WmTZu6fSN+v9G+eeutt7oaTs2vVgA6QZMqEKYzn/bDfv36Jd0uAAAQHQImikzhLd3QpkKdCqQKW+KDZlFrE1RQVRNbX3uqAmSfPn0y7qYfai77+OOPp31hOXAmhZt6q/mqr/lbu3atNW/e3Dp16uSe6/OrAKrbt4sCqG8af8EFFxTq860gqhComszwzbS2bNli+/bti52M8SemFi5c6J4nk8582g/9awEAACWLgIlC8QVSHxYV7OJvDBIutCoIeiqEzpo1yxUuVeCTcBPXwlJti66r9NuigqaWHxa+BjNRbWtRJXuN4q/B1Lr1/tx///3BGCBzDRs2zNX8KTxu3rzZfXZV0+hr6lWbqRCq/U61ljfddJMbXpSTRNoPtT9OnDjRBU4fWBcsWOBOPPl1Kihqmwo6RhR1PgAAUDIImChxKuSpZsQ3iVXhUs3ZikrL0fJ84VHBtXv37q4/k6gZsGpYVdPLdV/IdApqqgkU1V6GT874TmFQwid31Cy2qJ/vtm3bWr169dy6GzZsaDfccIM7ORNeZ6oTQ0WdDwAAlAwCJgolfM2WmrkqQHXp0iUYe5KfRp1C1p49e1xtQriGwf9kSfwdJdOlu8iGa1f8T5b06tXLPXrhazDVhQvCqvFUs1o/Ts19Dx06lHRcuDYk/jX68BymQvjIkSNdvwrhiaYBMoVq/9u1a+dO2Cj4aR9LFBw1zA+vVq2aC6PpeuSRR/LtB2qKq+ODQqKOJfv37y/0T6UUdT4AAFAyCJgoMhXsHnroodiNQZJRIVQ39oin0BXfvDQdyQq1araaaTfw0HVhar6rMD5t2rRgKJAZwidKdBLo5ptvdsMVMtVKYPTo0bHx/npJhUE/XCd5dJLI73f6vCuYalyicFqjRo18J5p0DJg+fbpbn040jRs3zu3Hfnyy5YQVdT4AQPmh74p0T/RrOlrAFE/OiTxBf9ZZ9c4669i+TfCsbCnL2w6UJeVlX+OYAgAorrL6XaJWaJs2bUrr2nyFyxYtWpTJkJkp/x8CZoaiMAicGeVlX+OYAgAoLr5LMlum/H9oIgsAAAAAiAQBEwAAAAAQCQImAAAAACASBEwAAAAAQCQImAAAAACASGT9XWQBAAAAoDzIhLvI8jMlGYrbQANnRnnZ1zimAACKi++SzJYp/x+ayAIAAAAAIkHABAAAAABEgoAJAAAAAIgEARMAAAAAEAkCJgAAAAAgEgRMAAAAAFnr4MGDtmbNGlu+fHnKTtNpehQdARMAAABA1tq0aZPVr1/fOnTokLLTdJoeRUfARIF0BmfUqFHWqlWrhN3AgQNt9+7dNnPmzITjly5dGizJEk7Ts2dPW79+vVuGlqVhWl/4zJGWER4enjbc+WWF+XVOmDDBPS/Merxk74GWDZQ1yT7P6uI/+yVB++CQIUNi+6r2Tb9/AgBQEvTdpuCYDk1X0t+F2Y6AiRI1ePDgfCEzHbNnz7aVK1cGz9K3ZcsW69OnT9qF1XTWo0KwlqlpgWxQvXp1mzRpkm3YsMGWLVtml112mc2bN88913CNP5PGjBnjOgAAkB0ImChQfGG0c+fO1qxZs1iBdNasWfnOCA0fPtwNX716tQ0YMMAN27x5s3v0/DTqFi1aZK1btw7GnDJ+/HhX01GQ8HaE1/fMM8+cVpOZTEHr0XAVfBVc9br1+v12a701a9YMpgQAAAAgBEyUiEOHDsWCZfPmzd1jOhQab7jhBluxYoVNmzYtGJqagvC4ceNcEFQg1EXaBUlnPfPnz3fjtczp06fnC9IKxVdeeWXwDMgOvvnqww8/7JrMJmpars43D/fNbZ977rnY+Pim6vFNcmfMmBGMOUnL8utRawdN69evLr5Fgm/Krs5PSxNbAAAyBwETkZo6daor+HXt2tWFM9UqdurUKRh7kp/GFxDj27lfd911bj5NV5jmtQqA3bt3d/0bN250jwVJtR6/DC1Ty1ahWYVnv+0qUKeqZQXKmj179ti2bdtcTb1q8PUZHzp0qI0dO9YNU03+3Llz84XIBx54wJ2E0fj+/fvblClT3H6t7tZbb7UePXrEav8/+ugjW7duXTDn6dQcXa0DNK1aCqhFgt8/9ahWB741wYgRI9x6AQBA5iBgosSoKWxRrunS9Lp2U1TbER9Ao3Km1gOUJfXq1XMnT7y1a9e6Vgj+RJFOtvTt2zdfKwGFT1/Dr3n37dvnWjGoNYH6e/fu7cbJsGHDrE2bNsGz0+mkT79+/Vy/WgoosPrWEAsXLnT7rF+Xxo8cOdL1AwCAzEDARKQUKv31kKoZTHSn1fA1mMkCaLdu3dx0qs145JFHgqEFU03LkiVLXH/Lli3dYyoFrccvQ8vUslWY1TWjqlVRE1ugPFC40/6hW7f72nsFynRaCezcudPq1Klj1apVC4YUnU4Abd26tVBN7gEAwJlHwETkwjWDkydPTvuGO/FU06HrH1VrkYoKn3feeWfsmslwjUkqydbTpUsXFyS1TC2bGk6URwp04ZNCvkvnzq8NGzaM1WZ6Cp3FaVoef9OwdIIuAAA4cwiYKBG+ZlBN5Pz1WF74Gkx1ya6zVDM41ZQk43+WRMtQ7Yr/KZFwc710JFtPuPlduAZH69S6gfKgbdu2rha/MNdDewqYuqZTN8zydOfpHTt2BM/SpxNXupZTzdl9QNXJK12jCQAAMgcBEyVG12KpBlDhbM6cOcHQwvFBNR2qhdTNPzRPYSVbz6BBgxI2idVz3bmyMEEWKIv0GddnffTo0bGTQvF3ik1G8+omPAqFft6OHTsWeA1mQbQ/6qZbuomYlqWTV7oBEQAABdFJynRbz2i6RJdvIX05J/IE/Vln1TvrrGP7ohVkSltZ3nagLCkv+1q2vk6FX10vrfAJAChZZfW7RC3pNm3alNblTgqXLVq0KJMhM1P+P9RgAgDKJDXbVRNZXS8NAEAyCovt2rVz3xepOk1HDWbxEDABAGWCAqVvaqtOzXYfeughd700AADIDARMAECZoGulw3ey1c8GES4BAMgsBEwAAAAAQCQImAAAAACASBAwAQAAAACRyPqfKQEAAACA8iATfqaE38HMUNn6m3VApikv+xrHFABAcfFdktky5f9DE1kAAAAAQCQImAAAAACASBAwAQAAAACRIGACAAAAACJBwAQAAAAARIKACQAAACBr7d6921avXm0rV65M2Wk6TY+iI2ACAAAAyFpbt26148ePW05OTspO02l6FB0BEykdPHjQRo0aZa1atcrXDRw4MHaGJ51pwtavX289e/Z002g+ze+FlxU/v5/PD0+2XnVLly4N5jplwoQJaU0HZLNE+038fljStC8PGTKEs8QAgBKXm5sb9CXXqFEjq1atmutPZ3okR8DMAseOHw/6CpbudOlasWKFDR06tMACYrJpli9fblu2bHH9y5Yti/XH0/zz588PnhXO4MGD8xWaFS6nTp3q+gGYzZgxwzZs2OCaA8mcOXPcIwAA5Un9+vWtatWq7lG1mCgeAmYZdyQ3136x8B/2zy3/DYYkpvGaTtMXhy+Q6lG2b99uO3fudP2en2bevHnWrFmz06ZR2NQ0nTt3tgEDBrhwqcCZzOTJk11tRyp+veqGDx/uhs2ePdu1p9c6lyxZ4oaFp/OvAyjPqlevbj169LCNGzcGQwAAKB9q1aplNWrUsBMnTrjyqh5RPATMMq5KxYr2w89ebE+89XbSkKnhGq/pNH2Uunbt6kJkItpJFR4bN25sDRs2DIaarV271tVMNm/e3K655ho3bPHixQmb5ykoahlTpkwpVPO9m2++2YVXWbhwoXv0FCr9srp16+Y6oDzTCZi5c+e6puf+uZqvPvzww675rGr/tc+Em9WGm6/76Z977rlY0/f45u3q1zA//6uvvhqMOWnmzJkJlw0AQJQqVDgVf6pUqWJ169Z1/Xv37rUjR464fhQPATML1Kla1e68/NKEIdOHS43XdMWlZqcqAOpR4W/SpEmu9iMsPI1/riYHng98qjG56KKLXE1msmayvXr1cutRTWRhmu/5GhnRhdpqU++3R8vq0KHDGb/mDMg0fl/ViaK+ffta69atgzFme/bssW3btrma/jFjxrj9s0+fPu65mtTqBFG4+bqmV6sFdX78tGnT3DiFRTWVHzt2bGx+nWTSPKIWCgq4Og5o/C9/+Us3HACAKNWsWdOaNGlilStXtooVK8YqQFQePHDggOtH8REws0SikBl1uIyn6xlThTTVFg4aNCh4drKgqaaqqvXs0qWLC57du3cvsJmsajM0vZYV3xy3MLQdvtmuKGiqwJxO81sgG4Wbi6t5rGoqvXr16rl9z1P4vPLKK11/oia1mn7EiBFunDqFV53c0fFBrRYUODt16uSm1XhNq3k8HRv8/n3BBRfkOykFAEBx6dpKBUzVYOqGPurUf/ToUVrNRIyAmUXCIXPashUlEi59gVQ1Dap5TFSzqGl8kBs9enS+AOebx/raENWe+BvvJGsmq4LtyJEj3Xz33XdfMLRgWo6WJ02bNnUFWtGyFi1aFNt+bcesWbPcOKA8GzZsmAuEBX3Jhu/CrNrIdG3evDnffhhP+6VqLW+66Sa3bO7sDACImq6t3LFjhwuUCpaVKlVyw3bt2sV1lxEjYGYZHzKP5h4vsZrLdKjA2L9/fxfgwtdPxl8PGVbQ3WT79evnrql88803k04Tdv/997vwq5Drr+fy15GJrzkFcJJqD/ft2xc8O532n5YtW8ZqPMePHx+MSU21l74209P6fBNZCZ/80bIJmQCAqOk3LhUyjx075p7ru8j3IzoEzCykUPn9z3yqRMJl+Jot1Sj6pq6JqEYkXMvpm8dKuGmersdKdTdZ36TON29NxG+bOl8rqppPFVxF69a1l/HT6DpPoLxTTX67du0SNk1VMFRAVFD0z30LgXToGhcFR93RWTS/jgGewqQPlLpe2q8HAICo+ZCpk5yHDx8OhiJKBEwUmcLeQw89FAtw8VRQ9TfW0U+NPPHEEy6UKnS2bdvWDReFR39DHhU6w7UaYVqPAmM6tG1qpuuv/0xWaNX6uIssyqvwSRkFSN19ORHto5rWT6/m7bVr1w7GpqZ9V8cKNZn386vz12AqgPpxOgmk4wH7JQAgKrqhT1hubm6BN/WJnx6Fk3Miixsdr3pnnXVs3yZ4VraU5W0HypLysq9xTAEAFFdZ/S5RKzqdSFWwTEXhUvcNKIs3m8uU/w8BM0NRGATOjPKyr3FMAQAUF98lmS1T/j80kQUAAAAARIKACQAAAACIBAETAAAAABAJAiYAAAAAIBIETAAAAABAJLL+LrIAAAAAUB5kwl1k+ZmSDMVtoIEzo7zsaxxTAADFxXdJZsuM/4/Z/weCHa2noOG1XQAAAABJRU5ErkJggg==;" vertex="1" parent="1">
          <mxGeometry x="40" y="640" width="630" height="374.58" as="geometry" />
        </mxCell>
        <mxCell id="njZ23-EEaWyoHb-toW5m-39" value="3" style="ellipse;whiteSpace=wrap;html=1;aspect=fixed;fontStyle=1" vertex="1" parent="1">
          <mxGeometry x="540.001848746154" y="949.94" width="20.059740911431856" height="20.059740911431856" as="geometry" />
        </mxCell>
        <mxCell id="njZ23-EEaWyoHb-toW5m-37" value="" style="shape=flexArrow;endArrow=classic;html=1;rounded=0;endWidth=14;endSize=3.67;width=18;fillColor=#f8cecc;strokeColor=#b85450;exitX=0.292;exitY=0.879;exitDx=0;exitDy=0;exitPerimeter=0;" edge="1" parent="1">
          <mxGeometry width="50" height="50" relative="1" as="geometry">
            <mxPoint x="473" y="1004" as="sourcePoint" />
            <mxPoint x="363" y="1004" as="targetPoint" />
          </mxGeometry>
        </mxCell>
        <mxCell id="njZ23-EEaWyoHb-toW5m-38" value="Select -Brands" style="edgeLabel;html=1;align=center;verticalAlign=middle;resizable=0;points=[];labelBackgroundColor=none;" vertex="1" connectable="0" parent="njZ23-EEaWyoHb-toW5m-37">
          <mxGeometry x="-0.1714" y="-2" relative="1" as="geometry">
            <mxPoint x="-11" y="2" as="offset" />
          </mxGeometry>
        </mxCell>
        <mxCell id="njZ23-EEaWyoHb-toW5m-41" value="" style="shape=image;verticalLabelPosition=bottom;labelBackgroundColor=default;verticalAlign=top;aspect=fixed;imageAspect=0;image=data:image/png,iVBORw0KGgoAAAANSUhEUgAAA5gAAAIjCAYAAABmsrS/AAAAAXNSR0IArs4c6QAAAARnQU1BAACxjwv8YQUAAAAJcEhZcwAADsMAAA7DAcdvqGQAAJlESURBVHhe7d0LnFR1/f/xz3K/3xEFBUEgCESIDAwJTaJQQKWw0MqEKOqHxK8I1FLS8gJRP/5IRSFeU0oKE1EUMUEkwUIQQREIBIOU+0XkuvDf95fzHc4OMzuzu2fZ2dnXcx/nMWfOfWbnnPm+z/d7zuS0a9fuhAEAAAAAUEwVgkcAAAAAAIqFgAkAAAAAiAQBEwAAAAAQCQImAAAAACASOSfyBP0AAAAAABQZNZgAAAAAgEgQMAEAAAAAkSBgAgAAAAAiQcAEAAAAAESCgAkAAAAAiAQBEwAAAAAQCQImAAAAACASBEwAAAAAQCQImAAAAACASBAwAQAAAACRIGACAAAAACJBwAQAAAAARIKACQAAAACIRM6JPEF/oR3Lm/XA0WN2MDfXDud1R4+fsOPB4irk5FjlCjlWtWJFq57X1axcySrlDQMAAAAAZKciBcwDx47ZnsNH3WNh1KxUyepVreweAQAAAADZpVAB88jx47b94OFCB8t4CpiNq1e1KhVooQsAAAAA2SLtgLnnyBEXLovcnjaOGssqZNarUuXkAAAAAABAmZZWwNx5+IjtPHQ4eBathtWqWsOqhEwAAAAAKOtStlEtyXApWrbWAQAAAAAo2woMmGoWW5Lh0tM6tC4AAAAAQNmVNGD6G/qcKVqX1gkAAAAAKJuSBswob+iTDq3rTAZaAAAAAEC0EgZM/QxJUX6KRPcL+mj//uBZ4RV1vQAAAACA0pcwYO45fDToS5/C5UvPzrH/+9k427dnTzC08IqybgAAAABA6TstYB7LC4qFrUX04XLhC8/b/9xyq9WpVy8YU3hat7YBAAAAAFC2nPY7mHuPHLUPDx4KnqUWDpf/e8fPrEHjxsGYomtSvZrVrVI5eAYAAACUT7m5x61ixaS3TUEW+vCjA3bZQ0/Ymh07gyFm7Ro1tAU3XW9NatUMhmSu0wLmB3nhcl9eyExHSYRLqZMXLs/OC5nFdejwEZt4/4PWqGEDG37TdW7Y3n37bebT8+zlV1+3jz8+aA3q17U+l3/WBvT9vFWvVtWWv/WO3TXhd27asDq1a9rgL19lv3/4yWBIfl/8/KWxdehA8JsHnrCDhw7bD7//Tatc+VRY1vLHT5puY38w1Lp0ah8MPTl8+h9n2S9uG2n16tYOhhYs0es7fOSIPf3s3+2Flxfbrt17rUaN6nb5pZ+xgf16u9eaia9vz9799tN7JlvXiz5p3/zq1bGDqB8+9OsDrcuF7Qvc9tt++F2b+bfnrcV5Te0bXx3ghvv35/Of626f/UxnN2z7jl12+73327BvfMW6du7ghgEAAGSi3Xv22R8emWlfHdjXzs8r43jr/r3J/jjzGVu95t+uPK5xmubiLh0tJycnmMpsbd50d/9qqo0eMcQu/GQbN+ytt9fZr3/7sP3kR9+11i2bu2GyfOU79n+/e9TuGPM9258XcJKVue68ZUReWa6OK6Nt2fphMMbsnCaN7ZtfG2DdunbKtw1lWTjolVbA++eW/9pX/vyU1apSxf7+rcFlImCedjrkcG5u0FewkgqXku42FNbRo0ftgcf+aouXLrfrrv5iXij5jguXK95a48KYp6D57W982Y333ajh37ROHdrGnn8hb75WLc61H998k3ve5/JLgrnzQvqH2+3N1e/a2++uty3/3RYMPUUhcMas52zf/gPBkGjofzLzby/Y08+/bJf1uNht19eu7Zt3cHnP/pu3TV6mvr4XXlpsa9ZtCJ4llmzbz23axIXL97d84NYvu/P+p5v+81/798bN7rn898MddjwvIDc9+6xgCAAAQOZRuJz8hz9aj25drMW55wRDzZW9fnn/g3bk6DEb+Z0b7Ef/8y1rmVdmW/LPN+1Y6DI3lQtf++cKVx7To55Li/POsQb169m76za6596qd9bZ+c2bxcpIycpcjRs1cONF5UUN//HNQ6zNBS3sV7952FXiZAuFuUcH9rPmeYG6QimEZoXL78x+3qZc1cfOr1c3GJr5TguYR4+nvv6xJMOlpLMNRXHg40O2cfMWG/HtwXb1lZ93Z3m+mhfA7r3jf63ZOacCR+XKlaxDu9ZuvO9UG6cdzj/Xjl6/Xh371EUd3PNW558XzG32Tl5I0lmcli3OszdWvhMMPaVChQq2cdN/bN7Li2M7exQOHzlq7+W9vq9e+yVXi6ft6v+ly2zCz37kXo+Xqa/veN60M/76nH104ONgyOmSbXvNGtXtk5+4wDbn7Yj79n3kptX/esfO3fbu+o2utlree3+LndW4gdWtU8s9BwAAyDQ+XF7xue4uYIZrBLft2Olaj43JC3Wf++ynXSutEcOut5Hf/Xq+VmWqhVRoHPCly231mvW2Y9fJm3DWzgtNn2h9vquxVGsv+eijj23l22ut84XtrEbQirCgMpen8qKGaxtGfufr9sXP97BFry2zQ4cy86cHVSPZ/v5pljPuvqRdpTvH2/9b8i9XLi3NgOfX/YcBX7LPNDt1gqEsOC1g6s0siA+XU385wc46+xx79q9/scem/i7t7qnH/2gHP04eICTVNhTXf7Z+GGmwC9OOqjNIl1x8kfXK2+nfeHN1LNx4tWpWt4H9v2Dz/r7YBbGo/feD7a62tiSU5OvTQenjgwdtwauvF+n/o4Cck/e3bcdu91w1l2oOom3esXuPHT12zN5d9547O6emwwAAAJmmoHDpfXTggDuJXpB/b3zfjhw5aldc1t2qVKnsmtWKlqdQuPk//3WtvWTrh9vdpUlqzVZUusRJFRDb87bLB9dM1Kp+PfvgxzfbiTtvSdgdGzfWftD907Zs6wexgNf/E63t2a8POmPNU8Ph8uIyFi6l0FcMq+B//Pjx4FnZojM22qEe/fNsu2nET+3Xv33EXvnHv06rMTt69Jg70/PP5ati3Z69+4KxBftP3odRTRd0xqddm5a2c9de+/d7p4csbcen87o/P/V8ZDthtapV7OJPXWgvLnjNvpX3+u759R9s7vxFtjPU/Fcy9fWdfVZD+9rAK23OCwvdQS+RgrZdtZING9S19/N2SoVe1Vxefmk3a1Cvrv1ny4d28OAht/2fzDtIAAAAZJp0wuX55zWzs/OC3C13/Z+NvOUee/DxWa6mMjd0iZnul/GP11e48tp5Tc+2Tp9s62oWfQVEyxbNrFq1qrYmaCar+Zs0bmBN85brFae8WNa9u2OXfW/OC6US8BKFSwXbMxlwi+u0gJmqfbGaP36h/wAbcetttmvHDrvqy1+xbwz/XtrdtTd83arXqBEsLbGSauOsMyvf/OoA+9XPf2wDvnSZ20l+O/1P9oNb77UNoZo23bxG12oqoPlOzS3ToeYGqiFTk9tGjeq7pqVvrHz7tBq5ShUr2jVXXeFqU//x+vJgaGK6uc2IsXfnbe/+YEhyuqZ0yoSf2PVfvso9/+PMOfY/o39u/8o7KHiZ9vrCdKMfHQz/MnueHUlQC1vQtqtW8hOtW9ra9brmdIdrEq0QrGsCdODUmb7c48ft3GZN3PQAAABnisLdzqCZaiLphEvRJUx33TrCfjr6u65Jq+4lMu6+39j4/zfdPg5+CWLX7j3ukqZLLu7slqNLntSqbNv2XW583Tq1rWP7NvbW22vdSfm384LkRR3b5WvhVZzyYln3iUYNbPHQb9inm55jf337XdtewOVbUSrrNZfeaQGzcoXU4U4f1F5f/FJe90W7/567bdf2UzeQiUI621BU2nYFJDXhvOvWm23a/7vTzmnSyP7+ypJgipN3yPq/u8faU49NjnW6i2kq+/Z/ZEv+tdK1XV+x6l23wzdqUM9eX/ZWrN172Fl5H94vD/iCPfnU8/b+fz4IhhaPXt/ZZzWyq/p8zl10/fCUX7h28fNe/kfs5jeZ/Poq5gVT/W/UjOOVxf8Khp6SatsvaNnc3t/6ga3bsMka1q9r9fM61VjqgLjy7XVWr04ta1S/6L/TCgAAUBS62c7/+/1j9uaqNcGQU9INl17VKlVc+WfIDQNt8n232S9+MtLVRq7fcPLGhroZ44EDB237zl2u5lGBU5VES994y43X8tXaTDeCXJUXLlUhoIAZVtTyYraoWqmibTtwwB58Y2WJX74n2RIu5bSAWTWvgJ+OkgyZ6W5DFGpUr54XhBrasWPFb/a76f3/uruY/n3R0tiZntnPv2wfbNvh2sEn8tnPdHF3P1VNYzLamaeM/0naP18Spou9zzm7sWvWXNx9o6ReXzzVjuomTE8+/YK7nrQwVDt5+PARe/6lV+0TbVq6ZsNN9fpzc921nc3PbWrVI/gJHAAAgMJo2KCefe+mr7nLh8Ihs7DhMhGd8K9Ro5rlHs91NaXLVrztWurd/4fHXXlNl4XpFwVUOeBrOc9tdrZ71D0zGjWsZ+eGbnhZFGqWq3U0bljflb+QvmwKl3JawKxeiHBXUiGzMNtQGGoG++NxE+2xJ5+xpctWurbp2qEXLVnmmhh4idqcq2nogbib2YSpiahuAa0mnk8++KvYmZ6/PDzJ3Qzn9bz1aceLpx3w+q9cZbVrFdxsOB1qdnHHvfe737LUa9NrVNOGv85+0T7ZrnVsZy8Lr+/ynt3ygnW70673TbXtqp3UGbetecHUX2tZK2/d+q3QTe9vtTatWhTpwA0AAFBcOul/87AbYiGzsOFS5bHnXnzFbvv5JHt23iuuHPTSwiV236QHrGKFinZu07PdvTLW/fs911LPl9fUjf/Zj/LGfehqK0X3qGjf9gJb9ubb7hKj+BsgplNe1M/BabgvU7+QF1Z7XtLVXd+JxHQn26v+ONM9SraFSzktYNasXCnoS09JhMzCbkO6dGery3p8xv75xls2YfKD7rd61B5dvx/UreuFwVSJ25xPmvqo+5H+ZNRE9M1V71rXzp/Md4toXfepm92oqYJ+PzKR5ueeY9dedUXwrOgUrPpc3sP+/d777kyVDja69lI/etv/i72CqcrG61Mw1c+t6DWFpdp21U6qllI3DGp2zskL1StXqpQXNlu5ZemidgAAgNLiQ+YTf33Ofnr35ELVXGoa/VSILvea+fQLrhw07dG/WL16dewnP/qOqz3UT8jVrVvH/d5lmGoodVmY/01MleG6du7gmtvqGs146ZQXX3z5H264fpdTlzepTH35pZ8JxiKVbAyXkpP3ATut4eSWAwftwLFTP9SaDi1Gv4v5j5dfdjcAqlOvaNe51cwLA81q8hMSAAAAyF66DEiXGakVHa2rzgzVGl720BO2ZsfOYEhq7Ro1tAU3XR/ZHVy1DUP+9px9s3NHu2/RkqwLl5IwYCpcKmQWlhZ14KOPrFbtwl8r6ClcKmQCAAAAQDZRwPz8wzPsoyNH7LEv97fPtTgvGJM9EgZMKUotZnFRewkAAAAgWyWqRY26lrS0JQ2YR44ft037D1gxbzyaNjUMaFG7plWpcNploQAAAACAMiBpmlPQa1z9zN0BSusiXAIAAABA2VVgoqtXpYo1PAO3GdY6tC4AAAAAQNmVssqwYdWSDZlattYBAAAAACjbkl6DGW/PkSO2/eDhyK7J1DWXahZLzSUAAAAAZIe0A6boxj8KmcW9u6zuFss1lwAAAACQXQoVMD0FzD2HjxY6aCpY1qtamd+5BAAAAIAsVKSA6R3Lm/XA0WN2MDfXDud1R4+fsOPB4irk5FjlCjlWtWJFq57X1axcySrlDQMAAAAAZKdiBUwAAAAAADwuggQAAAAARIKACQAAAACIBAETAAAAABAJAiYAAAAAIBIETAAAAABAJAiYAAAAAIBIEDABAAAAAJEgYAIAAAAAIkHABAAAAABEgoAJAAAAAIgEARMAAAAAEAkCJgAAAAAgEgRMAAAAAEAkck7kCfqzzqp31gV9AAAAAJDdOrZvE/SVnqwOmADKj48/Pmj7Pjpgx48fD4agpFWoUMHq1KppNWpUD4YAAIDyjiayALIC4fLM0/ut9x0AAMAjYALICoTL0sH7DgAAwgiYAAAAAIBIEDABAAAAAJEgYAIAAAAAIkHABAAAAABEgoAJAAAAAIgEAROn+dOsuUEfAAAAAKSPgAkAAAAAiAQBEwAAAAAQiZwTeYJ+wFET2a8N7Bs8A8qGrR9sC/pwpjU9+6ygDygbcu6cEPQlNn1AXxvS5cLgGQCUjON5MeylDZts4uKltnTLVtt76LDVrVbVujVraqN7dLMrWrWwCjk5wdRlBwETp8m0gLl25y67/e+v2AvrN7odr2X9enZj5472w0s+Y7WrVgmmQjomL/mXexzZ/dPuMZsQMEtPVAFTX7T/3PJf23bg42CI2YVNGtv59eoGz4BoKGCeGDcmeJafxtWoXNl+c+UX7Ft53zUAsseHHx2wyx56wtbs2BkMKZx2jRragpuutya1agZDiu7fu/bYt56aYw1rVLdbel5iXc5uYlUrVbTDx3Jt+Qcf2n2LXrOdHx+0h6/tZxc0qBfMVTYQMHGaTAmY+mQ+uPxNu/uV12z8Fy6zAZ9o43a87XmFz/uXLrNn3l1vj325n3U8q3EwB1IhYJ6u2e8fDvrSt+W73wr6IFEFzNXbdtioufPtO5/ubNUqVbKNu/fYP97fYg9ec6Ur8ANRSRUwNa7OvZNsct8r8kImNZlAtlAZ8st/fsru+nxPu+z85sHQ9Cx4b7Pd8fdF9tevXmuNa9YIhhbNqm3b88Lls/bjHt3sug7tLVElpcrBT65+x36+cLE9/uUBdlEZai3ENZjIWK9s2mwPLHvTXhlygw3q0M6FS9FOrQPDz6/oaf8zZ57t+PigGw6g7Hnjvx+4k0XqXtrwnh06diwYc9KWffvt2bX/jk3zwUcHgjEorjEvLrBKd/3SZr2zNhiCsH23jrIfPP+SPbh8ZTAEQFmnMuSvvvh5+9+5L+WVM98PhqamaTWP5i1uuNx3+LD97OVX7fZePeyrHROHS9Fwjb/7il6uJZ/mKyuyOmAePHjQRo0a5Tr1h82cOdMGDhxou3fvNlXi/u1vf7Nbb73V9u/fH0xRerRtPXv2tPXr1wdDyh8VMn/3z+V2T+9edm6d2sHQ/K5q09q6ndvUnl6TXuFI/2v9z1u1auU6//8/U/zncenSpcGQskOfRX0mJ0w4/bolfV4TDS+vli9/wy79bPd83dTf/TYYe7pn5zwTG//ee+/ZsG8PcY/pOHTokN35szvcOuNpmQWtN5P89vU3XNBU8/cxl3Z3tZcSfu6nKYj2Lb9/+66wx1ItI9F3RrZ584Nt9mJeoM/N+/4b8nTqn6ZK9N4WtN9rnI4Nosey9J76mk3VZO47fMSGzn7ePY9X0DFd3y1Dhgxxn72y9vrjJfrfJ3rNOEnvTbrHHU2jz0myskj4c4ToXNzsHPvDgC/ZD56bn1bI1DSaVvNo3uLSNZd1qla1K9tcEAw5Sc13r/rjTPcYpuka1ajh5isrqMHMc/z4cdu8ebPrjhw5EgxFadLOpZB50dlNgiGn05mdfp9oba+9v9WO5f0PC+IP4ir0bNiwwXV33nmn7dxZtDb45VHr1nnv9WuvZeUXnZq8+i7Vcz+sIF/o08fm/32BvfqPJa4b/r3vB2MKdv7559u0Bx50jxIOn4WldaZa7969e230j36YdqAtCZ8652w7v35d635uM+uftz8n6/w0Z6e47mXAgAG2evXq2H4+ceJE65P3//BhJ0qpCoeZ6vvPvmi/WPSaLc/7LHc++yz7TteLgjEFi39vx4xJ3MQ03qBBg2zSpElWvXp19zwTT0pNWLzUvvDYk1bxrl+6Rz1X0EzWjFb0enr06GEzZsw4LTyuXbvW6tSpY82aNTvt9ZdF4f/9vHnzbPTo0YTMBPQ5mDNnjl122WW2fPnyYCgyUbohM+pwqfLq7HfX2XUd21nlivljmK7rfPbrg067vlPTaXrNl6q8mykImHkqVqxoI0eOtMcff9waNmwYDEVp2nPosLvmqmre/6YgdatWtY+PHnUXRBdEQbJFixbuy9678MILXWhCenLyEv0XvvAFmzJlSpk9E19c/84LZL9Y8i9r/odH7LmNZedMYlmx59Ahe33Lf12z9/Bjcb5Qu3Xr5grEc+fOLXNBsCTc+tJC+92/lttf3n7XBs182h6++kqb8IXLgrHl0/V/fcbGzl9o8ze85240pUc9v2HWM8EUyXXp0sU2bdpkW7ZsCYactHDhQhc+y3KoTEbfmyoz6aQ88vOfg+uuu45jThmQKmRGHS5FrSJ2Hzxk7RudnjeS1WCKptd8mr8sIGAGdDY13GRSj7/4xS/cl4e6++67zz7++OSdDXX2Vc0f/vjHP9rll1/u5v3ggw/stttuc9Oq+cgNN9zgzvSJlqVl/+QnP3HL1JktnfnW8qZOneoKQJpnxIgR+Zro6kvrW9/6lhv37W9/27Zt2+bm+d73vmdjx46N1bbqUc/Dw8q6etWC4JhbcHDcezgIosH1mcnoxEGiQkCY/q+++U/4s+CbQSUap0fVYDz88MNunD8rr/+vPiN+nnDticKulqHhhW2+V9quueYa96gztMnEv1/+PdHZ7nAzMb3ua6+9Nvb6/XtZGu+HbvTju2TP5fDRXHvlP1tds8IfLljshhVWuAntd4YNzfs87ArG5K9RVM3lvffcbX987FE3baJmsAWJr/1Uv1+vmtW+++67NvSmG23Ja/+wr1//NTdMTW5L06Y9+2zSa/90d44OP6Y6gZSKTiypNkm1Sl6y/T2ehvv9VZ3fl/V5Vs3oggULrGvXrrHPebLPfya47aVX7L5XT9U6qTY4qptGhN9Pvf7wd1l439f7oe8qffdp2tKuBfv5K/+wGavesZmDro7VWKrT8yfeeseNL6gWU58tnbwM11bpM7NmzRpXHpD4Y19Bn6lMPUbG27hxo3v0n3d9B+r7zG+/H+5fY6LvOr1eP16d/ywke38k2X6bbPiZps9Bp06dXAiPP+ZI/Gt79dVXgzEnxb9vqh2PwsdHcu2GB95ynfq9wg7PRslCZkmESzmaV649mns8dilIujS95tP8ZUG5CJizZ8+2Dh06xHZYdfqCS0Yh7u6777Y333zT/vznP9vvf/97e/HFF+3RRx9112uKgsobb7xhzzzzjGsmpICpdbzwwgv2pz/9yT2fPHly7ItCnnvuOfvc5z5nL7/8svtS+tnPfuZqTX/605+6Qsqll15qucEH58MPP7QHHnjAHWjUtGbZsmX2l7/8xWrUqOHOiv7rX/9y6xCdRdSB+corr7QqVbLjZzvUPEA702vvJw+E+lfMeXe9XXJeU6tUoeCPsg72t9xyiysQ+i/AMH05LV68ONYEaPDgwTZt2jQ3Tv9rzafhGt+8eXObP3++Gyd79uxx4d83GdOX6I9//GN76KGH3DD97xo3PnWnW/1fp0+f7sb1798/8hpB3Sk2Z9x9CbsfzJ3vukTj1Pm7zCajs/E6EfLEE08kLOTodehaZn1G/fu1detW9/ls27at7du3Lxby9UWsfcwXzBS8tV+Ea5nPlPjmr4me37poiU1avtLmfWWAdWjYwL7evq0bl8iL8+ZZ789fFgt0Phzq8Xe//Y09O/cF13T2tp/cbrOffsqNi6fmrbfe9hP7+je+6abt0uVTwZjC03o//PCDWLPdr35tsCsUT3/oEet+yWftj0/8ycb97C6rVq1aMEd20ee2adOmsRqXgvb3MBUGhw4d6r4v/L6sWgl99n3NqE4Yarj2/YI+/6XtnrzP772vLgmemf30c5fY/X17B8/SE/9d6l9XovdT322J6H0aP368DR8+3E2r97E0TV66zD1+5ZOfcI+ef37/0oJP7Phmsnr9/jiu7wffPDZeQZ+pTD5GhmlbdbmED9CyYsUKtz+ovCLaD7TP6TWqU1N1/e998NNnR58DvX6N17wq3xT0/qhTv5/nl7/8pVtWsuFnmv7/K1eudO+L/1yoJtuLf23aX/S+qQwh8ccPdR999JGtW7fOjUfJUYD8fV6Q/OlLr7i7zKpTv4ZFGS6lcsWKrslr/A3tUtH0mk/zlwXlImBecsklrkD/2GOPxbphw4YFY0/39ttv20svveR2dB3wP/OZz9iXv/xlN0w1DFKzZk375je/abVq1XLPO3fu7GotzzrrLDf9F7/4RVeYCdcI9O3b122Lmhqq9kAHxDvuuMOFDIWWr33ta1av3qnfuVEQ0nKvuOIKt0ydCdMBSCFV9MUj+vLRF85FF6V3HU1ZoHD5vYu72C8WLrb/7Et846Vn1623pf/Zale3S17QD1NBRgdsHbxVSFKhSPSeqnCgQpFvztS7d29XMNQXgsKpwrv4Lw1/9lb0P9MZSW/WrFl2/fXXx5rf1q9f3xVCPX25aJhoPhUooqw50k+QnLjzloTd/8srUKpLNE5dOj9fotel16fXGU8FI70evX+i90vvq75k9ZrbtWvnCkmyfft29/n376U+xzrz6/8HmULh8t7Xl9mjb6+xZze8Z995cYFNuuxS+2kB71X8NZg+HC5dssSuvvoaq1v35O866lrLm4YMdf0lTf+bw8Ed6Nq1a5+1YTKVVPt7mI65Ojbrcyn6DOs47gv88Qr6/Je2RZtPnZm/6/JL7eeX9wyepS/+GkwdUxO9nxquAFkWqMlZQXblvb5UFCh8C5lE70dYQZ+pTD5Ghk8u3HTTTS7E+e84Cb9evx+Ey1nabr1uX45RzVz4u1DL0mUrqfY57aP+/bngggti8ycbfiYpXKrm3p8A0OdCNdn+uBL/2vR+6YStL/fFHz9E72GbNm2CZ0VXo0pFe/zbF7pO/V5hh2ezFnXrWO0qVVwzeXXq17Co1alaxepXr2bvFPJ3ODW95tP8ZUG5CJiqPerevbsLBr4LHxjj6WCuIPmVr3wldqZWZ99Uu+hrMHVA8OFSduzYYX/4wx9cyOzVq5dr/hNP81QOfstN69Dzli1buufxmjRpErsetEKFCvm+UHTw+vznP++aVujMl77MPvvZz8YKrdlAb7Ouw1y3a7d99oHHbObqNbFmcjqzNDavkH9LXvebfn2sUY3Cfdnqhgs606kvOJ1FVbjTyQB9Qfr/t5q8aRr/haVmXX6cvhST0RenCqr6Eslm+gJckheW4mtm9H75JoP+/dL7qvdE740+7yps6wtXZ2ZVM6xx6vyZ39KQqEms77/v9TdsyvK3XL+clfd5+2SjBsGz9OlzplrEpqVQ+6CA+73v/49d1feL9pWB15TqTX1KQ3i/TGd/9zRdfK2d9v/wCaawVJ//0vD3jZusxt2/trk3DLIvtW7pai1v/9xng7HFp/dTheKyev+CBinCmn4APRWVJ3TyWCHIhwSdnE4k1WcqU4+R4ZMLixYtKrAMpf1ANbjhk1gqw/hWBAV9Zgp6f7ROBVsFXA333z/Jhp9p+r+Ft903ofctnvTa9B4kO0GQ6H1D9lGLO/2u+5Or1rgmr+nQdJpe86VqsZcpykXALCwd4HXgUxMfFTp89+CDDyYMcWpSe/vtt7tpdI2lms1+97vfDcYmdt5559muXbvcl1Fh6aZEOqOnmlYV8lUbqlpO1YxmA4VL3SnrvkWv2b+++y2bf+PX7C9vr7Emv5zsmnF2m/ao1ahcyV779jet41mnmp4Whs5u6qSDDvg6mOsLQU10/Jn58JeowqU+E364mvUkE/4SzWZ6//Slr/dCZ9k97Tc6yRKu5VDn76Doz+iqeZXeU71X6tRMSGd+S6uQmqhJrLrJb7xl94d+A+8Hn+pkv+hRtCZ9+pw1aXK2bY3b599/P/Ut0qOgkKna1Im/nmR3/+KuchUyVTAX1Ryk2t/DFEh9U85wp6Z+iaT6/JeGRZv/YwePHbPa905yIXPEZ4re1DoRvZ8qFIfDuQ/0ZcHwT59s+RP/W6C6CZKcl/fa1FImFZ1Y1slenfhVLWSyGrRUn6lMPUYWhrZRAVJBMp5ef6LPjJfq/dE+qn1V5S19/4RDZqLhZ4pOCOj/Fn9c0YlsfS60T+i1xZ9s0nvgm8gmet803teAIntc0aqF+03L59b9OxhyUrK7yGq6HXlZQ/OVFQTMBHRQ19lHXSunAKifMdE1j+pUmxhPN9ZRDabGVapUKXYtQkF0MPz0pz/trsNUIFUg0bWb/kCTiubXF9ivf/1rV2jS2bJsEA6XMwZdbefXq2ttGzawPw+6xvbc+r+uGeeGUcNt3GWXWu1CNBPQl034C0cHbIVzHfBV8NN7mOhaSF9Q0nT+ub4sCqKChq6/1XUhonXpLGa2UTM4hXTV7nuqXVchKNlNgDRenZon+zPxer/0XIWo0mjWVJDXg+uc5ccXd7ExF38qVrNZFDqx9PTTf4s1tVfIm/9iwceKKLz895digVLvcd26p5riZzt9tvSTCmqKpn29oP09nr4HEtXUJ5Pq818adO3lLy6/1P4x5IZgSLT0fmrfDf9UhwK9anLKgrsu72lf69jevvzk39zvXvpOd9iVZf/9wK77y2x7Nq4gGE+fFX2P33XXXe6Ylkyqz1RZO0Ymou1XgAxf16zXq9et16/PjFqSKQj68KTvy7feeqvA90fD/HCFVP+9nGz4maTmr3rNeu1hej0KjSpLKkAqAPsTXtpfwjfx0XiVAcP3eNClKCpfIrvoNzB/pksVFi62P696x5V9E9Fwjdd0+l14zVdWEDAT0E6uWis1gVVzSjV90R3SdH1lIqrV1N1eddBQkwgFUR08C6LmsVqHbuyjayx0zaaCqW9Cm4oOZFqXDspaRjbc3CdRuIyK/qcqZCqIq1MTNtXA+RtM6P+sL+9wsxz9f/RFqCZuvjmd3vPatWu7eZLRMv1v7/l1aTnZSNeH6DphT69z3Lhx7kvTv4/q/Je/xqtwr33GfxHrf6PPcUGFspLmm8T68PinNWvtggcesz9e+QW7/LxmrtZy1KcuSjtcxt/kx9+h9ap+/d01mGqqquGPPPygu+FOMpf2/Jy98cayfDcKSuTm//l+bF2Jpq2XVyjVnWI1Tuu+4etfd9d/6v+gO2Fnyl1koxDfvE5N6+JrJ5Pt7/FUmNfw8LEjfDdMLVO1VdrH/fGioM9/aTj80x/ZTz73WbuwSdFae4TFv7f+hmmqXQq/n2oqWNA1mL6JfWm/N96ML/e3e6/4nH3+/JPB5Nw6te2OXp+1q9qcPHG7ee8+++ZTz9oTb73tnieiz4pOuOl4qFCRTKrPVKYeIwtDr+Hee+91J2f9a1SY1L0wfEDWPqjvVd+cXM1bNV9B70/4e1yfNZWz9H2bbPiZ4oOi1qvXEKbXo2OEgqKOF7r5n99WlRHU+WswNa3eo/Dxo2PHjpFcg4nMoxZ4qjz5w79W2LV/+qst+c/W2KVgetRzDdd4TVfUFnulJeeEv6gQZYr+bY8++qg7aOnaT12zGZU/zZprXxvYN3h2ZpRkuMQp/i6x6dzMp6zZ+sG2oK/4fr1shf0q76Bes3JlW1tCNT/ZpGkxf+rie3NesGvatbUvtk58TbqkMw2QLtVSFvTzI97/PPei/fafJ28w07hGDdv24xGuH0B20W9PXvbQE7YmuPlOu0YNbcFN15/WXDVquqHQSxs22cTFS23plq2299Bhq1utqnVr1tRG9+jmmsVWKIOXwBEwyyA1t/jHP/7hfkpF1/voes8or7880wGTcHnmEDDTc/60R+2HXS+yPi2aW7uGmd8krbQVN2Dqhl3n1a1z2k9FePoCHvPiyzasa2f7XIvzgqFA0SlgpkMh9GcLXrU7F/7DfnNlb/v+xdFewwoA2YiAWcaoKYZ+PkVNkBQs1TRX1xxE6UwHzHe277QfzH3R/jCgL+ESRRZlwEThFDdgbjvwsWsGpJsYJKOzyUM/dZH7HTAAAJC5CJg4TWk0kQWKi4BZeoobMAEAQPbgVDAAAAAAIBIETAAAAABAJGgiCyAr0ES29NBEFgAAeNRgAgAAAAAiQcAEAAAAAESCgAkAAAAAiAQBEwAAAAAQCQImgKxQoQKHs9LA+w4AAMIoGQDICnVq1STsnGF6v/W+AwAAeFn9MyWr3lkX9AEAAABAduvYvk3QV3r4HUwAAAAAQCRoTwYAAAAAiAQBEwAAAAAQCQImAAAAACASBEwAAAAAQCQImAAAAACASBAwAQAAAACRIGACAAAAACJBwAQAAAAARIKACQAAAACIBAETAAAAABAJAiYAAAAAIBIETAAAAABAJAiYAAAAAIBIEDABAAAAAJEgYAIAAAAAIkHABAAAAABEgoAJAAAAAIgEARMAAAAAEAkCJgAAAAAgEgRMAAAAAEAkCJgAAAAAgEgQMAEAAAAAkSBgAgAAAAAiQcAEAAAAAESCgAkAAAAAiAQBEwAAAAAQCQImAAAAACASBEwAAAAAQCQImAAAAACASBAwAQAAAACRIGACAAAAACKR1QHz0OEj9ouJU12n/rBn5y20EWPvtj1799uJEyfshb8vtl/e/6B9dODjYIrSo2278fu32nubtwRDik6vT6/za0NH2+o164OhJ2n5Ws/yt94JhhSe5r32GyOLtQwAAAAA2YEazDzHj5+wrR9ssw+27bSjR48FQ7PL4SNHbMZfn8uIAA0AAAAgOxEw81SsWMFuuv5a+9XPf2z169UJhmaXZuecZe9v+a8tePV1V2MLAAAAAFGr+LM8QX/WOZaba/94fbnr/2y3LlapUkXXL+v+vcnWb9xsn+/ZzapVq2pTH3rSHv7T3+yzn+ninu/dt98eePSv9uvfPmJ/mT3Ptu/cZR3atbbKlSu5Jqx3/+r3eUHNbMLkB+2DD3dYi/POsd9O/5Pd/4fH7fG/zLF/Ll9l7du2srp1artmqqPHTbS33/23vbHyHfvdg3+yzh3bWdWqVe3Ps+ba+Lxl/PHJZ2zN2g326S4dbdP7W11z1jatWthvHnjCLXfl6net84Xt3Lb/fOJUe/2Nt6xb1wvzwnFFO3r0qE2c8rAtXro8NsxT0+C/L1pqHdu3sS6d2tszLyxwy6lX9+R2KXB2v/giO6dJY8vNe780rZb1wGN/ddMeOnTYPtHmfKsULHPNuo1276QH8t6vP7vXWLtmjbxtW2u9elwcW4aaG9+XN82jf5pty95cbZ9o3dK9Dzt27rZf/+5Rm5z3Hj35txds5649blsqVuA8BwAAAJANykXJftmbb9vgb4921wr6TgEqmY8PHsoLdjNs3YZNds/tP7BbRn3b/rVitc165sVY7d++/QfsnbxAOGXCT2z4TdfZth278wJhc/vNL39q48Z8Py+87csLWE/nu/bzX8tX22c+daE9eP8v7Oy8MDYpL2y9uOAfdtP119iU8T+xT3X+pGuuKx8dOGiz5rxo3/zaNfb9IV+zDe/9x5578RWrUb2aC2Vr//2ebdu+y0275b/b8oLfBhfyKleu7IadLsf6XN7DGjao5wKzQmmYXtfzLy22B/84yz7/uW5ue74y4Av2zPML7Im/PJsXHI+79fz6Nw9blSqVbfy4H9r1X77SBVLPL+OxP8+2rw/q75ZRKy+ATskLyTt377WHnvibfbBth5t34l2j3TgtFwAAAEB2KBcBs1WLc+3HN99kt/3wO7HuC5d/Nhh7uvUbNrtauW9/4yvW6vzzXKC7LC+8qcZu/0cH3DQKctdceYXVrFHdPe/Q7gK75qorXIDT9Bd3udA+2L7T1QB6XTt3cLWIOTk59u+N79vyt9bYsG8Ost69LrFmTZvYgC9dbnVq1wymNvvGdQPccnt062KtW53najYVWLvlhVR5Jy9Uimo7G9SvZ5/8RCv3PBkt+8avXW3L8sKyXkuYXte8lxfnretTdu1Vvd326PX1/UJPW7pspe3avcfeenutC99Dvz7Q2rY+372e67/SL1jCqWV88YpL7bJLL7Zzzm5sX+7fxza//1+37V6FChWsxXlN7evX9beqeWEVAAAAQHYoFwFT11V+6qIOeaGvY6xrce45wdjT6VpF3RTnjnvvj9V4zpoz33KPH4/VMFavViUvXFZz/bJr915X0/ejn06wb/3PT+yFv78ajDmldq2aVrlSJdevdWgZ5+YFuURq1aweux60QsWKVq1qVdcvqv38VKdP5gXFt11N6vKV71inDm3d8lNp16aVC9d/fup527bjZA2o7Nm3P29ZH9n5zZu6a1JFQbhRXmA+mBcqD3x80P6z9QOrl7dNjRrUd+OlevVT26X3QDW3f3v2JRv4zR+49+2nd/8/917mLcq+8dX+1rB+XRt9xy/tuz+8095c9W4wJwAAAIBswMVvCZzX7Jy88FfVbh893B6acnesu+eno6xunVrBVKeoVm/S1Mfs7XfX2w++9w3XNPSLn+8RjE2s6dlnufl059rCUgD83Gc/7X5m5I2Vb9vmLR+4Wk4FwlQ0b/8vXub6n/zb87G75tarU9vq1K6Vt8ytsWaravK6Y9ced/2krtk8q3FD258XQhUiPV1H6TXIC4/16tZxNbnh902drgE9+6xGductI2zqr8e5YD3t0b+45QMAAADIDgTMBM5rdradkxcAZ86eZ9u273RBa9U769yNdhKFuGPHjrmbAlWoUNEqV6xkb6/992lNUOOd37yZtWxxrv3+4SftpYVLbMvWD2328y+7Gsl0tMybv1atGvb4zDl2wfnnFVgjG69Rw/r21Wu/ZBs3bbGDQRNe1X6qZnfRa8vsqWfnu+2ZO3+RzX1xkbtuVCHzk5+4wIXPh5/4m6399yZ3U6E5Lyx080vNGjVc8+C/v7LEVqxa4943vX96fuDjQ/aXp+flheH/WoW897B+XhAFAAAAkF0ImAmoaaqu2VQt5m2/+H/27R/cYU/Nme+ur0xE4WxA38tdjeLNt9zjgqhq7Aqi6yHH3Dwkb7rWribvB7fdZ2vWbsx3p9uCKFxecnFnd2fWrp0/WcDNfRLr1rWTu67UU3BW6Pzm1wa4YDli7N3212d0k6EBbrjGK8iO/O7XbeuH2+22n0+yN958267u+/lgCSdrR6//ylXuZkJ6TUNu/qmNnzw97zVVsmpVq9j+AwdszB2/su/878/s/a0f2M3fucEa54VdAAAAANkh54SqmVDm6N+mAPjyotftZ7f8D0ENAAAAQKmjBrMM+uijj23hP/5lzzz/sl1y8UXuRjwAAAAAUNqowSxj9DMlE+9/0Fa9s976fbGXDbrmi1a1SpVgLAAAAACUHgImAAAAACASNJEFAAAAAESCgAkAAAAAiAQBEwAAAAAQCQImAAAAACASBEwAAAAAQCQImAAAAACASBAwAQAAAACRIGACAAAAACJBwAQAAAAARIKACQAAAACIBAETAAAAABAJAiYAAAAAIBIETAAAAABAJAiYAAAAAIBIEDABAAAAAJEgYAIAAAAAIkHABAAAAABEgoAJAAAAAIgEARMAAAAAEAkCJgAAAAAgEgRMAAAAAEAkCJgAAAAAgEgQMAEAAAAAkSBgAgAAAAAiQcAEAAAAAESCgAkAAAAAiAQBEwAAAAAQCQImAAAAACASBEwAAAAAQCQImAAAAACASBAwAQAAAACRIGACAAAAACJBwAQAAAAARIKACQAAAACIBAETAAAAABAJAiYAAAAAIBIETAAAAABAJAiYAAAAAIBIEDABAAAAAJEgYAIAAAAAIkHABAAAAABEgoAJAAAAAIgEARMAAAAAEAkCJgAAAAAgEjkn8gT9AAAAABC5qQ89aS/8/VXX3/WiT9rom4dYtapV3HNkFwImAAAAgBKxZ+9+++k9k63vFZfaVX16uWHvbd5ihw4fsXZtWrrnyC4ETAAAAAAl4tl5C92jD5fIfgRMAAAAAMWiGsmJ9z9oy9582z2/Y8z3rH3bC+y302fYwH697fzmzdzweKrNHHffFNu3/4B7rvm6XNje1XxOmfa4fbZbF7v/D49bs6ZN7PYfDbdpj8506wg3s1Xz27atW9isOfNty9YP3TK2/nebPfDYX61O7Zp25y0jYusPN9X99je+7IKvX1fzc5vaS6+85qYXv11a9y9uG2n16tZOOD/y4yY/AAAAAIpM4VJB8uvX9benHptsD0252559YaF9uG2nffzxwbxgVieYMj+Fy4lTHnKBzs/35FPPu+Hywfadtnb9JjdOTWzH/GyiW8eMBya68e+s/bd7FIVLhcD/u3usTfrdo26Y5rvumi/Z8y8tds8VDrt9+kI3XMt4d/17+dbVsEFde+S397rt/f3DT8a2a8r4n8TCZbL5cQoBEwAAAECRHTp02DZs+o/970/G27XfGGk3jfiJrduwKS94HrYaNarbnr37ginz2503vG/vnrHaRYW4S7t/ylavWe+en924oX1tYF/X3/Scs+ySi7u4aVVr2ahhAzfcG/r1gW5+hcM2rVpYj26fcsM1nygE79i5y+6a8Du3jYO/PdoWvbbMbYNoXX6ejZv/Yy3Oa5av1jXV/DiFgAkAAACgWBTQVAOp2j11qgn8ROvzrUb16rHAWNoUdlXD6bdRnZrjxlPz2vOaNQmenZLu/OUdARMAAABAkVWrVtU9Ll76hnsM+9IVPezJvz1vy996Jxhirl9d/bp1bO78RbFmproW8tUlb1iHdq3d8yip1lNh1zeXLYjWH94uKcz85R0BEwAAAECRKXyNGHaDzX3pVdd8VN0vJk51zUrVzPT/3XubTf/jrNi4pf96y9X8adzQb3w5X9Pa6679Ur6mqVH61vXXuGaufjtGjL3bhdp48dvlp0t3/vKOu8gCAAAAACJBDSYAAAAAIBIETAAAAABAJAiYAAAAAIBIEDABAAAAAJEgYJZxx44dszfffNM9FiTd6QAAAACgqAiYZVylSpXsyJEj9uc//zlpeNTwp556yg4dOmQVK1YMhgIAAABAtAiYWeDiiy+2tm3bJgyZPlw2b97cPvOZz1hOTk4wpuj0m0b6baOpDz0ZDDlJvwOkYRpfGJr+1799JN+P2aaidWkb9KhOv0Pkf5NIXfy2AUistPYfrePZeQuDZ+kr6nwAgJKz/K13En536HitTmW8W+/6P/edk0h4vJ8nkYLGIXMQMLNEopBZEuHSq1Gjuq16Z607oGSCsxs3tIem3G1PPTbZdeJ/4BdAwUpj/xl+03V2VZ9ewbPk4gst6c4HADhzWjY/13bs3JUvQOo75N3171mHdq3t/ObN7N47/tfq1a0djM0v1XiULQTMLBIOmWoOW1Lh0hvY/wv28qLXMzLEqRDaqGEDe2ftv4MhANLF/gMAKAwFQ31vbNz8n2CI2QcfbnePZzdp7B5RfhAwyzjVUq5ZsyZWa+lD5n333ZcvXMZPF4VWLc61GtWr20sLXwuG5KfmDjd+/9ZYs7twbaf6/fDfTp8RDD0pPJ+a7iVrTpFKt09faEv/9VbwDEBhhPefZPtkeD8O13iqxtEPV1MmTa/xj/5ptluOlqdpNL8f9/dFS/PNIxp/14Tf2Qt/f/W0+UTr07x+vnBNp/q1TN/8NzwOABC9+HLX6jXr7ROtz7dqVau447cuh9JxO9F3R3i8HDx4OHZ8L6gsqGO7XxZNZzMHAbOM0017tm/fbnPnzs0XMn/0ox/lC5eqzdy7d2/kN/n52sC+9uqSN9yBIUzPJ055yO68ZYRrcqfmd08+9bwbrm76Y3+1/7t7rBt3ec/P2Jur1sTmmzVnvv3+/+5044Z+faD9adZcNw7AmZdsn1QhQC0Y/H7809HDXSHCf8FrmDrfnPWD7TutYYO69shv73VNocI0bu36TW56HSv8MaXLhe3tjjHfsy9+/tLT5tP6J97/oHXp1D62LgkXMLTdv7htpFvmpvdPHnsAACUj3ExWx2jfPDYs2XdHvGdeeNm+fl1/N03fKy5NWBZUuFSo1TQzHpjo1sdxPjMQMMs4BchLL73U6tWr50KkD5m1a9fOFy5LqqmsmkRcd+2X7PmXFgdDTtq9d5/17d0zViDUdJd2/5Q7mxU/rn3bC+yiju1cv8Ytem2ZDf72aHc2SrUXOlj5M1qFdV6zJkEfgMLS/pNsnxS1YJj4m4djZ5Z9geJLV/Rwz8N0nWePbp8KnuWncTpZJeFjRUEOHTrsmmNd0euSYIi59Wr9/nihMKzlqWtxXjP3WgAAJUPHWt9MNlnzWIXJ+O+ORK675kuxcqK+OxJd36lh+k7Sd5O+o/RdxXE+MxAws4APmWeffXa+kKlHXY9ZktdhigKidvI3Vr4dDCnY1v9uC/oSU22Fr5Eo6OxWQXTgefaFhdb0nLOCIQDSFb//JNsnda2magh/es9k15Rp776P7OOPD+YVMuq4+QAA5YtvJquThGqhlqj8Fv/d4U8KFpZuOOlrQn2nli8ofQTMLBEfMnWTH4XL1q1bl2i4FB081Izhhb8vto8PHnTD6ucVMOfOXxRrqqCzTmr2pqYS6tTvz0TpRiK+iazm091pi9PEQQcqNZ3TWTQONEDhxO8/qfZJnbGeeNeP3Rf9wbz9X/MVtlm7msj6G0OEjxUFqVatqjuxFb4GXC0p/PU+AIAzT81kdUnC8pXvuP5kwt8dvrYzTPP74Ll46Rvuu0XzeDrOqyY0vgUdMgMBM4uEQ6Zu8nMmwqWnZgw6kKj2wj8f+o0v2//+ZLxrunDTiJ+4prQark5N4DRM49QW3zeRjZ9PXToXbauA6penZhK6LktnyACkVtD+k2yf1Be/vwGD5lGw07Tfuv4aF/zC06aiJrKqMdX04WOF6Liyas262E1+PBUuRgy7wea+9GpsXcJPmABA6fGXJMQHQi/Zd0c8Bc/v/u84N53Cpr5b4sV/3xTnxpCIVs6JPEE/soT+pfv27bM6deqckXAJAEWlwsCUaY+7sJioMAIAAMoWajCzkEJl3bp1CZcAAAAAzigCJgAAAAAgEjSRBQAAAABEghpMAAAAAEAkCJgAAAAAgEgQMAEAAAAAkSBgAgAAAAAiQcAEAAAAAESCgAkAAAAAiAQBEwAAAAAQiaz+HcxV76wL+gAAAAAgu3Vs3yboKz1ZHzAz4U0uirK87UBZUl72NY4pAIDi4rsks2XK/4cmsgAAAACASBAwAQAAAACRIGACAAAAACJBwAQAAAAARIKACQAAAACIBAETAAAAQNbavXu3rV692lauXJmy03SaHkVHwAQAAACQtbZu3WrHjx+3nJyclJ2m0/QoOgImUjp48KCNGjXKWrVqZQMHDsx3Vmf9+vXWs2fP2PDwtOFOw3bt2hUbN3PmzGAJp5ah4UuXLg2GmptGwyZMmBAMARAFv5/G78+i/XHIkCGcvQUAZI3c3NygL7lGjRpZtWrVXH860yM5AiYKZcWKFTZ//vzgWeFUr17dmjZt6vo3btzoHmX58uW2ZcsW179w4UL3qALw4sWLXX+vXr3cI4Do1K5d206cOFHk/RkAgGxRv359q1q1qntULSaKh4CJQps8ebKr5UhlxowZtmHDBtdNmjTJBUwfFtX0QCEyHCTFDz906JBt3rzZmjVrZg0bNgzGAojK/v377eqrr7Ynnngirf0ZAIBsVKtWLatRo4Y76bpz5073iOIhYKJQhg8f7mobp0yZ4oJgYSksKjQuW7bMLccHycsuu8x1frh28O3bt1vXrl3d9ACi1759e7v++utT7s++ubo636w2vimtHjXON3PX8tQMN9zsHQCA0lahwqn4U6VKFatbt67r37t3rx05csT1o3gImCgU1UAqZM6ePdvmzJkTDE1s8ODBsUKpv+ZSYVGh0YfItWvXuma3ffv2tXbt2sWGq1O/mtSq5hNAyejXr597TLY/a99VKwPdVU+tEbRfT5s2ze3LderUcfuw+H3ZN3PXySNp27atewQAoLTVrFnTmjRpYpUrV7aKFSvGWsnppOiBAwdcP4qPgIlCUy2FCpdqAqsgWBjh6zBVc6lOmjdvHms+Gx7O9ZdAydI+OWLECJs7d+5pN/bRF67CpUKlP9HTu3dv15RdAbJHjx6xfVWPd9xxh2t6q/kUOLWv63oWAABKm66tVMBUDaZu6KNO/UePHuXGdhEjYKLQWrdubSNHjnS1Fffdd18w9HThazAHDRoUDD0VGvVbQyq8du7c2dVy+OazKuiqUz/XXwIlT/u0WhCoZjLMN2EPt0ZQCwQ1ZdfJJZ0Y0j6sL2bduKtPnz5uPrU+UE0mJ4gAAJlC11bu2LHDBUoFy0qVKrlh+pUDrruMFgETRaJmdQMGDLA333zTFSYLwwfJVatWuYJq9+7dXS2HhqnwumDBAtdx/SVw5gwbNsyWLFlir776ajDE3O3aO3ToYPPmzYudLFK3aNEiF0p1Ymjfvn322muvuZskqMayU6dObhmqyeQEEQAgk+g3LhUyjx075p7rZKnvR3QImCgS36yuoAAYrvUI/96eD5I+nLZs2dINDzefFTW/883yAJQsneQZO3as3XXXXbZnzx43TPufAmOymwBpHtV86jpN7dPSpUuX2HWYnCACAGQaHzL1XXf48OFgKKJEwESR+aayhRUOkiqAqkDqhZvUqfkdgDOnW7du7iZeYWrerv1VNZn+hNGECROCsSf3Wd15z9/MR7WWeq5gygkiAEAm0A19wnJzcwu8qU/89CicnBNZ3Oh41TvrrGP7NsGzsqUsbztQlpSXfY1jCgCguMrqd4la0ekGdQqWqShcltWb1GXK/4eAmaEoDAJnRnnZ1zimAACKi++SzJYp/x+ayAIAAAAAIkHABAAAAABEgoAJAAAAAIgEARMAAAAAEAkCJgAAAAAgEll/F1kAAAAAKA8y4S6y/ExJhuI20MCZUV72NY4pAIDi4rsks2XK/4cmsgAAAACASBAwAQAAAACRIGACAAAAACJBwAQAAAAARIKACQAAAACIBAETAAAAQNbavXu3rV692lauXJmy03SaHkVHwMwiR3OP22vvb3GPAAAAAMy2bt1qx48ft5ycnJSdptP0KDoCZhapVKGCbd67z37z+rLIQ6bO5AwcONBatWoV6/Q8/gzPhAkTYuOXLl0aDD3JL6Nnz562fv36YOhJiZavTsvzwsv2Xfw6AKR28OBBGzVqVL59KdF+CQBANsjNzQ36kmvUqJFVq1bN9aczPZIjYGaRnByz6zq0t3Nq14o0ZCr8DR061FasWBEMSUzTLVmyJHhmtnDhwqCv+BQup06dGjwDEIUZM2bYhg0bXLdo0SJr3bp1MKZkaD+eOXNm8AwAgMxQv359q1q1qntULSaKh4CZZUoiZK5du9aFy86dO9uyZctiBdKrr746mOKk+fPnu+luuOEGa9asmQub8TWcqWi+efPmxdYxZsyYfME1XCBWPwAAAFBUtWrVsho1atiJEyds586d7hHFQ8DMQiVVk6nwqBDp3Xjjje5Mj6jJ3eLFi13/FVdcYV27dnXTK5xGSaFS65Ju3bq5DkA0fNPZcNPz+GF6TNSsVieChgwZYs8995wbrvG+Gb1fhlohjB07NjafxoWbxlO7CQAoaRUqnIo/VapUsbp167r+vXv32pEjR1w/ioeAmaV8yDyrZk2bUsyQ2alTJxswYIDrV+EwUUFwy5YtrnZTtZwXXXSR9ejRww0vbDNZLadPnz6xAqcKswqxgwcPduNnz55tHTp0cIVVHzQBFI32K7+vaZ8S7bvh/VZ31BMdB7Q/jh8/PtaSYeLEiTZlypTYvrhnzx7XAkGd7sLXvHlzmzZtmlWvXt0mTZpkw4cPd/P75rgap23QsjR9u3bt3HIAACgJNfPKxU2aNLHKlStbxYoVrWHDhm64vscOHDjg+lF8BMwsdjj3mK38cJu1bdjAKlcs+r/aFw5VMPQUNMMhb/ny5S4cdu/e3QXCLl26FLmZbCKDBg1yhVYtUxQ0FUS5KQlQdOEm59rHta9r312zZk1sv1XYVOjUOPUrEPqWCwqdtWvXdvu+1KtXz0aMGOGmVadpdSe+gk4Gbdy40T1q+gsvvND1AwAQNV1bqYCpGkzd0Eed+o8ePRpJWRWnEDCzlGos71qw2Hq2OM+uantBMLR4FPLC1z4q5Kl2Q4VH3zxWTeBUG6Lwp0JnYZvJxl+DGW4CqxoP1Xz4mlItf9asWcFYAFHQfqaaRO23+sJVQOzdu7fbz9XvWzGoU2uCxx9/3F2zUhS6xlp8DWpBQRQAgOLQtZU7duxwgVLBslKlSm7Yrl27uO4yYgTMLKRwOe7lRdaj+bmRhEs1iws3iW3btq0LeJ6CnkJfMsW9m6wKubr7pC98qvZENaUASkavXr3cfquQ2bRpU7fPqYZR/eFaz0QnggpLIVPLUC3prbfeSsgEAJQY/calQuaxY8fcc50g9f2IDgEzy0QdLr1wrYW/gY9CpsKmbx6r6zR1HZUvdPqazvhmspo2fJ2lai4OHTpU4DgtQ7Ulfrj/yRIVhAFES/u1aiu1D4f3MfWrqXwUTYkUJB9++OFYoNT1mgAAlDQfMnXfgMOHDwdDESUCZhYpqXCpC6D9tY+ewuX06dNdvw+S/jotz9d0xt99trD0u0SJCp9aL3eRBYoufJMfdf5OsaqxVG2l6DpLT/ub5tFJJj9PYZq26o6xkydPdneR1cmkbdu2xU4cKbiOGzcu3zEEAIAo6IY+Ybm5uQXe1Cd+ehROzoksbnS86p111rF9m+BZ2VKUbdd/cvehQ9agerVgCIBUyvJxojDKy+sEAJScsvpd4u8poGCZisKlvzykrMmU/w8BM0NRGATOjPKyr3FMAQAUF98lmS1T/j80kQUAAAAARIKACQAAAACIBAETAAAAABAJAiYAAAAAIBIETAAAAABAJLL+LrIAAAAAUB5kwl1k+ZmSDMVtoIEzo7zsaxxTAADFxXdJZsuU/w9NZAEAAAAAkSBgAgAAAAAiQcAEAAAAAESCgAkAAAAAiAQBEwAAAAAQCQImAAAAgKy1e/duW716ta1cuTJlp+k0PYqOgJlFjuYet9fe3+IeAQAAAJht3brVjh8/bjk5OSk7TafpUXQEzCxSqUIF27x3n/3m9WWRhsyDBw/aqFGjrFWrVvk6DdM4b+bMmfnGDxw4MOEZoETLmzBhQjD2pKVLl+Yb77v4dSYTvy16Xhjr16+3nj175luGnmu4JNu+ROuJnza8nHh6HxJNq/dR72d4nDr/vsW/Xt9p3eHx8f8Tv7749x/ZLdE+WNDnsrj0mRsyZEiBy9c4v88VZVvi9x11/vMPACjfcnNzg77kGjVqZNWqVXP96UyP5AiYWSQnx+y6Du3tnNq1Ig+ZBfGF1bFjxwZDTlqxYoV17do1XyFPhcY+ffrY7NmzgyEnTZ06NWkgDdN8HTp0KLDgqHHx2zJ58uS0C6wKY9rGLVu2BEPSp/WGQ6YKvYMHDw6enaTlavnh6XzhWu9DlLRuvR+9e/e2zp07u//J/Pnz3Tit85lnnrFmzZq59x7lz4wZM2zDhg2uW7RokbVu3ToYc2Zpv7/nnnvsoYcectsyceJEmzJlSlonk/zJF/GvRZ1e2+bNm91wAAAKUr9+fatatap7VC0mioeAmWVKOmSGC6STJk2y6tWr2/333++Cn4LKvHnz3Di1Xx8wYICbZ/z48a4QqG7MmDEuYGmcptG0mkfzKvxMmzbNzeMlmk60HckKn75QqfVqvuHDh7t17ty5M1YYTVYTGg6nmk/z++7WW291w8PC26fpZePGje5RAdIHxvD75qfzoVfbocK0tlEhcNmyZUnXGX6P1en9DPPbHH7/9X7ogOmD7uLFi906ly9f7tbZv3//UgsWgFenTh1r2LCh69dj7dq1Xb/2kdtvvz3p/q5jhj7b8ftCt27dbNCgQcEzAAASq1WrltWoUcNOnDjhyop6RPEQMLPQmazJVGBbsmSJ6x85cmQsqCh4jhgxIhYc165d6zr1a5jGaRrRPJpXtCwtMxFNp5oNUQhTOErE19YpKKqZnEKewlanTp2CKRJTAVZBUBTU4gusV155ZdIgpnl9e/2WLVu65wpyomWpsOsNGzbMbZ+2XyFPF5T7gK4aT4VBr6B1FuTQoUOxoN28eXP36N8Xrevll192r1XrpPYS8XSiJdzUNL4JtT9R48erP7zf6vMfboLr96tk9Jlv2rSpC4tajva9fv36xY4RySh8rlmzxn22C6Jlqonuww8/nO/1pHqd8a8jfGLKNztXF379WqamUyjWuFmzZrl1h98fbfe1117rHgEAZ1aFCqfiT5UqVaxu3bquf+/evXbkyBHXj+IhYGYpHzLPqlnTpkQYMlVT4AtVKmDpTM/27dtdUOnSpUsw1UkapiayorDjA4+GaVyY5tUwLUvLTKZt27axcJZsOrWf96FKNP24ceNcYdWHXBVm4wuv4VDWq1cv9xguRKqLL4D6Jrvq1K91qbCbaFmeCtPdu3d3/artLOh9iafXrea1fntUmA1TmNZwLUuvMxysw7WYCvgaT+0l4ukzNXr06HytEXTyxDfpVlAaOnSo+yz5mnT133nnnS58qVPNe48ePWLjP/roI1u3bp2bPxmdmNHnV59dLc+flNF+rtrMRGFT41Tz6a+ZKciePXts27ZtbnsUYFO9zkSvQ/ueaBqdQPKtF7S94dYXOhYoIGtc37593Tbq2OPpxNIll1zCvgcAZ1jNvHJxkyZNrHLlylaxYsVYyxkd8w8cOOD6UXwEzCx2OPeYrfxwm7Vt2MAqVywf/2rVCKgQqBpOFRzVKbSq0KpC4cKFC9108aEvCgpzjz/+eL4ayNKkmlPfjNnztZiiMEvtZfmmYORPVvjaOe0j8a0RNJ1vWq2gpBM4ClCePlf79u1zJ0DUqT9cq6ha+zZt2gTPTqcTNzrZ4oOc+v326ASMwme6tCz/msInhOrVq5fv857qdaplgYRfp1oUiKbRtH7f0mtVOPW1lOETO365vlm/Os1fEscgAEByurZSAVM1mLqhjzr1Hz16NF8rExQfATNLqcbyrgWLrWeL8+yqthcEQ4svfC2hrm/SmZ/GjRsnrFHUMAU9UYHU1yqqwKgavjB/PaCW5c8mJRJuZptoOjVH03J8wVGdQqYKfGoyW1Bz2XDNpw+ieo16rbqeMxEtS7UYCnOqtdD1qBJelq+h9HQQ882KVXD20xXU7NfT6/Y1LurCTW9F2+Gvv9Rr9bUxXrgWk9pLhPdnnYwQBSX/mfS0ryk0+pr5+BYA+ryrlk7HgMLUKopv5qoQ6qmGUevQTX8UxsJhNSy8XZ7mLWifFYW8orxO8eO0H/kgqxNY2n/jj4GeWl6EA7hqZFM12QcAREvXVu7YscMFSgXLSpUquWG7du3iusuIETCzkMLluJcXWY/m50YaLhMJN/dUczN/TZEKcP7GNT7Q+eatCoi+OZ1oHt3wRlRoS1YDqOm0DkkVjnwthPgCoYSby8bTMDWHk0ThrCCqGVH403xqehdeloJtuCmrmtLpPfDNacPNflU4Dp9Fe+6552Lvabq0bh8iC3P3XECfHYWq+JMios+3P3GicOb3L0+hSQEtUehT8Crs2WEFTt3xWPtRsmOCtim++Wk6ivM6NU5N4sMnetQVdBdebX+7du3ciTR1Oh5qGwAAZ5Z+41Ih89ixY+65vp98P6JDwMwyZzJceuGb1vjrA/01iSqs+Rv6qJDl79Dqr13UtJrHB9FwczRJNJ3WFa7tCPPNzsLz+esRRY96ruGJAqTWr+0Qf5MgdX67k1HB0t+oyN81N7yscG2HQqhomXpPwu9LePvU3XvvvW64F36P1YVvOhKmmk3VZmr6dH/uARDtQ+ETE/rs6DPkQ5FOiCiYzZkzx40X9e/fv9/t7wqYut7R/xyOqGWBvtAT8SExPL3WqZNQ2h9Uy5osnGp7dHzRiafCnBCSorxOnfARTVPY/UonoTT/3Llzk9bIAgBKng+Z+q46fPhwMBRRImBmkdIIl6KApAKkAk2YwpXO8ofP6iv4qCmZQmKYQln89YKJaB1al9aZiJavdarQGuabAhbUbE60fm1Houn0em6++ebg2elUaNTrUqFYtZTJlqVp9B6Em7cme19SNRkuiK9VVdgOF5KBguizqLs1h08WqRbR/+SH9r3p06e7fcqf6FCLAZ0M0Wc+0fiOHTsmvQZT86hVQXh6rVMnZbTP6lEnXfR5ThQ0dXzRZzw8vzo9T3YiSoryOletWuW2V9OoBtSfxFIXfwOweNoXdadC1WQmO34BAEqGbugTlpubW+BNfeKnR+HknMjiRser3llnHdsnv7FEJivKtus/ufvQIWtQPb1rnwCU7eNEYZSX15mpVNupu9IqMIdPLgFAWVJWv0t0glKXPShYpqJwqZOIZfFkYKb8f6jBzCL6aRLCJQBkHt+KQM1rAQBnlsKiWp3oGJyq03S0NCkeAiYAACVE13j27NnTNbVNdoMxAACyCQETAIASomtEdYfZgq4dBwAgmxAwAQAAAACRIGACAAAAACJBwAQAAAAARCLrf6YEAAAAAMqDTPiZEn4HM0Pxm3XAmVFe9jWOKQCA4uK7JLNlyv+HJrIAAAAAgEgQMAEAAAAAkSBgAgAAAAAiQcAEAAAAAESCgAkAAAAAiAQBEwAAAEDW2r17t61evdpWrlyZstN0mh5FR8DMIkdzj9tr729xjwAAAADMtm7dasePH7ecnJyUnabT9Cg6AmYWqVShgm3eu89+8/qySEPmwYMHbdSoUdaqVat83cCBA2NneJJNo2EaFzZhwoTY+KVLlwZDT/LjZs6cGQw5KTxcnZ8/UTd//ny3beoPL2f9+vXWs2dP16kfKK8S7a+J9lUAALJBbm5u0Jdco0aNrFq1aq4/nemRHAEzi+TkmF3Xob2dU7tW5CEzkRUrVtjQoUML1YxA0y5ZsiR4ZrZw4cKgLzq1a9e2wYMHu/4ZM2bEtm/WrFm2ZcsW69+/v7Vu3doNA8oz7R8bNmxwzYFkzpw57rEk6aSPThgBAJAp6tevb1WrVnWPqsVE8RAws0xJh0xfINWjbN++3Xbu3On6PT+NukmTJln16tWDMeZqFxVMb7jhBmvWrJkLm4Vt5z5o0KDY8ocPH+6GjR8/PjasW7du1rt3b+vcubNb19q1a2PBVutU7SaAU7SP9ujRwzZu3BgMAQCgfKhVq5bVqFHDTpw44cq0ekTxEDCz0JmsyezatasLbelQ87vFixe7/iuuuMLN6wNg1HQGKlyL+fTTT7t1UXsJnE4nYObOnZvv5IuG+abm8c3N1bQ93Lw2PE61k+HnWs6QIUNcs3SNGzt2rE2dOtXN98orr7imueGm8r75bngZAABEpUKFU/GnSpUqVrduXde/d+9eO3LkiOtH8RAws5QPmWfVrGlTIgyZCm0qGOpRtYfxNZTip4kveKp56rJly1zN4kUXXeRqTKQkmsmKr8WcPXu23XXXXdReAnH8vqqTPX379o2dfFEoVPN3hUG1CtB+qwDqr11es2aNG6ZxOoGjTvOkMmbMGNfaQMcOzfu5z33OHQfCxwAdJ/bt2+f2XwAAolQzr1zcpEkTq1y5slWsWNEaNmzohuvk5oEDB1w/io+AmcUO5x6zlR9us7YNG1jlitH/q1ULUZgbgyxfvtwVHrt37+5qGLt06VLkZrLpCNdiCrWXQH7h5uxqHuuvjVSrgubNm1unTp3cc+1LCqDah+XGG290w6Rt27ZWr16905rKp0tBUoHVh1eto127drHlAwAQBV1bqYCpGkzd0Eed+o8ePVoi5dDyjICZpVRjedeCxdazxXl2VdsLgqHF5wukviZStYPxNwYJF1p1vaSEm8f65nF9+vRxgTNRM9nwtWCa198uWoXewvC1mNReAgUbNmyY28/0Jbt582a3b3fo0CHWGkG1mX6/9Hdk9rWf69atc8OLQkFSgVLBUvu6foOMfRUAEDVdW7ljxw4XKBUsK1Wq5Ibt2rWL6y4jRsDMQgqX415eZD2anxtpuCwO3zw2Gd9ErmXLlu4xXKupAqcKuwqJvikDgGipBlJNU0Uncnwz1nCnJq4Kl/fcc4/bJzVM+3WbNm3cfEXVq1cvdwLK12Kme103AACFod+4VMg8duyYe67vPt+P6BAws0xJh8vwNVuqeVRBUE1dw8LXYKomQkHRN48dMGCA+0kEX2BVbaf4QBm++6vWoWX4Zq40cQVKjn7GxzdNVbNX7ZPxv1Mr+jKuU6dO7LfC1PogXIOpk0QKi77p/LRp01LWcKoprn5e6I477rB+/fqddl03AABR8SFzz549dvjw4WAookTAzCJnuuZS4fKhhx5KGfp0Vy4fJHVDj3DhUQVZHyj1EyYq3E6fPt0NC1NtimpPAEQnfDJIzWNvvvlmN1z7oa7HHD16dGy8msSqhtFfl+mbz2rfDtdgKiCKH9+xY8d843USSeFV43yA1TFBy9X1MTomAAAQJd3QJyw3N7fAm/rET4/CyTmRxY2OV72zzjq2L17TrdJSlG3Xf3L3oUPWoPrJmgUAqZXl40RhZPrr1B2ndY0nJ5IAIHOV1e9MtZLTiVQFy1QULps2bVombzaXKf8fajCziH6ahHAJoKxRzegTTzzBzX0AACVCYVEta9RaJlWn6cpiuMwkBEwAQKnQdZr6qSPdUfqWW27hGmsAALIAARMAUCp07eWkSZPcDb+6desWDAUAAGUZARMAAAAAEAkCJgAAAAAgEgRMAAAAAEAksv5nSgAAAACgPMiEnynhdzAzVFnedqAsKS/7GscUAEBx8V2S2TLl/0MTWQAAAABAJAiYAAAAAIBIEDABAAAAAJEgYAIAAAAAIkHABAAAAABEgoAJAAAAIGvt3r3bVq9ebStXrkzZaTpNj6IjYGaRo7nH7bX3t7hHAAAAAGZbt26148ePW05OTspO02l6FB0BM4tUqlDBNu/dZ795fVmkIfPgwYM2atQoa9WqVb5OwzROdKZn4MCBbrgeE535mTlz5mnL0LDwuAkTJrjn3vr1661nz56xZYa3ZenSpcFUJ+l5eNmaT/N74XnjtzF+PUA2S7RPx+8v6fLLit8fPX9sSDYeAICSlpubG/Ql16hRI6tWrZrrT2d6JEfAzCI5OWbXdWhv59SuFXnITGXt2rW2YsUK169HPQ9TgBw7dmzwLHoKpoMHDw6enbRlyxbr06dPLMSGaRvnz58fPAPKpxkzZtiGDRtct2jRImvdunUwJjr169e3WbNmWbdu3YIhAABkFn1XVa1a1T2qFhPFQ8DMMiUdMsMF0kmTJln16tVdDYaGN2vWzG644QY33cKFC92jaPzixYtd//jx42Pzz5s3z2rWrOmGF4cC5NSpU11/ePuGDx/uhk2ePDlhzUyy4QAAACgfatWqZTVq1LATJ07Yzp073SOKh4CZhc50TaZqCpctW2aNGze2fv36uaC5ZMmShE1NFQD9cNWWXHnlla6/qMLhVYEyXEsybNgw69y5s9u+5cuXB0NP0rQaPmXKFLcMACfFNzUPtwDwTcn9uHCzV30pqymshoeb2yZqQhu/jnDTeB0fhgwZYs8991xsXTRdBwBEpUKFU/GnSpUqVrduXde/d+9eO3LkiOtH8RAws5QPmWfVrGlTIgyZaobqC4W+4KnwprDWvXt369Spk3Xt2jVfM1nVcvrmqxqu8ckKjKqJ9MtXpyauWnYyhw4dss2bN7v+Xr16uUdPzRy0TbJx40b36GlahczZs2fbnDlzgqEA1qxZ404YqRWATgj5k0IKijohM3HiRDdO0+h6Fe+BBx6w6dOnu3H9+/dPevJG4XL06NGuBYOm1d36dDOFcJDds2ePG69O45s3b27Tpk0LxgIAUDRqOdekSROrXLmyVaxY0Ro2bOiG6/vqwIEDrh/FR8DMYodzj9nKD7dZ24YNrHLFkvlXa4f0NYgKbQqTPXr0cM/DzWRVs6gCqWoUxQfNcK3GmaaQq9pWFaBV+wKUN+ETRqpl1P584403upMz0rZtW6tXr16+/cOf0NE0F1xwgesXXWPt59O+tW/fPncCKJ6OCyNHjoxd7+lPQOk44gOp1jlixAg3zo9XCE0UWAEASIeurVTAVA2mTpCqU//Ro0dpJRMxAmaWUo3lXQsWW88W59lVbU8VAosrfI3joEGDYs1jxRdW/c184pvJqvCpm32oRmLAgAFumJYXLjSqVtEvX51qMBQCk9HdvlS7Ib7g62nd2gZp2bKlewxTAVcFXYXd++67LxgKlB/h/dlfUx1uBquTQOvWrXPTaty9997rgqDGxd/xOR3a1xUU/T7r6QxyskAKAEAUdG3ljh07XKBUsKxUqZIbtmvXLq67jBgBMwspXI57eZH1aH5upOEyEd88NhHfTFaFShVGfdhUQdXXchZXeFkKtuEaUTWp0zao1rR3797B0Px0zajC7ptvvllgU1ygPFC4vOeee1zTcYVOnTxq06ZNMPbk/qYgqnFS2JCp+Zs2bXraySDRiSR/e3gAAEqCfuNSIfPYsWPuuVro+H5Eh4CZZc5kuFRwTHR3WHX+Dq6+maxqLVQb4pvj+VpOhUMVOovDh0QJN/nzd5YNN92Lp3WrKV5BtaRAeaEv2jp16sSCnk4Q+RpMnSB65JFHXL8kahWQDjWlD9/BWccRXa+p67eLeywAACAVHzJ1vf/hw4eDoYgSATOLnMlwKStXrnQ1HQpnXbp0CYae5G+488wzz7iaQdVaxFMoVTPb4vK1KlpemGouVQOT6vf3fFNZoLxTyJMOHTq4kzRqQutrMBU61WLBn8DRyaWbb77ZjSsM7Y+6UZBu4KXlaF060RTFsQAAgER0Q5+w3NzcAm/qEz89CifnRBY3Ol71zjrr2P5U866ypCjbrv/k7kOHrEF1mpkB6SrLx4nCKC+vEwBQcsrqd4la4ag1nYJlKgqXqhhJ1votk2XK/4eAmaEoDAJnRnnZ1zimAACKi++SzJYp/x+ayAIAAAAAIkHABAAAAABEgoAJAAAAAIgEARMAAAAAEAkCJgAAAAAgEll/F1kAAAAAKA8y4S6y/ExJhuI20MCZUV72NY4pAIDi4rsks2XK/4cmsgAAAACASBAwAQAAAACRIGACAAAAACJBwAQAAAAARIKACQAAAACIBAETAAAAQNbavXu3rV692lauXJmy03SaHkVHwMwiR3OP22vvb3GPAAAAAMy2bt1qx48ft5ycnJSdptP0KDoCZhapVKGCbd67z37z+rLIQ6bO5AwcONBatWoV6/RcwxONUzdhwoRg7lOWLl2ab5qePXva+vXrg7FmBw8etFGjRuWbRp1fV7LxvvPTidYfP17rT2bmzJn5ptXzdPjXpO3S9oX59yb8OuPXo86Pj39/fOe3O9F7refvvffeacPDnbbtiSeecP3h90j8+6THRNvrJXvvw6+7sO85Sk/8Zyn+c5Fp9HnU51LbmujzmYw+k4n2ZQ2L32fD+8KZoG04U+sCgPIsNzc36EuuUaNGVq1aNdefzvRIjoCZRXJyzK7r0N7OqV0r0pCpQufQoUNtxYoVwZD0TJ06NV/hSf2DBw8Onp20ZcsW69OnT8owp3VrG/bs2RMMKZjWpfWnSyFo7NixwbOTJk+enHYh9kwo6v/Bu/zyy61z585u/vnz57then3PPPOMNWvWzAWM4ijse47So//7kCFD3P9sw4YNrrvzzjtt586dwRTR0+dX6yzKPqV577nnHnvooYfctk6cONGmTJly2gmdwhg0aJBNmjTJqlev7p7rGKAz1moaNWbMGDessIrzGgEApad+/fpWtWpV96haTBQPATPLlETIXLt2rQslCifLli2LFUivvvrqYIqTFFLmzZvnxo0fP94NW7JkiSt0KUD68DFjxozYMoYPH+6GJQpzfjotU8vevn27HThwwBUKNVzbom0Kr3fWrFluXq1XwutSfzKbN292j9puTavtUvhVgVvbr/CVqIayOLQOv22LFi2y1q1bB2PMBgwY4Aq6fny3bt0K/D/UrVvXvXY99+9XeDq9Z+ecc04s4C9evNi9luXLl7vX2b9//3zrTyX8vmrZhw4dKvR7jtKjz3WLFi3c58S78MILC/UZONPq1KljDRs2dP16rF27tuvXceP2228v9r6pY0DTpk1jgRMAUD7UqlXLatSoYSdOnHDfj3pE8RAws1BJ1WSGa77kxhtvdGd6EunSpUssFKpWQIFGFKoUlrxhw4a5IKSQo7CTiHZ2jW/cuHGsgJkuBRxf8NR6w+sO6927t9sO1WKqiZzCsEJep06dgikyR2H+D/H865w9e7a9/PLL7v3R/6m4tZdh6b7nKD3ajzZt2uT2q0R80009+ia0eh4WHqcu3ApBtYE6IaPgp3E6+aH9acGCBa7Fgj9Zo3Dom72qS9acWp9vhb9p06a5Ez6qYezXr1+xwqDfRm2HXpv2fe334e0Iv8b4JsSax4/TcnRCKP41vvLKK7F1eFp2subIGueXGd8MOH594WUCANJXocKp+FOlShV3kl727t1rR44ccf0oHgJmlvIh86yaNW1KMUOmQpYKTuIDWLgwmYivGVMorJm3Db6GsFevXu7RU8Gxe/furn/jxo3u0VNtm9bla930mE6Q0jR+HgWpDh06pCyQqc198+bNg2fmQti4ceNcAdbXHEZdu+ELs4kKjH67Nc4XRovyf4gXfm9GjBjhXldhay/F/2/8NhTlPUfp0f/7lltuyRf24vkWB6qJVnjSiSL/edOjTiT4GnI96nk4IOpzoBCo8foM6/lll13mathV6y1q5qrmrn4Zuv4lmZYtW7pt6tq1q/us+RMXOgGl2szi7JsKrGq94FsVaNl6jTox5lsSaJ0KuKLX6ZvTapyarmtfiH+NqhXet29fviC/cOFCt6z4Y5mWqW3w72m4GXCi9QEACk9l0iZNmljlypWtYsWKsYoLHWvVSg7RIGBmscO5x2zlh9usbcMGVrli0f/VKripsOSbvYoCTnzBVIUoFVhV0NJ4UUHKnxkqDhVedc1UujStbyoqKvhp2xJdG6VhGqeCneZRp5pXFWRVyFSBUOLD8ZmW7v8hFV+LKVHWXhbmPUfpU4hSWOnRo4c7IeDDo6ew5fc5ffa0Lytw7dq1yz3qs+dDkj/B4PcVSbcFgD/5pGVccMEFrj+eau90Akrbq079/nOv+RU+o6Tl6jXqNfngqv1GIc/XPGq9ahouCpKJAq5eU9++fWNN9zXvmjVrXAuPePHBU++dgrMPp+msDwCQnK6tVMBUDaZOaKpT/9GjRxO2KkHRETCzlGos71qw2Hq2OM+uapu40FZYKmyqcKewJwoQ+r2gZHwoDNcO+sKkpx3aX7sXX0jU/D6wjB49utBBRbU0urZRwdE3w/UFvTAN07iRI0e6edRpvSogqxBdUs1lw9dgKjiGC4xan6+t0Pb5QqcU9v8Qz4cBKUrtpWjdftt9CJF033NkDv3/9P/S/zRcAxnPX/d4+PBhVysX31xd+7gCWLonO/R5v/fee12Q00mp+Ca4nvZ7hTI1p/dU46gWBbrpj+ZX+IuSgpyOVdpPfE29TjjpfVKNqcK5jg0aluqOtgqT2n4d69Qaol27dqftc3rP9N5pmX59Cv2PP/54odcHAEhM11bu2LHDBUoFy0qVKrlhOnHKdZfRImBmIYXLcS8vsh7Nz40kXKrQGa7daNu2bawGLExBUMHMBw/fhE0FSdWSiApJ4UKsmpz5G9ckKiSqIKYQpKCS7l0jVZBTYdVPq0Dlm+EWRAVVP48vYIq2zTeXLU3p/h9KQ1Hfc2QG//+KPwEUpqCzf/9+d5c93XBHz+MVthm5ptXJFR0vJFnITESBU9ci69gSPgETBZ0UU8ALH8/UhW/G5WuAFXJ//OMfJw19Oi7q/VK4VC1lopYQeh/03oVP3PjOH0fTXR8AIDn9xqVC5rFjx9xzfZf5fkSHgJllog6XXvjMus6i+1CokJMOXYvlrx8M1wr467y0/GSFRH8jINXUzZkzJxhaMNWK+msYw+tJVLjzw7R8P49/jaJHPdfw+GaEYeH5U02bSrJlFff/kC4Fet/cWV18M9zw/1BNbHVhfGHec5QunawIn+jxLQnC1yHr52t8iNF4Nc3W/71BgwYu1Om5hofHF+Z/rXkeeeSR4NnpLRg8H9DCN7bSZ1E/q6LPv0KZ346oKPCpxUKyk1rPPfdc7L1RTW5BAVfL0vt23333uYCerCWE3rvwexpWmPUBAArmQ6Z++k6tchA9AmYWKalwqQKNv67OU6iZPn162gUdX1MRvn5QtBw1O/Nn6RPROlRAk3R+mzL+hj2eCqKJ1qNh4WsHPV+bEL/NpSWK/0NJUa1WYd5zlC59ltTs3J8M0MkKnbwI/690sxoFLD9e+6Afr2a1eu5PvCSaP54+o7oeUScudMJCzZF0MzC/DWpBcPPNNwdTn6Jjh1oQ6LPkp9WJDK1f+6ffjmR3ZpXwiRl16Zz80WtUrWL4pImvYdX750/AaN3f/e53Xc1m/Gv04VQngHTtj8KlXk8ieu/C76k6v4xk6wMApEc39AnLzc0t8KY+8dOjcHLyvuSzttHxqnfWWcf2bYJnZUtRtl3/yd2HDlmD6tWCIQBSKcvHicIozOtUANONdHStI4pPwfdHP/qR3XbbbQRDAGVaWf3O1HFY17orWKaicKkTjKV98r4oMuX/Qw1mFtFPkxAuASCz6FrzRDf3AQCcGQqLapGiliSpOk1XFsNlJiFgAgBQAnSdq5q16qx5oua/AABkIwImACAfXX9I89ji03WVuk40/meIAADIZgRMAAAAAEAkCJgAAAAAgEgQMAEAAAAAkcj6nykBAAAAgPIgE36mhN/BzFBleduBsqS87GscUwAAxcV3SWbLlP8PTWQBAAAAAJEgYAIAAAAAIkHABAAAAABEgoAJAAAAAIgEARMAAAAAEAkCJgAAAICstXv3blu9erWtXLkyZafpND2KjoCZRY7mHrfX3t/iHgEAAACYbd261Y4fP245OTkpO02n6VF0BMwsUqlCBdu8d5/95vVlkYbMgwcP2qhRo6xVq1a2dOnSYOhJM2fOdMMnTJgQDDlJZ34GDhzoxvlO04b5edVp+VpPmJbpx/vlJ1pueHwi2uZ0pw3z6+rZs6etX78+GHpS/Hvi15FoWv869JhomeH3Ifz+FvS+x78mdVouZ9yQDv/Ziv9ciT6n8ftqadJ+ov1Fn/FE+1cyyV6H5r/22mtTLifd6QAAmS83NzfoS65Ro0ZWrVo115/O9EiOgJlFcnLMruvQ3s6pXSvykFkYKrR27drVVqxYEQw5aezYsQmDpCxbtsy2bNkSPDsZ7pYsWRI8KzoVDkePHh08O2nq1KkJC9bF0bZtW+vcubN7DTt37gyG5n8dvXr1co8FmTFjRsL3J0wF58GDBwfPgOyl/eeee+6xhx56yDZs2GATJ060KVOmpNxHCtK6dWt76qmn3GNB0p0OAFD21a9f36pWreoeVYuJ4iFgZpnSDpnhQDd8+HBXKFSn4CSzZ8+2OXPmuH5PwUvBbPny5cEQs7Vr17qAmiyUNWvWzObNmxdb/pgxY4Ix+Snsadl+W8aPH++Gb968OVaLE0XNnw5I3bt3d/0LFy50j6L1b9++3YVPhdBUEr0/YaqRUUAWvRb/+tVdffXVbjiQTerUqWMNGzZ0/XqsXbu269ex5vbbby9W2AQAoFatWlajRg07ceKEK7fpEcVDwMxCpRkyFRIV6BSohg0bFgw169atmwt5snjx4nyFwnPPPdcFxvBwhTQt4+KLL3bPi6pTp042YMAAF8rUxE61qFpu7969gymi48Owaix9YPXvh8KnQmhBtJ3atsmTJydslqdl+qCucDlo0CDX7914440p1wEUlj534Wbp4RMyehwyZIg999xzsWasOgkSnif+BI4/seOXpxr5ZPR5btq0qU2bNs0tQyeS+vXrZ9WrVw+mKDy/zdrHEjWj9cPC04mGaZw6v+3heeNfl96T8PwAgMxQocKp+FOlShWrW7eu69+7d68dOXLE9aN4CJhZyofMs2rWtCkRhkw1zfQFKHUKbGEbN250j4kClQ9gqj08dOiQ65cLLrjANan1zWRVsFNI0zIaN24cTJWfpuvTp09sO5I1eVVBVAVUT0FWBURtm5ahdTZv3jzW5r44fDNZ1byqBlYFToVmSad5rLZT76e2S80Aw++R+NpQvYYuXbq4YeHCrrr4wjJQkPj9WZ2vIRfti0OHDnXT+Zpy9d95552xk0F79uxxrQl8pxMkmmf69OnuTnzav+bPn++m1Ty33nqr9ejRwy1L43UjhYKarLds2dJtk44RWrdOVon2B9VmFidsar8Mn9hSGFyzZk3SE1DaDs2jbdfJHn8yKP51qVu1apWtW7cumBMAkAlq5pWLmzRpYpUrV7aKFSvGWsjoOH7gwAHXj+IjYGaxw7nHbOWH26xtwwZWuWLm/qu1s6tgpmClGr9UzWPTpcKxak9UKFRhUGFSgVXBVMHM1y5q3cUppHoKrb6ZrEK0D7AKnek0jxVf46qmsm+++WYwFCgZ2i98IPKdb2kg2hcVEFVr6Cl87du3z32+pV69ejZixAi3D+nkhw+C2h80TPuXP/GkeTSvD3Aar2nDzcrDtJ9qXr9t6vfXcWsfU/gsDu2X4deiY0K7du1OOznm6b3xAVf7ql6rb4Yffl2iFhxt2rQJngEASpuurVSZUzWYuqGPOvUfPXrUlRkRHQJmllKN5V0LFlvPFufZVW0vCIYWX3yB1F/T6PkCn2olfK2A5wuRiWoMVSPnm8nqGsRUoUzThq/B9IW+MNWaKKj6QqEKjbNmzXLPFTpLormsD8V6Ha+++qoreKbTPNZTgVuFdb0+XV+2adOmYMzJ688UkLVMFYRFTQb1+sOhAIiKQpxq1sMnYLTv6rpIBat4mk7Tax9PRPMsWLDABTNfY6qAmeh44WsTw03t9XnX8nXTH+1jxd13tV/27dvX7U9av37/TCelCkuvS+9JFC0hAAAlQ9dW7tixwwVKBctKlSq5Ybt27eK6y4gRMLOQwuW4lxdZj+bnRhou0+GDomrg7r///mDoyTvL+qZ3KlCGC6ziaz403+OPP16oUJZK+JpIFSL9bxtpnb65bFR8M1nVXD799NNuWGFrYnXXypEjR7ogGa7F1Hb6GlKF46jvhAvEU1BMFP7UNNU3KyoMzXPDDTe4prH+5JC6SZMmnXZMSEaBUyePVDMaxb6rY5aCpb9WUseFoohv+q/QyRlxAMgs+o1Lhcxjx4655zpW+35Eh4CZZUozXIoPR6JAGa6lkHATszAVLlVg9FKFMoWv8DWYiX7+xIdd1WL6GpMOHTq4ECvhZShoJpPOujwfAn04LEzz2DA1SVRT2XgqXGuZovfUb5MP70CU9NlVcArf2Vj9+/fvL1IQ0zyat6A7JXuaVrWC/vpN0X6n6z+1T6s1RRQBzr+OJ5980jV7TTfohvl9PLytai2hQgwAILP4kKl7CBw+fDgYiigRMLNIaYdLT3c3VfPV+AKoCoTJfk5EfCAsaiiLp7CrMOkDmed/3kPbUxLC4bioNbEq5PqmsmFalm/mG0/D4u8sCxSHPm+6WY/2FX8yQ01T77333iIFMc0zbty4fMtTl6g2PtG0OkGkEyvaf/WoE0fxd6kNU01/eD2JboKl9ShYqla1qE1u9T7pJJVu+uPX1bFjR67BBIAMoRv6hOXm5hZ4U5/46VE4OSeyuNHxqnfWWcf2ZfMLvijbrv/k7kOHrEF1rgMC0lWWjxOFUV5eZ6ZQk9t77rnHfvWrXxXpJBMAZKKy+l2iE5G65EPBMhWFS13vXxaP3Zny/6EGM4vop0kIlwBQutSUVz81VNAdaQEAZ46OxWoFoxYrqTpNx7G7eAiYAAAUgwKlrs32zWNVONHZ74IuCQAAIFsRMAEAKAZdx6k74YbvjEu4BACUVwRMAAAAAEAkCJgAAAAAgEgQMAEAAAAAkcj6nykBAAAAgPIgE36mhN/BzFD8Zh1wZpSXfY1jCgCguPguyWyZ8v+hiSwAAAAAIBIETAAAAABAJAiYAAAAAIBIEDABAAAAAJEgYAIAAAAAIkHABAAAAJC1du/ebatXr7aVK1em7DSdpkfRETCzyNHc4/ba+1vcIwAAAACzrVu32vHjxy0nJydlp+k0PYqOgJlFKlWoYJv37rPfvL6sxELmhAkTrFWrVrGuZ8+etn79enemZ+DAgbHnYX6emTNnuudLly51z0eNGmUHDx50nfo1TOPCwuPiu/hp/XLjO79eSTaNhofXpdcSPnul16TXFj88Xvzy9dpT8e9deL5w598n0WsJjwtvT3g54dfstz3+f5VsOSg/Eu1f/rOjx4I+vxrnx+uzM2TIkNP2fS/V+JIQ/9rC+0QyyY4P6jQOAFA25ebmBn3JNWrUyKpVq+b605keyREws0hOjtl1HdrbObVrRR4yfUiZOnVqMKT0DR48OF/4Smbs2LFpFS7DVqxYYfPnzw+epUfv0ejRo4NnJ+n9iqJg6gvLei1h2s6uXbu6ddSvX9+9JzJjxoxYYJw1a5Zt2bLF+vfvbw0bNrShQ4e6+VC+6fPap08f69Gjh23YsMF1ahZ04MCBlPuUjBkzxnWZ6v7774+9tmXLltncuXNTBtxu3brF3ovx48fb8OHDY881DgCQnVSGqlq1qntULSaKh4CZZUoiZKqwOWXKFBdSOnfu7AprvtB16623BlOVPIUmv14V/GT27NmuvXzYgAEDXEE5PN3GjRvdoxeeRl2iwuPkyZMLVeOyc+dO9x75QqkKqLJ58+ZYQExUU6iDmUKg5pk3b541a9Ys3/s8adIke+CBB9xr1ThNo+Hafr0O0bq03N69e7t5FSDXrl3rhi1ZssTNp3VrmMbF/x+vvvpqtxyUD/pcKBxOnDjRBg0aFAw1q169un3rW99yj9mgefPm7lFnpLUPiPbF22+/vVD7NgAge9WqVctq1KhhJ06ccGU5PaJ4CJhZKOqQqQDnw42axCkQeVdeeaW1bt06eHbm3HzzzbFwtXDhQvcYTwVJ34a+ZcuW7jFdCokKiwrW6dTmSKdOndw2qdZSTepU26ggp9BXHD4kysiRI2Pvt0LAiBEj3P/FB8r4Wsynn37ajVPtZfj/pGHhGtobb7wx3/8V2U2fFYUvfWZT0T7vm4mGWwIU1ITWn1Dx8+mzGKZ5FfI0TbhZvYb7ecInY1RDr2kffvjh2Phk6/Z69eoVO/Gi2szatWsX+1gV3j51/v3Q9qsJsN9e0bBrr73WParT6/Tz0dwWAEpPhQqn4k+VKlWsbt26rn/v3r125MgR14/iIWBmKR8yz6pZ06YUM2SqBk7UFNPXAiSjUKZmd+FCWEk0q1W4UvM3UYgMh0CF4Q4dOrhO/YlCnp9G25eoVlGFU4VMTTdnzpxgaMG0TU2bNg2eWb5ArvdFNYYq1Pv2/enS2bTt27e75XXp0iUYepKG6f8i/v/kazG17XfddZebRq9RfAgWBWC9fl9IRvmhz4o+q6lqKrXval9QLbdCYjq1+toX1bIh3PT2o48+snXr1gVTnLRgwQJ3gmTRokUu+OlzuHjx4ljLAp0omTZtWjD1yX22Zt7xTONUi//MM88UGNTUHFz7jfYPHSN0UkoOHTpk+/fvd+MLQ9un98DX/OtRz7UN2sfq1Knjgru3fPlyu+SSS9w4nahSbbGfT9f5AADOPH2PNGnSxCpXrmwVK1aMfRfou0uXiCAaBMwsdjj3mK38cJu1bdjAKlcsn/9qhanHH3+8SLVzCmUqHKoQqZBXEAVUTa8CuS+ENm7c2IVthUwVNhUyVegu6eaH4VpMCddeat1qcuub74qCpmqH0q2pRfmhkyy++bhOTiispdoX9Dnft29fvpM6w4YNszZt2gTPTgp/LvXZU7jU59bvH5pfwdCf/NG+3K9fP9ev+TS/P6kST6FPTYAVSn1Y1b6ocKztV21mYU70+O3TvuKPJX4/UwsKbbP6te9rWj+9wrnnt1XzXXDBBa4fAHDm6NpKBUzVYOpEnzr1Hz169LSKBhQPATNLqcbyrgWLrWeL8+yqtsUrzPjrmBSaVHgsiAKZv0bQd/46yCj5ApzE18SoIKpaEF8DqeZx8fw02j5d/5gogKoQqyapak563333BUMTU3NTTecL5FqelqvnCp3FaS6rs2sKq3rv4wv3vmZU/P9JfC1muPYyTNfd6bWrQCx6n+KvZUX20mclvuY/KvqMqjavMAFOtYoKYAppvuWDwqw+26kCbTy9Jn2uw2FQ+6RqEFWT+Mgjj7igWpgTPdo+heb4Ws/w+9i2bVs3jfZJdQqxCuVaz7333uuOV3pdqZr2AgBKhq6t3LFjhwuUCpaVKlVyw3bt2sV1lxEjYGYhhctxLy+yHs3PLXa4FBWcFFZUaFKtQPgsz3PPPZeyyVxJUGhUKEoWoMTXQCrgFfWaJxVEFUbffPNN9/pT0bWS/v1RoVOFT9F2+OayhaV5unfv7vp1l1r/fmv5/uZL2sZ0rqfT+xBuEuv/tyhfwmEoagphWrZCmaeQWNDZYYVRNVmPPznlm89GQSFTJ6PUPDadfSVM26fQnCjs+hNc2k/btWvnWiuo8+FS9KiWA3pNQsgEgNKh37hUyDx27Jh7ruO670d0CJhZJupwKSo4qTZAVEunmgVfy6Az81EK12AoIO7ZsycYk3+cv64zfNObeL4GUvzNPjyFU38Nprpk1yGqYOhvpFMQXRupacLvj78GVFSQ99emFqVwqSaGPuT75fjla73aRl+YTUX/S/+6ta3aZi1boQPlg/bpvn37us9S+OSLTlroRjp6LCoFTO234ZtIqTZfX+jJ6LOrQFaYm2olo2WpKbpvruppH9dxoyi19X6Z4eOIHvU83AxWxyyddNNPovjWCppOtaZeYW84BgCIlg+Z+q46fPhwMBRRImBmkZIIl57O/qu5Wnxtl5puxjcbOxMUqlTbEf6JhUR8U1GFqPANQwojHFST0TQquMa/PyqAhpuiFpUCgW9yG6aaS70P6dby6H8VH5a1zdOnT3frQPmhfUefHdWK+xMOOmnRvn37tE9WJKLPkT5P+sz75Xbs2PG0azDjaXtUGxg+8VPUmr5Ey9JPFWlfDL/mwrRs0DJ1ksufQNKjTtb4a1RF+5buRqiaTL8/qfZTNZp+O9RU1t9wCABwZuiGPmG5ubkF3tQnfnoUTs6JLG50vOqdddaxfcGFmkxVlG3Xf3L3oUPWoHrh7lIKlGdl+ThRGOXldZYm1ZjqDroKouHgCQDZoqx+l6g1iS5bUrBMReFSJynL4on3TPn/UIOZRfTTJIRLACgd/ieNCnuNJwCgZCksqlWLjs+pOk1Hq67iIWACAFAMuvFWz549XbPgcePGFauJMQAAZR0BEwCAYtA10LrjbbKfPAIAoDwhYAIAAAAAIkHABAAAAABEgoAJAAAAAIhE1v9MCQAAAACUB5nwMyX8DmaG4jfrgDOjvOxrHFMAAMXFd0lmy5T/D01kAQAAAACRIGACAAAAACJBwAQAAAAARIKACQAAAACIBAETAAAAABAJAiYAAACArLV7925bvXq1rVy5MmWn6TQ9io6ACQAAACBrbd261Y4fP245OTkpO02n6VF0BEwUyoQJE6xVq1b5Og2TgwcP2qhRo9ywpUuXumF6jJ9e3fz5823gwIEJx6nTcrQ8L7xsvz5v/fr11rNnT9ep35s5c2a+ZWp94TNSfr50h0v86/fr1HSaPn4bxM+j7ZFk74mGh19nuIvfFr++gqYBUkn0eQt/hvXZDe9v4en95zkZP60/FoTpczpkyJDT9pWoFLRuAED5k5ubG/Ql16hRI6tWrZrrT2d6JEfARFp8oJk6dWow5MyqXr269ejRw/XrrJIKkN7y5ctty5Yt1rVrV2vWrFmscDl27NhgipNWrFjhpilKodOHztJ6/dr2oUOHuv+DOvVrGFBU+kz36dPH7VcbNmyIdSNHjrSdO3e6acaMGeM6b86cOda0aVM33aBBg1zIjD/h4/l9dsaMGfn2V1m7dq3VqVPH7a8AAJS2+vXrW9WqVd2jajFRPARMpKTC4Z133ukCjQqE8+bNixVGly1bZk2aNAmmTG7AgAGuTbufr3fv3jZr1izXr+VpuZ07d3bL07BJkya5AmpYly5d3HSaRoHS27hxo3tUYVbz3H///TZ79ux826p1axtk/Pjxharp0+ufMmWKW2d4G9XdeuutwVSFF/+edOvWLRhzkgrmGu7fn+3bt7uCvwrn+l/Eb8vVV18dzAkUzH+mJ06c6IJimJ7HfxY97WstW7YMnqWmfXbTpk359ldZuHBhbH8FAKA01apVy2rUqGEnTpxw5Sw9ongImEhJFzz7wPbQQw9Z69atgzEnz/jceOONwbOSpfWrBlKFVdVaioLikiVL3DgVZv1zUU2M31YVZEeMGOGmUzhTSEtX+PWrtkav2bvyyivzvR8lQQc7vebGjRtbw4YNg6EnazXV1NjT/yG8bUAy+kxLp06d3GMyvobStwpQDb5aBqg2XydX1K9hajKbqGWA9pkWLVrE9lfRPrpmzRq3v4rmCzfRDdeIqpZVTWnDJ4Tia0196wI/f7jprvYd35Q8vvm6f02J1qtl3H777W68ny9+PTS/BYCyqUKFU/GnSpUqVrduXde/d+9eO3LkiOtH8RAwkdLmzZvdo2+CqsJe+Pq/+IJbIgpoHTp0cNMX9VpB3+ROFi9e7AqIvjbPb5sKlKrpU78vwHoapunEv6Z0xL/+gigIqtmhf2/UJWtWm+o9GTx4sBunR/9cAVKhwNfGqoCvacKFaiAVfabV1DXdGkRNp1YFw4cPdy0AFi1aZPfee6/r17BENfDi91m/v4pOivjmsQppo0ePztfSQE3g0/0867jz4x//2J340vyq0deJGO+BBx6w6dOnu3H9+/d3tbbaDnUKyNq28HrDoXHBggXupJReq7bV1/j69ehaHQBA2VKzZk3X8q5y5cpWsWLF2Il7fS8cOHDA9aP4CJgoU3wzWRWQDx065JraSbY3t1NzWd+U0Rf2Vbj3FDRV2+IL8UBh6HMTrs2L8oRFuJms1qOwqZMl+hxr/41vaaBx4UBaEDWzv/7662Pz6wTMZZdd5vpF+4Wv1ddJnH379rnjhrZF/WqqL369/ngiCqTxrRP8ySYt84ILLnD9AICyQddWKmCqBlMnCdWp/+jRo0Wq+EByBEyk1Lx5c/for31U4UoFOz3XdYDpCF9vqHl9oa+wfC2kai1fe+21fM1jRWeiVIOh7VRtZpiGaZvFvybx1zZ6vkmqptHdxOJff0G0LeFrVNWphieRVO+JQqW//lK1PPG1xAqcmlfTiWpEfdNHoCD6TIdvluVPWhT0eS0qhbRLLrkkdjMuBbu2bdu6dWsbwvuiaB/2QbAgyeZPh/Zx1VDqWOJDtQJm+D0J0/ujGlsFX00bbk4LACgbdG3ljh07XKBUsKxUqZIbtmvXLq67jBgBEympMKggqcKh7ihZmmd5VNDzzWSnTZvmwmG46apCWvfu3V1/OJSp0Ohv1KNgp2am4TDqrxHTdD6w+SaEBb3+5557LmXz4OJQ4Vw1KVq3b96nZnzhGia/fUC69JlRiNPn6kzo1auXC2evvvqqtWvXzu2n2re0jyVqrq792d8qPpmC5k9F+/4NN9yQ7yZb6hLdXMzTcB/ChZAJAGWPfuNSIfPYsWPuuU44+n5Eh4CJlFQYVFMz8dc76iy+r0k803wz2TfffNMVkOObxw4bNiwWCP31kLrW0d+oR9dVaXq9LtVaiL+WMTydmtRJstevTrUaRRW+BlNdsmaJ/vVoev1MhPjtVef/D5pGwQFIRZ/p7373u27/OBM3q9HnUkHwrrvucmHTU//kyZNPOxGkE0DaRxUE9+zZE7spl6bT9F78/Dr5o5rJVLR/79+/P7Y/paLlPvLII8EzK9SddAEAmcWHTH2/HD58OBiKKBEwkRbdwCNZk1jd+CL+WqWSpMKhQpXvj7+ZjwrPanIa39RPNZdqchreVjUzDV/LKFpm/N1yk73++Du7loRwEFZhWhehaxvDtF26mYmmBdKhz7T2B9X0+5MV6tRMtF+/fsFUBdM1jGqmrvkKCqr6XKplQfxJEG2Djh/hE0E6YeSvN9Z8Opmiz7/GK3zqN2C9+Pl1XEhWAxmmacaNG+daK2g+3yV7DapNVSsHP51qY2+++eZgLAAg0+mGPmG5ubkF3tQnfnoUTs6JLG50vOqdddaxfZvgWdlSlrcdKEvKy77GMQUAUFxl9btELVF0AlXBMhWFS12CURZP2mfK/4eAmaEoDAJnRnnZ1zimAACKi++SzJYp/x+ayAIAAAAAIkHABAAAAABEgoAJAAAAAIgEARMAAAAAEAkCJgAAAAAgEll/F1kAAAAAKA8y4S6y/ExJhuI20MCZUV72NY4pAIDi4rsks2XK/4cmsgAAAACASBAwAQAAAACRIGACAAAAACJBwAQAAAAARIKACQAAAACIBAETAAAAQNY6ePCgrVmzxpYvX56y03SaHkVHwAQAAACQtTZt2mT169e3Dh06pOw0naZH0REwkZLO4owaNcpatWqVrxs4cKDt3r27wGk0zJ8Fmjlz5mnjNSzR8HC3dOlSN3+8CRMmJJ020TJ79uxp69evd9usbffPwwoal+o1at3x49RpW4BMkuizHN5XS1L8fqL9OB3aj/y02k+HDBly2j4KAEAi+n5TcEyHpjsT34fZjICJIluxYoUNHTo0FjILosLh2LFjg2fFp4Lm1KlTg2eZTa+bkIlMNGPGDNuwYYOtXr3aPZ8zZ457LKpwCExE47VOrU/rVdexY0e+yAEAyCIETBSKL5DqUbZv3247d+50/Z6fRt2kSZPcsMWLF7vH8ePHx8bNmzfPatasaYMGDYoNGz58+GnTdevWzQ3zFGiXLFni+sPr8tsUpuX58YsWLbLWrVsHY4on/jVWr149GGM2YMCAWAHav56NGze6RyAT6fPbo0ePEv+cavlaT3h/ufLKK/M9BwAAZRsBE8XStWtXa9asWfAsNQUzX+OpsKfCZXFoeb72Q0E0PoyWJm3X1q1bXX/Lli3dI5CJtE/OnTvXNQ/3NEzPfVPWcC28+v1w31ReNZeqrVfLAg1P1LRd+4FONiWrsdTwcNPddJvPFjSftkPjbr/99qTbBQAAokPARKEMHjzYFdL0qNq5+No78dOoU0FU4zVM1KxWodQXSotCbeP98mbPnu0uyE52/Zgv7KqL8hqz+NcY5rdJnfo7d+5svXv3DsYCmcN/jrVP9u3bN1bDr31Tzd8VGFUTv2zZMhdAdc2jOvVrmMb98pe/dPOMGTPGtTzwrQYSnexRa4WmTZu6fSN+v9G+eeutt7oaTs2vVgA6QZMqEKYzn/bDfv36Jd0uAAAQHQImikzhLd3QpkKdCqQKW+KDZlFrE1RQVRNbX3uqAmSfPn0y7qYfai77+OOPp31hOXAmhZt6q/mqr/lbu3atNW/e3Dp16uSe6/OrAKrbt4sCqG8af8EFFxTq860gqhComszwzbS2bNli+/bti52M8SemFi5c6J4nk8582g/9awEAACWLgIlC8QVSHxYV7OJvDBIutCoIeiqEzpo1yxUuVeCTcBPXwlJti66r9NuigqaWHxa+BjNRbWtRJXuN4q/B1Lr1/tx///3BGCBzDRs2zNX8KTxu3rzZfXZV0+hr6lWbqRCq/U61ljfddJMbXpSTRNoPtT9OnDjRBU4fWBcsWOBOPPl1Kihqmwo6RhR1PgAAUDIImChxKuSpZsQ3iVXhUs3ZikrL0fJ84VHBtXv37q4/k6gZsGpYVdPLdV/IdApqqgkU1V6GT874TmFQwid31Cy2qJ/vtm3bWr169dy6GzZsaDfccIM7ORNeZ6oTQ0WdDwAAlAwCJgolfM2WmrkqQHXp0iUYe5KfRp1C1p49e1xtQriGwf9kSfwdJdOlu8iGa1f8T5b06tXLPXrhazDVhQvCqvFUs1o/Ts19Dx06lHRcuDYk/jX68BymQvjIkSNdvwrhiaYBMoVq/9u1a+dO2Cj4aR9LFBw1zA+vVq2aC6PpeuSRR/LtB2qKq+ODQqKOJfv37y/0T6UUdT4AAFAyCJgoMhXsHnroodiNQZJRIVQ39oin0BXfvDQdyQq1araaaTfw0HVhar6rMD5t2rRgKJAZwidKdBLo5ptvdsMVMtVKYPTo0bHx/npJhUE/XCd5dJLI73f6vCuYalyicFqjRo18J5p0DJg+fbpbn040jRs3zu3Hfnyy5YQVdT4AQPmh74p0T/RrOlrAFE/OiTxBf9ZZ9c4669i+TfCsbCnL2w6UJeVlX+OYAgAorrL6XaJWaJs2bUrr2nyFyxYtWpTJkJkp/x8CZoaiMAicGeVlX+OYAgAoLr5LMlum/H9oIgsAAAAAiAQBEwAAAAAQCQImAAAAACASBEwAAAAAQCQImAAAAACASGT9XWQBAAAAoDzIhLvI8jMlGYrbQANnRnnZ1zimAACKi++SzJYp/x+ayAIAAAAAIkHABAAAAABEgoAJAAAAAIgEARMAAAAAEAkCJgAAAAAgEgRMAAAAAFnr4MGDtmbNGlu+fHnKTtNpehQdARMAAABA1tq0aZPVr1/fOnTokLLTdJoeRUfARIF0BmfUqFHWqlWrhN3AgQNt9+7dNnPmzITjly5dGizJEk7Ts2dPW79+vVuGlqVhWl/4zJGWER4enjbc+WWF+XVOmDDBPS/Merxk74GWDZQ1yT7P6uI/+yVB++CQIUNi+6r2Tb9/AgBQEvTdpuCYDk1X0t+F2Y6AiRI1ePDgfCEzHbNnz7aVK1cGz9K3ZcsW69OnT9qF1XTWo0KwlqlpgWxQvXp1mzRpkm3YsMGWLVtml112mc2bN88913CNP5PGjBnjOgAAkB0ImChQfGG0c+fO1qxZs1iBdNasWfnOCA0fPtwNX716tQ0YMMAN27x5s3v0/DTqFi1aZK1btw7GnDJ+/HhX01GQ8HaE1/fMM8+cVpOZTEHr0XAVfBVc9br1+v12a701a9YMpgQAAAAgBEyUiEOHDsWCZfPmzd1jOhQab7jhBluxYoVNmzYtGJqagvC4ceNcEFQg1EXaBUlnPfPnz3fjtczp06fnC9IKxVdeeWXwDMgOvvnqww8/7JrMJmpars43D/fNbZ977rnY+Pim6vFNcmfMmBGMOUnL8utRawdN69evLr5Fgm/Krs5PSxNbAAAyBwETkZo6daor+HXt2tWFM9UqdurUKRh7kp/GFxDj27lfd911bj5NV5jmtQqA3bt3d/0bN250jwVJtR6/DC1Ty1ahWYVnv+0qUKeqZQXKmj179ti2bdtcTb1q8PUZHzp0qI0dO9YNU03+3Llz84XIBx54wJ2E0fj+/fvblClT3H6t7tZbb7UePXrEav8/+ugjW7duXTDn6dQcXa0DNK1aCqhFgt8/9ahWB741wYgRI9x6AQBA5iBgosSoKWxRrunS9Lp2U1TbER9Ao3Km1gOUJfXq1XMnT7y1a9e6Vgj+RJFOtvTt2zdfKwGFT1/Dr3n37dvnWjGoNYH6e/fu7cbJsGHDrE2bNsGz0+mkT79+/Vy/WgoosPrWEAsXLnT7rF+Xxo8cOdL1AwCAzEDARKQUKv31kKoZTHSn1fA1mMkCaLdu3dx0qs145JFHgqEFU03LkiVLXH/Lli3dYyoFrccvQ8vUslWY1TWjqlVRE1ugPFC40/6hW7f72nsFynRaCezcudPq1Klj1apVC4YUnU4Abd26tVBN7gEAwJlHwETkwjWDkydPTvuGO/FU06HrH1VrkYoKn3feeWfsmslwjUkqydbTpUsXFyS1TC2bGk6URwp04ZNCvkvnzq8NGzaM1WZ6Cp3FaVoef9OwdIIuAAA4cwiYKBG+ZlBN5Pz1WF74Gkx1ya6zVDM41ZQk43+WRMtQ7Yr/KZFwc710JFtPuPlduAZH69S6gfKgbdu2rha/MNdDewqYuqZTN8zydOfpHTt2BM/SpxNXupZTzdl9QNXJK12jCQAAMgcBEyVG12KpBlDhbM6cOcHQwvFBNR2qhdTNPzRPYSVbz6BBgxI2idVz3bmyMEEWKIv0GddnffTo0bGTQvF3ik1G8+omPAqFft6OHTsWeA1mQbQ/6qZbuomYlqWTV7oBEQAABdFJynRbz2i6RJdvIX05J/IE/Vln1TvrrGP7ohVkSltZ3nagLCkv+1q2vk6FX10vrfAJAChZZfW7RC3pNm3alNblTgqXLVq0KJMhM1P+P9RgAgDKJDXbVRNZXS8NAEAyCovt2rVz3xepOk1HDWbxEDABAGWCAqVvaqtOzXYfeughd700AADIDARMAECZoGulw3ey1c8GES4BAMgsBEwAAAAAQCQImAAAAACASBAwAQAAAACRyPqfKQEAAACA8iATfqaE38HMUNn6m3VApikv+xrHFABAcfFdktky5f9DE1kAAAAAQCQImAAAAACASBAwAQAAAACRIGACAAAAACJBwAQAAAAARIKACQAAACBr7d6921avXm0rV65M2Wk6TY+iI2ACAAAAyFpbt26148ePW05OTspO02l6FB0BEykdPHjQRo0aZa1atcrXDRw4MHaGJ51pwtavX289e/Z002g+ze+FlxU/v5/PD0+2XnVLly4N5jplwoQJaU0HZLNE+038fljStC8PGTKEs8QAgBKXm5sb9CXXqFEjq1atmutPZ3okR8DMAseOHw/6CpbudOlasWKFDR06tMACYrJpli9fblu2bHH9y5Yti/XH0/zz588PnhXO4MGD8xWaFS6nTp3q+gGYzZgxwzZs2OCaA8mcOXPcIwAA5Un9+vWtatWq7lG1mCgeAmYZdyQ3136x8B/2zy3/DYYkpvGaTtMXhy+Q6lG2b99uO3fudP2en2bevHnWrFmz06ZR2NQ0nTt3tgEDBrhwqcCZzOTJk11tRyp+veqGDx/uhs2ePdu1p9c6lyxZ4oaFp/OvAyjPqlevbj169LCNGzcGQwAAKB9q1aplNWrUsBMnTrjyqh5RPATMMq5KxYr2w89ebE+89XbSkKnhGq/pNH2Uunbt6kJkItpJFR4bN25sDRs2DIaarV271tVMNm/e3K655ho3bPHixQmb5ykoahlTpkwpVPO9m2++2YVXWbhwoXv0FCr9srp16+Y6oDzTCZi5c+e6puf+uZqvPvzww675rGr/tc+Em9WGm6/76Z977rlY0/f45u3q1zA//6uvvhqMOWnmzJkJlw0AQJQqVDgVf6pUqWJ169Z1/Xv37rUjR464fhQPATML1Kla1e68/NKEIdOHS43XdMWlZqcqAOpR4W/SpEmu9iMsPI1/riYHng98qjG56KKLXE1msmayvXr1cutRTWRhmu/5GhnRhdpqU++3R8vq0KHDGb/mDMg0fl/ViaK+ffta69atgzFme/bssW3btrma/jFjxrj9s0+fPu65mtTqBFG4+bqmV6sFdX78tGnT3DiFRTWVHzt2bGx+nWTSPKIWCgq4Og5o/C9/+Us3HACAKNWsWdOaNGlilStXtooVK8YqQFQePHDggOtH8REws0SikBl1uIyn6xlThTTVFg4aNCh4drKgqaaqqvXs0qWLC57du3cvsJmsajM0vZYV3xy3MLQdvtmuKGiqwJxO81sgG4Wbi6t5rGoqvXr16rl9z1P4vPLKK11/oia1mn7EiBFunDqFV53c0fFBrRYUODt16uSm1XhNq3k8HRv8/n3BBRfkOykFAEBx6dpKBUzVYOqGPurUf/ToUVrNRIyAmUXCIXPashUlEi59gVQ1Dap5TFSzqGl8kBs9enS+AOebx/raENWe+BvvJGsmq4LtyJEj3Xz33XdfMLRgWo6WJ02bNnUFWtGyFi1aFNt+bcesWbPcOKA8GzZsmAuEBX3Jhu/CrNrIdG3evDnffhhP+6VqLW+66Sa3bO7sDACImq6t3LFjhwuUCpaVKlVyw3bt2sV1lxEjYGYZHzKP5h4vsZrLdKjA2L9/fxfgwtdPxl8PGVbQ3WT79evnrql88803k04Tdv/997vwq5Drr+fy15GJrzkFcJJqD/ft2xc8O532n5YtW8ZqPMePHx+MSU21l74209P6fBNZCZ/80bIJmQCAqOk3LhUyjx075p7ru8j3IzoEzCykUPn9z3yqRMJl+Jot1Sj6pq6JqEYkXMvpm8dKuGmersdKdTdZ36TON29NxG+bOl8rqppPFVxF69a1l/HT6DpPoLxTTX67du0SNk1VMFRAVFD0z30LgXToGhcFR93RWTS/jgGewqQPlLpe2q8HAICo+ZCpk5yHDx8OhiJKBEwUmcLeQw89FAtw8VRQ9TfW0U+NPPHEEy6UKnS2bdvWDReFR39DHhU6w7UaYVqPAmM6tG1qpuuv/0xWaNX6uIssyqvwSRkFSN19ORHto5rWT6/m7bVr1w7GpqZ9V8cKNZn386vz12AqgPpxOgmk4wH7JQAgKrqhT1hubm6BN/WJnx6Fk3Miixsdr3pnnXVs3yZ4VraU5W0HypLysq9xTAEAFFdZ/S5RKzqdSFWwTEXhUvcNKIs3m8uU/w8BM0NRGATOjPKyr3FMAQAUF98lmS1T/j80kQUAAAAARIKACQAAAACIBAETAAAAABAJAiYAAAAAIBIETAAAAABAJLL+LrIAAAAAUB5kwl1k+ZmSDMVtoIEzo7zsaxxTAADFxXdJZsuM/4/Z/weCHa2noOG1XQAAAABJRU5ErkJggg==;" vertex="1" parent="1">
          <mxGeometry x="80" y="1080" width="630" height="374.58" as="geometry" />
        </mxCell>
        <mxCell id="njZ23-EEaWyoHb-toW5m-42" value="" style="shape=flexArrow;endArrow=classic;html=1;rounded=0;endWidth=14;endSize=3.67;width=18;fillColor=#f8cecc;strokeColor=#b85450;exitX=0.292;exitY=0.879;exitDx=0;exitDy=0;exitPerimeter=0;" edge="1" parent="1">
          <mxGeometry width="50" height="50" relative="1" as="geometry">
            <mxPoint x="400" y="1140" as="sourcePoint" />
            <mxPoint x="290" y="1140" as="targetPoint" />
          </mxGeometry>
        </mxCell>
        <mxCell id="njZ23-EEaWyoHb-toW5m-43" value="Select - NEW" style="edgeLabel;html=1;align=center;verticalAlign=middle;resizable=0;points=[];labelBackgroundColor=none;" vertex="1" connectable="0" parent="njZ23-EEaWyoHb-toW5m-42">
          <mxGeometry x="-0.1714" y="-2" relative="1" as="geometry">
            <mxPoint x="-11" y="2" as="offset" />
          </mxGeometry>
        </mxCell>
      </root>
    </mxGraphModel>
  </diagram>
</mxfile>
